<svg id="svg" version="1.1" width="32" height="32" viewBox="0 0 400 400" xmlns="http://www.w3.org/2000/svg" xmlns:xlink="http://www.w3.org/1999/xlink"><g id="svgg"><path id="path0" d="M192.400 52.617 C 183.604 53.292,179.289 53.830,178.677 54.328 C 178.415 54.541,176.760 54.815,175.000 54.936 C 171.226 55.196,168.190 55.704,166.800 56.310 C 166.250 56.550,164.720 57.058,163.400 57.439 C 162.080 57.820,160.264 58.553,159.365 59.066 C 158.466 59.580,157.386 60.002,156.965 60.005 C 156.544 60.007,155.436 60.446,154.503 60.980 C 153.570 61.513,152.009 62.070,151.035 62.216 C 149.934 62.381,148.922 62.845,148.362 63.441 C 147.866 63.968,147.238 64.400,146.966 64.400 C 146.694 64.400,145.331 64.940,143.936 65.600 C 141.736 66.641,140.948 66.799,137.987 66.800 C 136.110 66.800,133.590 67.079,132.387 67.420 C 131.184 67.760,129.422 68.207,128.471 68.413 C 127.520 68.618,126.260 69.126,125.671 69.541 C 125.082 69.956,124.150 70.431,123.600 70.596 C 123.050 70.762,121.302 71.501,119.716 72.237 C 118.130 72.974,116.330 73.696,115.716 73.841 C 115.102 73.986,114.240 74.428,113.800 74.822 C 113.360 75.217,112.049 75.913,110.887 76.369 C 109.725 76.825,108.375 77.446,107.887 77.749 C 107.399 78.052,106.142 78.506,105.094 78.757 C 104.046 79.009,102.367 79.841,101.363 80.607 C 100.360 81.373,99.057 82.116,98.469 82.258 C 97.881 82.400,96.950 82.819,96.400 83.188 C 95.850 83.557,94.590 84.267,93.600 84.765 C 92.610 85.262,91.260 86.170,90.600 86.781 C 89.940 87.392,87.802 88.680,85.850 89.644 C 83.897 90.608,81.287 92.254,80.050 93.301 C 78.812 94.348,76.976 95.911,75.969 96.774 C 74.962 97.637,72.982 99.068,71.569 99.955 C 69.819 101.053,68.426 102.357,67.200 104.043 C 66.210 105.405,64.573 107.437,63.563 108.559 C 59.929 112.596,56.800 116.534,56.800 117.070 C 56.800 118.252,54.319 122.998,52.888 124.555 C 52.056 125.460,51.131 126.830,50.831 127.600 C 50.532 128.370,49.387 130.854,48.287 133.119 C 46.362 137.081,45.992 138.212,45.187 142.600 C 44.496 146.369,43.738 149.400,43.269 150.274 C 43.011 150.754,42.801 151.474,42.802 151.874 C 42.803 152.531,41.372 157.585,40.330 160.600 C 40.102 161.260,39.594 163.080,39.201 164.646 C 38.808 166.211,38.287 167.864,38.043 168.319 C 37.799 168.775,37.600 169.801,37.600 170.600 C 37.600 171.399,37.418 172.392,37.196 172.807 C 36.974 173.222,36.599 175.145,36.362 177.081 C 36.126 179.016,35.778 181.860,35.590 183.400 C 35.403 184.940,35.057 188.360,34.823 191.000 C 34.588 193.640,34.224 197.150,34.013 198.800 C 33.367 203.855,34.122 225.556,35.036 228.200 C 35.340 229.080,35.591 230.633,35.594 231.651 C 35.597 232.669,35.870 234.149,36.200 234.938 C 36.530 235.728,36.800 237.066,36.800 237.912 C 36.800 238.758,37.175 240.226,37.633 241.174 C 38.091 242.123,38.559 243.551,38.671 244.349 C 38.784 245.147,39.141 246.430,39.465 247.200 C 39.789 247.970,40.239 249.050,40.466 249.600 C 40.693 250.150,41.292 251.410,41.798 252.400 C 42.303 253.390,43.380 256.170,44.191 258.579 C 45.770 263.271,46.286 264.349,48.910 268.424 C 50.666 271.152,52.075 272.888,54.318 275.088 C 55.043 275.799,56.005 277.214,56.456 278.233 C 56.907 279.252,58.036 280.831,58.967 281.743 C 59.897 282.654,61.051 283.970,61.532 284.666 C 62.012 285.362,63.206 286.319,64.185 286.793 C 65.433 287.397,66.325 288.240,67.171 289.615 C 67.835 290.694,69.058 292.036,69.889 292.598 C 70.720 293.160,72.480 294.429,73.800 295.418 C 75.120 296.406,76.830 297.558,77.600 297.976 C 78.370 298.395,80.517 299.741,82.372 300.969 C 84.227 302.196,85.899 303.200,86.089 303.200 C 86.279 303.200,87.372 303.886,88.517 304.724 C 91.437 306.860,97.486 309.600,99.283 309.600 C 100.091 309.600,100.864 309.780,101.000 310.000 C 101.136 310.220,101.963 310.400,102.837 310.400 C 103.746 310.400,105.284 310.835,106.430 311.415 C 107.532 311.974,109.191 312.594,110.117 312.794 C 114.708 313.785,117.238 314.418,118.840 314.975 C 119.808 315.313,121.140 315.592,121.800 315.597 C 122.460 315.601,123.496 315.864,124.102 316.180 C 125.640 316.982,130.573 318.415,133.183 318.817 C 134.383 319.002,135.733 319.326,136.183 319.536 C 137.537 320.170,142.000 321.166,145.400 321.593 C 147.160 321.814,149.320 322.193,150.200 322.435 C 151.080 322.677,153.456 323.269,155.481 323.752 C 157.505 324.234,159.290 324.757,159.448 324.914 C 159.605 325.071,160.583 325.200,161.621 325.200 C 162.659 325.200,164.024 325.469,164.654 325.798 C 165.284 326.126,166.160 326.398,166.600 326.402 C 167.040 326.406,168.840 326.767,170.600 327.205 C 178.800 329.244,202.065 329.028,208.797 326.852 C 209.566 326.603,210.883 326.400,211.724 326.400 C 212.565 326.400,213.613 326.207,214.053 325.972 C 214.493 325.736,215.696 325.387,216.727 325.196 C 219.757 324.633,225.304 323.178,226.600 322.606 C 227.260 322.314,228.970 321.861,230.400 321.599 C 233.533 321.024,237.105 320.107,238.200 319.596 C 238.640 319.390,239.990 318.842,241.199 318.378 C 242.408 317.914,243.578 317.396,243.799 317.229 C 244.020 317.061,245.100 316.689,246.200 316.401 C 247.300 316.114,248.650 315.655,249.200 315.381 C 249.750 315.108,251.280 314.572,252.600 314.190 C 253.920 313.809,255.413 313.340,255.919 313.148 C 256.424 312.957,257.166 312.800,257.568 312.800 C 257.970 312.800,259.086 312.452,260.049 312.027 C 262.061 311.139,267.601 309.600,268.785 309.600 C 269.543 309.600,271.330 308.841,277.800 305.771 C 279.340 305.040,281.410 304.089,282.400 303.657 C 283.390 303.226,285.190 302.138,286.400 301.240 C 287.610 300.342,289.837 298.980,291.348 298.213 C 294.300 296.714,295.682 295.669,300.478 291.312 C 302.171 289.774,304.808 287.660,306.338 286.614 C 308.438 285.179,309.391 284.209,310.227 282.657 C 311.584 280.135,315.262 276.038,316.987 275.126 C 317.688 274.755,318.694 273.821,319.223 273.049 C 319.752 272.277,320.489 271.565,320.861 271.468 C 321.233 271.371,321.936 270.509,322.424 269.552 C 323.278 267.879,328.076 262.800,328.803 262.800 C 328.997 262.800,329.391 262.382,329.678 261.870 C 332.293 257.211,335.428 253.114,338.044 250.937 C 339.206 249.970,342.827 244.427,344.567 240.952 C 345.564 238.960,347.003 236.295,347.766 235.028 C 348.529 233.762,349.273 232.157,349.420 231.463 C 349.567 230.768,350.118 229.627,350.644 228.927 C 351.170 228.226,351.600 227.441,351.600 227.181 C 351.600 226.921,352.051 225.874,352.602 224.854 C 353.981 222.301,355.515 217.692,356.415 213.400 C 356.830 211.420,357.464 208.810,357.824 207.600 C 358.184 206.390,358.619 204.410,358.792 203.200 C 358.965 201.990,359.301 200.550,359.538 200.000 C 360.156 198.573,361.200 192.472,361.200 190.295 C 361.200 189.281,361.388 187.958,361.618 187.353 C 362.238 185.722,362.288 158.862,361.673 157.726 C 361.413 157.246,361.192 155.896,361.182 154.726 C 361.173 153.557,360.905 151.880,360.588 151.000 C 360.271 150.120,360.006 149.130,359.999 148.800 C 359.991 148.470,359.339 146.670,358.549 144.800 C 357.759 142.930,356.960 140.529,356.775 139.464 C 356.476 137.755,355.538 135.278,354.355 133.079 C 354.142 132.683,353.059 130.659,351.949 128.582 C 350.839 126.504,349.765 124.702,349.561 124.576 C 349.357 124.450,348.592 123.411,347.860 122.267 C 347.128 121.122,346.262 119.919,345.936 119.593 C 345.610 119.267,345.052 118.146,344.696 117.101 C 344.243 115.771,342.935 113.962,340.325 111.057 C 335.259 105.419,333.016 102.759,332.481 101.755 C 332.233 101.290,331.484 100.683,330.815 100.406 C 330.147 100.129,329.600 99.617,329.600 99.267 C 329.600 98.918,328.287 97.364,326.681 95.815 C 325.076 94.266,323.411 92.399,322.981 91.667 C 322.552 90.934,321.120 89.562,319.800 88.619 C 318.480 87.675,316.513 85.988,315.429 84.870 C 314.344 83.752,312.994 82.645,312.429 82.408 C 311.863 82.172,310.984 81.340,310.477 80.559 C 309.965 79.773,308.901 78.867,308.091 78.529 C 307.287 78.193,305.833 77.217,304.859 76.359 C 303.884 75.502,302.857 74.800,302.576 74.800 C 302.295 74.800,301.105 73.935,299.932 72.878 C 297.169 70.388,292.981 67.787,290.779 67.194 C 289.822 66.937,288.405 66.203,287.629 65.563 C 286.853 64.923,285.983 64.400,285.696 64.400 C 285.408 64.400,284.294 63.955,283.220 63.410 C 282.145 62.866,280.486 62.304,279.533 62.163 C 278.580 62.022,277.048 61.477,276.129 60.953 C 275.210 60.429,274.005 60.000,273.453 60.000 C 272.900 60.000,271.200 59.550,269.675 59.000 C 268.151 58.450,266.385 57.994,265.752 57.987 C 265.118 57.980,264.251 57.710,263.824 57.387 C 263.396 57.064,262.283 56.800,261.350 56.800 C 260.416 56.800,259.145 56.606,258.526 56.368 C 257.100 55.822,252.121 55.233,245.200 54.794 C 242.230 54.605,236.560 54.165,232.600 53.816 C 228.640 53.466,223.150 53.102,220.400 53.007 C 211.159 52.688,203.415 52.368,201.400 52.223 C 200.300 52.144,196.250 52.322,192.400 52.617 M226.200 76.751 C 229.720 76.965,233.229 77.334,233.997 77.570 C 234.766 77.807,237.016 78.003,238.997 78.007 C 242.488 78.014,246.807 78.401,252.600 79.227 C 254.140 79.446,256.390 79.759,257.600 79.922 C 258.810 80.085,260.024 80.359,260.297 80.531 C 260.968 80.953,264.585 81.980,266.800 82.378 C 269.294 82.826,273.821 84.517,275.146 85.497 C 276.718 86.659,280.640 88.571,283.115 89.381 C 284.656 89.886,285.919 90.742,287.772 92.537 C 290.230 94.918,292.650 96.891,296.188 99.400 C 300.450 102.422,309.892 111.522,312.790 115.400 C 313.612 116.500,316.046 119.200,318.198 121.400 C 320.351 123.600,322.662 126.300,323.334 127.400 C 324.005 128.500,325.150 130.139,325.877 131.041 C 326.605 131.944,327.200 132.827,327.200 133.003 C 327.200 133.180,327.695 133.966,328.300 134.749 C 328.905 135.533,329.670 136.720,330.000 137.387 C 330.330 138.054,330.906 139.050,331.280 139.600 C 331.654 140.150,332.414 141.945,332.970 143.589 C 333.526 145.232,334.345 147.070,334.790 147.672 C 335.236 148.275,335.600 149.017,335.600 149.321 C 335.600 149.626,335.969 150.938,336.419 152.237 C 338.873 159.312,339.590 177.961,337.825 188.800 C 336.717 195.600,336.522 196.584,336.058 197.726 C 335.806 198.345,335.600 199.425,335.600 200.126 C 335.600 200.827,335.221 202.390,334.757 203.600 C 333.807 206.083,333.016 208.989,332.607 211.498 C 332.455 212.432,332.186 213.285,332.011 213.393 C 331.835 213.502,331.577 214.198,331.438 214.941 C 331.298 215.683,330.841 216.601,330.421 216.981 C 330.002 217.361,329.536 218.420,329.387 219.336 C 329.238 220.251,328.729 221.629,328.258 222.398 C 327.786 223.167,327.075 224.517,326.678 225.398 C 326.281 226.279,325.348 227.630,324.605 228.400 C 323.862 229.170,322.870 230.790,322.399 232.000 C 321.402 234.566,319.114 237.604,314.939 241.902 C 313.297 243.593,311.391 246.031,310.704 247.319 C 309.474 249.627,306.758 252.400,305.728 252.400 C 305.438 252.400,305.200 252.540,305.200 252.712 C 305.200 252.883,304.017 254.266,302.570 255.785 C 301.124 257.305,299.602 259.213,299.187 260.025 C 298.772 260.838,297.031 262.675,295.316 264.106 C 293.602 265.538,291.152 267.855,289.871 269.255 C 285.587 273.936,285.267 274.225,283.329 275.176 C 281.443 276.101,275.860 280.055,275.409 280.786 C 275.200 281.124,268.904 284.296,265.600 285.728 C 264.830 286.061,263.030 286.545,261.600 286.803 C 260.170 287.061,258.100 287.630,257.000 288.068 C 255.900 288.506,253.920 289.227,252.600 289.671 C 251.280 290.115,249.972 290.665,249.693 290.894 C 249.414 291.123,248.514 291.457,247.693 291.635 C 246.872 291.814,245.388 292.136,244.395 292.351 C 243.403 292.565,241.513 293.179,240.195 293.715 C 238.878 294.251,237.080 294.905,236.200 295.169 C 234.546 295.665,233.228 296.150,229.800 297.524 C 228.700 297.965,226.720 298.456,225.400 298.614 C 224.080 298.772,222.514 299.149,221.920 299.451 C 221.326 299.753,220.408 300.000,219.881 300.000 C 219.354 300.000,218.400 300.260,217.761 300.577 C 217.123 300.894,215.700 301.365,214.600 301.623 C 213.500 301.881,212.009 302.342,211.286 302.646 C 210.564 302.951,209.295 303.200,208.466 303.200 C 207.638 303.200,206.767 303.393,206.532 303.628 C 204.757 305.403,175.382 305.410,172.068 303.636 C 171.619 303.396,170.566 303.194,169.726 303.187 C 168.887 303.180,167.851 302.910,167.424 302.587 C 166.996 302.264,166.062 302.000,165.347 302.000 C 164.633 302.000,162.800 301.550,161.275 301.000 C 159.751 300.450,158.142 300.000,157.700 300.000 C 157.259 300.000,156.251 299.730,155.462 299.400 C 154.672 299.070,153.356 298.800,152.537 298.800 C 150.764 298.800,146.931 298.125,144.325 297.355 C 143.294 297.050,141.890 296.800,141.205 296.800 C 140.520 296.800,139.474 296.556,138.880 296.258 C 137.674 295.652,131.873 294.044,129.385 293.625 C 128.497 293.475,127.507 293.189,127.185 292.988 C 126.863 292.788,125.700 292.495,124.600 292.337 C 122.201 291.993,115.748 290.281,115.349 289.883 C 115.194 289.727,114.782 289.600,114.433 289.601 C 114.085 289.602,112.540 289.077,111.000 288.434 C 109.460 287.792,107.120 287.059,105.800 286.805 C 104.480 286.551,102.950 286.094,102.400 285.788 C 101.850 285.483,100.590 284.808,99.600 284.288 C 95.776 282.280,92.104 279.804,89.818 277.692 C 88.508 276.481,86.801 275.225,86.025 274.901 C 85.248 274.577,84.377 273.974,84.088 273.562 C 83.799 273.149,82.761 272.342,81.782 271.768 C 80.802 271.194,80.000 270.532,80.000 270.298 C 80.000 269.578,76.811 265.601,73.775 262.536 C 70.910 259.643,69.939 258.252,68.374 254.800 C 67.926 253.810,66.758 251.416,65.779 249.479 C 64.801 247.542,64.000 245.686,64.000 245.354 C 64.000 245.022,63.561 243.817,63.024 242.675 C 61.842 240.163,60.000 234.592,60.000 233.529 C 60.000 233.106,59.749 232.274,59.443 231.680 C 59.136 231.086,58.759 229.160,58.604 227.400 C 58.449 225.640,58.148 223.390,57.936 222.400 C 57.267 219.283,57.466 194.984,58.181 192.400 C 58.516 191.190,58.803 189.120,58.819 187.800 C 58.835 186.480,59.022 184.500,59.234 183.400 C 59.639 181.306,60.277 177.062,60.648 174.000 C 60.768 173.010,61.301 171.310,61.833 170.221 C 62.365 169.133,62.800 167.909,62.800 167.502 C 62.800 167.094,63.049 166.274,63.353 165.680 C 63.657 165.086,64.039 163.790,64.202 162.800 C 64.364 161.810,64.822 160.280,65.219 159.400 C 66.106 157.430,66.781 154.619,67.188 151.200 C 67.569 148.002,68.152 145.982,69.423 143.463 C 69.960 142.398,70.400 141.275,70.400 140.969 C 70.400 140.404,72.489 136.726,73.469 135.566 C 74.382 134.486,79.199 126.623,79.208 126.200 C 79.232 125.063,91.461 113.227,93.400 112.464 C 96.039 111.426,99.951 109.126,101.200 107.877 C 102.344 106.733,108.064 103.200,108.772 103.200 C 109.031 103.200,109.905 102.750,110.714 102.200 C 111.523 101.650,112.335 101.200,112.518 101.200 C 112.700 101.200,113.783 100.778,114.925 100.262 C 116.066 99.745,118.710 98.548,120.800 97.602 C 122.890 96.655,125.271 95.457,126.092 94.940 C 126.913 94.423,127.681 94.000,127.800 94.000 C 127.919 94.000,129.187 93.430,130.617 92.732 C 133.143 91.500,133.287 91.478,135.709 91.924 C 138.843 92.501,141.654 92.086,144.187 90.670 C 145.239 90.081,146.344 89.600,146.642 89.600 C 146.939 89.600,148.131 89.169,149.291 88.642 C 158.038 84.667,159.926 83.767,160.862 83.127 C 161.446 82.727,162.457 82.400,163.110 82.400 C 163.763 82.400,165.625 81.839,167.248 81.153 C 168.872 80.467,170.560 79.755,171.000 79.571 C 172.154 79.087,178.417 78.000,180.051 78.000 C 180.815 78.000,181.636 77.804,181.876 77.564 C 183.322 76.118,208.298 75.660,226.200 76.751 M172.200 113.731 C 161.439 117.950,160.478 132.095,170.669 136.247 C 178.523 139.446,186.800 134.100,186.800 125.828 C 186.800 122.985,186.372 121.847,183.771 117.781 C 181.458 114.166,175.981 112.249,172.200 113.731 M218.600 120.314 C 216.740 120.979,211.129 124.978,210.589 126.022 C 209.965 127.228,209.429 130.311,208.786 136.400 C 208.069 143.184,207.687 145.781,207.258 146.800 C 207.026 147.350,206.563 149.192,206.228 150.893 C 205.618 153.998,204.132 157.508,202.795 159.000 C 201.745 160.172,198.400 165.152,198.400 165.543 C 198.400 165.727,197.815 166.506,197.100 167.274 C 196.385 168.041,195.121 169.554,194.290 170.635 C 188.554 178.101,180.227 184.398,174.200 185.826 C 173.540 185.982,172.819 186.251,172.599 186.422 C 171.318 187.417,160.962 187.937,157.000 187.204 C 152.715 186.412,141.996 185.841,140.638 186.332 C 139.926 186.589,139.060 186.800,138.715 186.800 C 135.908 186.800,131.458 193.718,131.499 198.019 C 131.565 204.962,135.760 208.497,144.800 209.227 C 147.330 209.431,151.650 209.799,154.400 210.045 C 163.665 210.873,174.256 210.322,177.290 208.853 C 178.378 208.327,179.828 208.000,181.077 208.000 C 182.278 208.000,183.282 207.783,183.545 207.466 C 183.789 207.172,184.756 206.700,185.694 206.417 C 186.632 206.134,188.238 205.645,189.261 205.332 C 191.308 204.705,194.913 202.353,197.400 200.022 C 198.280 199.198,199.667 198.125,200.483 197.639 C 201.299 197.153,202.396 196.244,202.922 195.620 C 203.448 194.995,204.428 194.199,205.100 193.852 C 205.773 193.504,206.723 192.540,207.213 191.710 C 207.703 190.879,208.983 189.300,210.058 188.200 C 215.319 182.816,216.849 180.877,218.423 177.600 C 219.321 175.730,220.815 173.210,221.743 172.000 C 222.671 170.790,223.652 169.350,223.923 168.800 C 224.195 168.250,224.868 167.181,225.420 166.424 C 225.972 165.667,226.535 164.587,226.673 164.024 C 226.810 163.461,227.320 162.100,227.807 161.000 C 228.728 158.920,229.615 154.588,229.896 150.800 C 229.985 149.590,230.403 147.874,230.823 146.987 C 232.507 143.433,233.680 130.914,232.613 127.889 C 230.683 122.419,223.526 118.550,218.600 120.314 M141.069 132.840 C 133.958 134.271,129.721 142.652,133.059 148.686 C 138.748 158.969,148.829 159.010,154.142 148.772 C 156.622 143.994,154.429 135.200,150.758 135.200 C 150.574 135.200,149.653 134.666,148.712 134.013 C 146.740 132.646,144.070 132.237,141.069 132.840 " stroke="none" fill="#c9c2b2" fill-rule="evenodd"></path><path id="path1" d="M171.586 0.580 C 171.180 0.982,169.956 1.181,167.600 1.229 C 165.730 1.268,163.994 1.463,163.743 1.663 C 163.491 1.863,162.154 2.073,160.771 2.129 C 159.240 2.192,158.193 2.421,158.095 2.716 C 158.001 2.997,157.194 3.200,156.167 3.200 C 155.195 3.200,154.400 3.380,154.400 3.600 C 154.400 3.820,153.511 4.000,152.424 4.000 C 151.337 4.000,150.319 4.208,150.162 4.462 C 149.968 4.775,150.057 4.815,150.438 4.585 C 150.917 4.297,150.919 4.347,150.451 4.923 C 150.073 5.389,149.302 5.600,147.975 5.600 C 146.915 5.600,145.936 5.780,145.800 6.000 C 145.664 6.220,145.102 6.400,144.552 6.400 C 143.487 6.400,139.865 7.409,138.705 8.029 C 138.323 8.233,137.483 8.400,136.839 8.400 C 136.194 8.400,135.604 8.588,135.527 8.818 C 135.451 9.048,134.941 9.259,134.394 9.289 C 133.305 9.347,132.312 9.933,132.577 10.362 C 132.669 10.512,132.200 10.676,131.535 10.726 C 130.869 10.777,129.847 11.060,129.262 11.354 C 128.678 11.649,128.002 11.819,127.760 11.732 C 127.518 11.645,127.091 11.849,126.811 12.187 C 126.531 12.524,125.784 12.800,125.151 12.800 C 124.518 12.800,124.000 12.980,124.000 13.200 C 124.000 13.420,123.498 13.600,122.885 13.600 C 122.228 13.600,121.201 14.086,120.385 14.784 C 119.623 15.435,118.683 15.975,118.295 15.984 C 117.907 15.993,117.277 16.167,116.895 16.371 C 116.513 16.575,115.874 16.843,115.475 16.968 C 115.076 17.092,114.838 17.337,114.946 17.512 C 115.054 17.687,114.668 17.870,114.089 17.917 C 113.509 17.965,112.856 18.184,112.638 18.402 C 112.419 18.621,111.918 18.800,111.523 18.800 C 111.129 18.800,110.582 19.160,110.307 19.600 C 110.032 20.040,109.505 20.400,109.136 20.400 C 108.360 20.400,102.666 23.200,102.467 23.679 C 102.393 23.856,101.971 24.000,101.529 24.000 C 101.062 24.000,100.638 24.335,100.516 24.800 C 100.366 25.371,99.970 25.600,99.130 25.600 C 98.447 25.600,98.057 25.768,98.200 26.000 C 98.419 26.355,98.143 26.473,97.345 26.366 C 97.204 26.347,96.979 26.504,96.845 26.715 C 96.710 26.925,95.790 27.465,94.800 27.914 C 93.810 28.364,92.564 29.197,92.030 29.766 C 91.497 30.335,90.822 30.800,90.530 30.800 C 90.239 30.800,90.000 30.937,90.000 31.105 C 90.000 31.273,89.657 31.588,89.239 31.805 C 88.820 32.022,87.830 32.536,87.039 32.946 C 86.159 33.401,85.600 33.984,85.600 34.446 C 85.600 34.967,85.315 35.200,84.675 35.200 C 84.167 35.200,83.402 35.518,82.975 35.906 C 82.549 36.295,81.255 37.214,80.100 37.948 C 78.945 38.682,78.000 39.535,78.000 39.842 C 78.000 40.149,77.730 40.400,77.400 40.400 C 77.070 40.400,76.800 40.580,76.800 40.800 C 76.800 41.020,76.524 41.200,76.187 41.200 C 75.851 41.200,75.471 41.470,75.345 41.800 C 75.218 42.130,74.851 42.400,74.529 42.400 C 73.892 42.400,72.800 43.336,72.800 43.883 C 72.800 44.319,71.722 45.195,69.978 46.175 C 68.604 46.948,67.126 48.356,66.012 49.956 C 65.688 50.420,65.093 50.800,64.688 50.800 C 64.284 50.800,64.064 50.980,64.200 51.200 C 64.336 51.420,64.167 51.600,63.824 51.600 C 63.481 51.600,63.200 51.870,63.200 52.200 C 63.200 52.530,62.993 52.800,62.740 52.800 C 62.487 52.800,61.336 53.790,60.183 55.000 C 59.030 56.210,57.929 57.200,57.737 57.200 C 57.546 57.200,56.951 57.909,56.416 58.775 C 55.881 59.640,55.028 60.571,54.521 60.842 C 54.015 61.113,53.600 61.532,53.600 61.773 C 53.600 62.013,53.150 62.548,52.600 62.961 C 52.050 63.374,51.600 63.880,51.600 64.085 C 51.600 64.522,50.584 65.600,50.172 65.600 C 49.705 65.600,47.600 67.952,47.600 68.474 C 47.600 68.738,46.610 69.914,45.400 71.086 C 44.190 72.258,43.200 73.400,43.200 73.625 C 43.200 74.064,43.121 74.171,41.010 76.600 C 40.245 77.480,39.614 78.423,39.609 78.697 C 39.604 78.970,39.240 79.418,38.800 79.693 C 38.360 79.968,38.000 80.337,38.000 80.513 C 38.000 80.689,37.646 81.213,37.214 81.677 C 36.781 82.141,36.522 82.674,36.637 82.861 C 36.753 83.047,36.699 83.200,36.518 83.200 C 36.338 83.200,36.012 83.605,35.795 84.100 C 35.578 84.595,35.032 85.162,34.581 85.360 C 33.697 85.749,32.800 87.320,32.800 88.480 C 32.800 88.876,32.530 89.200,32.200 89.200 C 31.870 89.200,31.600 89.480,31.600 89.822 C 31.600 90.164,31.061 91.019,30.402 91.722 C 29.743 92.425,29.203 93.315,29.202 93.700 C 29.201 94.085,29.020 94.400,28.800 94.400 C 28.580 94.400,28.400 94.670,28.400 95.000 C 28.400 95.330,28.241 95.600,28.047 95.600 C 27.703 95.600,27.070 97.096,27.157 97.700 C 27.181 97.865,27.020 98.000,26.800 98.000 C 26.580 98.000,26.400 98.338,26.400 98.751 C 26.400 99.164,26.095 99.749,25.723 100.051 C 25.147 100.519,25.097 100.517,25.385 100.038 C 25.622 99.645,25.576 99.567,25.235 99.779 C 24.966 99.945,24.836 100.318,24.947 100.607 C 25.059 100.897,24.891 101.233,24.575 101.354 C 24.259 101.476,24.000 101.941,24.000 102.387 C 24.000 102.834,23.820 103.200,23.600 103.200 C 23.380 103.200,23.200 103.545,23.200 103.967 C 23.200 104.388,23.065 104.793,22.900 104.867 C 22.432 105.075,21.200 107.589,21.200 108.336 C 21.200 108.705,20.840 109.232,20.400 109.507 C 19.960 109.782,19.600 110.275,19.600 110.603 C 19.600 110.932,19.420 111.200,19.200 111.200 C 18.980 111.200,18.800 111.841,18.800 112.624 C 18.800 113.407,18.657 113.959,18.483 113.851 C 18.309 113.744,18.138 114.023,18.105 114.472 C 18.071 114.922,17.763 115.599,17.421 115.976 C 17.080 116.354,16.800 117.101,16.800 117.635 C 16.800 118.174,16.444 118.830,16.000 119.107 C 15.560 119.382,15.200 119.875,15.200 120.203 C 15.200 120.532,15.020 120.800,14.800 120.800 C 14.580 120.800,14.400 121.342,14.400 122.005 C 14.400 122.668,14.220 123.568,14.000 124.005 C 13.780 124.442,13.420 125.158,13.200 125.595 C 12.980 126.032,12.800 126.806,12.800 127.315 C 12.800 127.824,12.586 128.454,12.325 128.715 C 12.064 128.976,11.793 129.570,11.722 130.036 C 11.650 130.502,11.234 131.339,10.796 131.896 C 10.358 132.452,10.000 133.208,10.000 133.574 C 10.000 133.940,9.775 134.482,9.500 134.779 C 9.094 135.216,9.112 135.258,9.600 135.000 C 10.088 134.742,10.106 134.784,9.700 135.221 C 9.425 135.518,9.200 136.264,9.200 136.880 C 9.200 137.496,9.020 138.000,8.800 138.000 C 8.580 138.000,8.400 138.619,8.400 139.376 C 8.400 140.133,8.236 140.854,8.035 140.978 C 7.834 141.103,7.544 141.968,7.390 142.902 C 7.236 143.836,6.960 144.786,6.778 145.013 C 6.595 145.241,6.402 146.272,6.349 147.306 C 6.295 148.339,6.166 149.100,6.062 148.996 C 5.471 148.404,4.800 149.932,4.800 151.873 C 4.800 153.069,4.652 153.956,4.471 153.844 C 4.289 153.732,4.099 154.576,4.048 155.720 C 3.997 156.864,3.786 157.860,3.578 157.933 C 3.370 158.007,3.194 159.267,3.187 160.733 C 3.179 162.441,2.963 163.679,2.587 164.176 C 2.226 164.653,2.000 165.854,2.000 167.291 C 2.000 168.766,1.762 169.991,1.356 170.611 C 1.002 171.152,0.820 171.875,0.951 172.218 C 1.105 172.617,1.029 172.742,0.741 172.563 C 0.416 172.362,0.343 173.190,0.479 175.543 C 0.583 177.334,0.521 178.800,0.341 178.800 C 0.162 178.800,0.015 188.160,0.015 199.600 C 0.015 211.040,0.162 220.400,0.341 220.400 C 0.521 220.400,0.595 221.885,0.507 223.700 C 0.384 226.218,0.453 226.858,0.799 226.400 C 1.166 225.915,1.203 225.976,0.993 226.720 C 0.835 227.280,0.981 228.016,1.367 228.606 C 1.762 229.209,2.000 230.451,2.000 231.909 C 2.000 233.346,2.226 234.547,2.587 235.024 C 2.966 235.525,3.179 236.765,3.187 238.524 C 3.195 240.235,3.349 241.155,3.600 241.000 C 3.850 240.846,4.000 241.651,4.000 243.143 C 4.000 244.458,4.177 245.593,4.394 245.667 C 4.610 245.740,4.820 246.680,4.861 247.755 C 4.918 249.277,5.096 249.752,5.667 249.902 C 6.250 250.054,6.400 250.488,6.400 252.023 C 6.400 253.084,6.570 254.058,6.777 254.186 C 6.984 254.314,7.275 255.227,7.423 256.214 C 7.571 257.202,7.852 258.108,8.046 258.229 C 8.241 258.349,8.400 259.067,8.400 259.824 C 8.400 260.581,8.580 261.200,8.800 261.200 C 9.020 261.200,9.200 261.909,9.200 262.776 C 9.200 263.643,9.357 264.450,9.548 264.568 C 9.740 264.686,10.005 265.327,10.138 265.992 C 10.271 266.656,10.616 267.200,10.905 267.200 C 11.194 267.200,11.465 267.515,11.509 267.900 C 11.690 269.505,11.927 270.196,12.273 270.127 C 12.475 270.086,12.684 270.716,12.738 271.527 C 12.791 272.337,13.007 273.060,13.218 273.133 C 13.428 273.207,13.600 273.691,13.600 274.210 C 13.600 274.728,13.780 275.264,14.000 275.400 C 14.220 275.536,14.400 276.059,14.400 276.562 C 14.400 277.736,15.523 279.996,16.244 280.272 C 16.550 280.390,16.800 280.947,16.800 281.511 C 16.800 282.075,17.080 282.846,17.421 283.224 C 17.763 283.601,18.071 284.278,18.105 284.728 C 18.138 285.177,18.309 285.456,18.483 285.349 C 18.657 285.241,18.800 285.793,18.800 286.576 C 18.800 287.359,18.980 288.000,19.200 288.000 C 19.420 288.000,19.600 288.268,19.600 288.597 C 19.600 288.925,19.960 289.418,20.400 289.693 C 20.840 289.968,21.200 290.509,21.200 290.896 C 21.200 291.283,21.410 291.600,21.667 291.600 C 21.923 291.600,22.018 291.716,21.876 291.857 C 21.735 291.998,22.248 293.258,23.017 294.657 C 23.785 296.056,24.276 297.205,24.107 297.212 C 23.938 297.219,24.119 297.410,24.508 297.637 C 24.898 297.864,25.120 298.206,25.002 298.397 C 24.883 298.589,25.121 298.983,25.529 299.273 C 25.937 299.563,26.393 300.295,26.543 300.900 C 26.693 301.505,26.992 302.000,27.208 302.000 C 27.423 302.000,27.600 302.360,27.600 302.800 C 27.600 303.240,27.780 303.600,28.000 303.600 C 28.220 303.600,28.400 303.855,28.400 304.167 C 28.400 304.478,28.590 304.797,28.822 304.874 C 29.054 304.951,29.288 305.320,29.343 305.693 C 29.398 306.067,29.928 306.917,30.521 307.583 C 31.115 308.248,31.600 308.980,31.600 309.209 C 31.600 309.438,31.870 309.729,32.200 309.855 C 32.530 309.982,32.800 310.426,32.800 310.843 C 32.800 311.259,32.980 311.600,33.200 311.600 C 33.420 311.600,33.606 311.915,33.613 312.300 C 33.630 313.274,34.559 314.400,35.344 314.400 C 35.733 314.400,36.000 314.725,36.000 315.200 C 36.000 315.640,36.191 316.000,36.424 316.000 C 36.657 316.000,36.751 316.156,36.633 316.347 C 36.515 316.537,36.775 317.015,37.209 317.409 C 37.644 317.802,38.000 318.347,38.000 318.619 C 38.000 318.892,38.296 319.228,38.657 319.367 C 39.019 319.505,39.207 319.727,39.075 319.859 C 38.943 319.991,39.543 320.820,40.407 321.703 C 41.272 322.585,42.087 323.643,42.217 324.053 C 42.347 324.464,42.622 324.800,42.827 324.800 C 43.032 324.800,43.200 325.076,43.200 325.413 C 43.200 325.749,43.469 326.128,43.798 326.254 C 44.126 326.381,44.296 326.645,44.174 326.842 C 44.052 327.039,44.135 327.200,44.358 327.200 C 44.885 327.200,46.800 329.115,46.800 329.642 C 46.800 329.865,46.980 329.936,47.200 329.800 C 47.422 329.663,47.605 329.965,47.612 330.476 C 47.619 331.009,48.138 331.823,48.839 332.400 C 49.507 332.950,50.402 333.760,50.827 334.200 C 54.903 338.418,56.792 340.546,56.977 341.129 C 57.098 341.510,57.602 342.087,58.097 342.411 C 58.592 342.735,59.766 343.765,60.705 344.700 C 61.644 345.635,62.523 346.400,62.660 346.400 C 62.797 346.400,63.325 346.850,63.835 347.400 C 64.345 347.950,64.911 348.400,65.093 348.400 C 65.275 348.400,65.688 348.780,66.012 349.244 C 67.081 350.778,68.713 352.400,69.189 352.400 C 69.447 352.400,69.894 352.625,70.184 352.900 C 70.474 353.175,71.181 353.740,71.756 354.156 C 72.330 354.572,72.800 355.142,72.800 355.423 C 72.800 355.703,73.340 356.172,74.000 356.464 C 74.660 356.756,75.200 357.090,75.200 357.207 C 75.200 357.323,75.830 357.757,76.600 358.172 C 77.370 358.587,78.004 359.123,78.009 359.363 C 78.018 359.835,80.886 362.000,81.502 362.000 C 81.708 362.000,82.198 362.356,82.591 362.791 C 82.985 363.225,83.463 363.485,83.653 363.367 C 83.844 363.249,84.000 363.343,84.000 363.576 C 84.000 363.809,84.360 364.000,84.800 364.000 C 85.341 364.000,85.600 364.267,85.600 364.824 C 85.600 365.277,85.780 365.536,86.000 365.400 C 86.220 365.264,86.400 365.330,86.400 365.547 C 86.400 365.933,88.593 367.200,89.261 367.200 C 89.448 367.200,89.937 367.515,90.348 367.900 C 92.873 370.264,93.616 370.800,94.364 370.800 C 94.824 370.800,95.200 370.958,95.200 371.151 C 95.200 371.345,95.785 371.739,96.500 372.028 C 97.215 372.317,97.944 372.789,98.120 373.077 C 98.296 373.364,98.860 373.600,99.373 373.600 C 99.970 373.600,100.382 373.888,100.516 374.400 C 100.641 374.879,101.062 375.200,101.563 375.200 C 102.023 375.200,102.401 375.335,102.403 375.500 C 102.407 375.859,104.344 376.800,105.080 376.800 C 105.366 376.800,105.600 376.980,105.600 377.200 C 105.600 377.420,105.735 377.562,105.900 377.515 C 106.065 377.468,106.581 377.642,107.047 377.901 C 107.513 378.160,108.008 378.258,108.147 378.119 C 108.286 377.980,108.400 378.077,108.400 378.333 C 108.400 378.590,108.717 378.800,109.104 378.800 C 109.491 378.800,110.032 379.160,110.307 379.600 C 110.582 380.040,111.078 380.400,111.409 380.400 C 111.740 380.400,112.368 380.580,112.805 380.800 C 113.242 381.020,113.958 381.380,114.395 381.600 C 114.832 381.820,115.440 382.000,115.746 382.000 C 116.052 382.000,116.528 382.272,116.804 382.605 C 117.081 382.938,117.508 383.187,117.753 383.158 C 118.922 383.020,119.600 383.253,119.600 383.792 C 119.600 384.118,120.050 384.498,120.600 384.636 C 121.150 384.774,121.600 385.047,121.600 385.243 C 121.600 385.440,122.140 385.600,122.800 385.600 C 123.460 385.600,124.000 385.780,124.000 386.000 C 124.000 386.220,124.529 386.400,125.176 386.400 C 125.823 386.400,126.464 386.580,126.600 386.800 C 126.736 387.020,127.557 387.200,128.424 387.200 C 129.558 387.200,130.000 387.368,130.000 387.800 C 130.000 388.163,130.371 388.400,130.939 388.400 C 131.455 388.400,132.293 388.760,132.800 389.200 C 133.307 389.640,134.134 390.000,134.638 390.000 C 135.141 390.000,135.664 390.180,135.800 390.400 C 135.936 390.620,136.767 390.800,137.647 390.800 C 138.527 390.800,139.160 390.942,139.052 391.115 C 138.945 391.288,139.340 391.467,139.929 391.511 C 140.518 391.556,141.360 391.758,141.800 391.962 C 143.099 392.563,146.063 393.283,148.063 393.485 C 149.395 393.619,149.977 393.871,150.108 394.369 C 150.246 394.898,150.762 395.084,152.245 395.139 C 153.320 395.180,154.260 395.390,154.333 395.606 C 154.407 395.823,155.442 396.000,156.633 396.000 C 157.825 396.000,158.800 396.180,158.800 396.400 C 158.800 396.629,160.010 396.800,161.629 396.800 C 163.532 396.800,164.642 396.985,165.022 397.365 C 165.386 397.729,166.498 397.937,168.148 397.950 C 171.314 397.974,171.679 398.050,172.267 398.800 C 172.620 399.250,173.594 399.400,176.169 399.400 C 178.056 399.400,179.600 399.535,179.600 399.700 C 179.600 399.865,188.960 400.000,200.400 400.000 C 211.863 400.000,221.200 399.844,221.200 399.653 C 221.200 399.463,222.445 399.396,223.967 399.505 C 226.261 399.669,227.044 399.553,228.537 398.831 C 229.769 398.234,231.108 397.955,232.773 397.947 C 234.328 397.939,235.413 397.730,235.775 397.368 C 236.157 396.986,237.258 396.800,239.138 396.800 C 240.675 396.800,241.993 396.635,242.067 396.433 C 242.140 396.231,243.100 396.017,244.200 395.957 C 245.300 395.897,246.299 395.705,246.420 395.530 C 246.541 395.355,247.510 395.180,248.575 395.139 C 250.077 395.082,250.553 394.902,250.702 394.333 C 250.840 393.804,251.298 393.587,252.347 393.554 C 254.002 393.501,254.362 393.447,255.200 393.121 C 257.887 392.078,259.618 391.600,260.713 391.600 C 261.421 391.600,262.000 391.420,262.000 391.200 C 262.000 390.980,262.619 390.800,263.376 390.800 C 264.133 390.800,264.864 390.620,265.000 390.400 C 265.136 390.180,265.662 390.000,266.170 390.000 C 266.677 390.000,267.550 389.640,268.109 389.200 C 268.669 388.760,269.503 388.400,269.963 388.400 C 270.440 388.400,270.800 388.142,270.800 387.800 C 270.800 387.356,271.267 387.200,272.600 387.200 C 273.590 387.200,274.400 387.020,274.400 386.800 C 274.400 386.580,274.940 386.400,275.600 386.400 C 276.260 386.400,276.800 386.220,276.800 386.000 C 276.800 385.780,277.302 385.600,277.915 385.600 C 278.572 385.600,279.599 385.114,280.415 384.416 C 281.177 383.765,282.183 383.225,282.651 383.216 C 283.119 383.207,283.726 382.930,284.000 382.600 C 284.274 382.270,284.825 382.000,285.225 382.000 C 285.625 382.000,286.064 381.820,286.200 381.600 C 286.336 381.380,286.872 381.200,287.390 381.200 C 287.909 381.200,288.397 381.010,288.474 380.778 C 288.551 380.546,288.926 380.311,289.306 380.255 C 289.686 380.199,290.369 379.755,290.823 379.268 C 291.276 378.781,291.817 378.487,292.024 378.615 C 292.231 378.743,292.400 378.627,292.400 378.357 C 292.400 378.087,292.514 377.980,292.653 378.119 C 292.792 378.258,293.287 378.160,293.753 377.901 C 294.219 377.642,294.735 377.468,294.900 377.515 C 295.065 377.562,295.200 377.420,295.200 377.200 C 295.200 376.980,295.435 376.800,295.721 376.800 C 296.717 376.800,300.400 374.725,300.400 374.164 C 300.400 373.829,300.806 373.600,301.400 373.600 C 301.950 373.600,302.400 373.432,302.400 373.227 C 302.400 372.888,304.021 372.166,304.330 372.368 C 304.402 372.414,304.783 372.081,305.177 371.626 C 305.571 371.172,306.257 370.800,306.702 370.800 C 307.146 370.800,307.935 370.262,308.455 369.604 C 308.975 368.946,309.715 368.406,310.100 368.404 C 310.485 368.402,310.800 368.130,310.800 367.800 C 310.800 367.465,311.156 367.200,311.606 367.200 C 312.775 367.200,315.189 365.518,315.195 364.700 C 315.198 364.268,315.507 364.000,316.000 364.000 C 316.440 364.000,316.800 363.809,316.800 363.576 C 316.800 363.343,316.973 363.260,317.185 363.391 C 317.397 363.522,317.898 363.308,318.298 362.915 C 318.697 362.522,319.535 361.933,320.159 361.608 C 320.782 361.282,322.095 360.247,323.075 359.308 C 324.055 358.368,325.035 357.600,325.252 357.600 C 325.469 357.600,325.536 357.420,325.400 357.200 C 325.262 356.977,325.566 356.800,326.088 356.800 C 326.603 356.800,327.288 356.415,327.612 355.945 C 328.651 354.434,330.932 352.400,331.587 352.400 C 332.064 352.400,334.400 350.264,334.400 349.828 C 334.400 349.465,335.455 348.400,335.815 348.400 C 336.097 348.400,336.886 347.728,339.810 345.000 C 343.768 341.307,344.800 340.264,344.800 339.957 C 344.800 339.779,345.790 338.686,347.000 337.529 C 348.210 336.371,349.200 335.194,349.200 334.912 C 349.200 334.631,349.380 334.400,349.600 334.400 C 349.820 334.400,350.000 334.119,350.000 333.776 C 350.000 333.433,350.162 333.253,350.359 333.375 C 350.831 333.667,352.736 331.815,354.052 329.786 C 354.627 328.898,355.659 327.728,356.345 327.186 C 357.031 326.644,357.594 325.904,357.596 325.543 C 357.598 325.181,357.870 324.782,358.200 324.655 C 358.530 324.529,358.800 324.178,358.800 323.876 C 358.800 323.574,359.534 322.579,360.431 321.664 C 361.328 320.749,361.924 320.000,361.755 320.000 C 361.587 320.000,361.847 319.629,362.333 319.176 C 362.820 318.723,363.113 318.183,362.985 317.976 C 362.857 317.769,362.990 317.600,363.280 317.600 C 363.570 317.600,364.044 317.221,364.333 316.758 C 364.622 316.295,364.683 316.025,364.467 316.159 C 364.251 316.292,364.283 315.952,364.537 315.404 C 364.792 314.855,365.250 314.405,365.556 314.403 C 366.242 314.399,367.170 313.227,367.187 312.343 C 367.194 311.981,367.470 311.582,367.800 311.455 C 368.130 311.329,368.400 310.949,368.400 310.613 C 368.400 310.276,368.580 310.000,368.800 310.000 C 369.020 310.000,369.200 309.720,369.200 309.378 C 369.200 309.036,369.739 308.181,370.398 307.478 C 371.057 306.775,371.597 305.885,371.598 305.500 C 371.599 305.115,371.747 304.800,371.926 304.800 C 372.399 304.800,374.033 301.766,373.726 301.459 C 373.583 301.317,373.677 301.200,373.933 301.200 C 374.190 301.200,374.400 300.862,374.400 300.449 C 374.400 299.614,375.326 298.659,375.737 299.070 C 375.882 299.215,376.000 298.958,376.000 298.500 C 376.000 298.042,376.178 297.607,376.397 297.533 C 376.615 297.460,376.833 296.918,376.881 296.329 C 376.930 295.740,377.112 295.345,377.285 295.452 C 377.574 295.631,377.763 295.030,377.647 294.300 C 377.621 294.135,377.767 294.000,377.971 294.000 C 378.425 294.000,379.600 291.718,379.600 290.835 C 379.600 290.481,379.960 289.968,380.400 289.693 C 380.840 289.418,381.200 288.925,381.200 288.597 C 381.200 288.268,381.380 288.000,381.600 288.000 C 381.820 288.000,382.000 287.359,382.000 286.576 C 382.000 285.718,382.161 285.252,382.405 285.403 C 382.630 285.542,382.919 285.105,383.056 284.418 C 383.192 283.739,383.460 283.086,383.652 282.968 C 383.843 282.850,384.000 282.267,384.000 281.673 C 384.000 281.026,384.321 280.392,384.800 280.093 C 385.240 279.818,385.600 279.325,385.600 278.997 C 385.600 278.668,385.780 278.400,386.000 278.400 C 386.220 278.400,386.400 277.858,386.400 277.195 C 386.400 275.997,386.484 275.756,387.743 273.338 C 388.104 272.644,388.400 271.735,388.400 271.318 C 388.400 270.901,388.574 270.386,388.787 270.173 C 388.999 269.961,389.217 269.213,389.270 268.511 C 389.324 267.809,389.448 267.315,389.547 267.414 C 389.917 267.784,390.800 266.669,390.800 265.831 C 390.800 265.352,391.025 264.718,391.300 264.421 C 391.706 263.984,391.688 263.942,391.200 264.200 C 390.712 264.458,390.694 264.416,391.100 263.979 C 391.375 263.682,391.600 262.936,391.600 262.320 C 391.600 261.704,391.764 261.200,391.965 261.200 C 392.166 261.200,392.451 260.481,392.600 259.602 C 392.748 258.723,393.034 257.903,393.235 257.778 C 393.436 257.654,393.600 256.854,393.600 256.000 C 393.600 255.146,393.780 254.336,394.000 254.200 C 394.220 254.064,394.400 253.085,394.400 252.025 C 394.400 250.698,394.611 249.927,395.077 249.549 C 395.653 249.081,395.703 249.083,395.415 249.562 C 395.185 249.943,395.225 250.032,395.538 249.838 C 395.797 249.678,396.000 248.584,396.000 247.353 C 396.000 246.143,396.148 245.244,396.329 245.356 C 396.511 245.468,396.701 244.628,396.753 243.489 C 396.805 242.350,397.052 241.292,397.301 241.138 C 397.550 240.984,397.813 239.638,397.886 238.147 C 397.958 236.656,398.167 235.338,398.349 235.218 C 398.531 235.098,398.717 233.763,398.763 232.251 C 398.811 230.645,399.089 229.131,399.431 228.610 C 400.235 227.381,400.108 170.369,399.300 170.100 C 398.961 169.987,398.800 168.991,398.800 167.000 C 398.800 165.387,398.624 164.007,398.409 163.933 C 398.194 163.860,397.958 162.572,397.886 161.071 C 397.813 159.570,397.550 158.216,397.301 158.062 C 397.052 157.908,396.805 156.850,396.753 155.711 C 396.701 154.572,396.511 153.732,396.329 153.844 C 396.148 153.956,396.000 153.000,396.000 151.720 C 396.000 149.826,395.851 149.299,395.200 148.893 C 394.593 148.514,394.400 147.960,394.400 146.597 C 394.400 145.608,394.220 144.800,394.000 144.800 C 393.780 144.800,393.600 144.091,393.600 143.224 C 393.600 142.357,393.436 141.546,393.235 141.422 C 393.034 141.297,392.748 140.477,392.600 139.598 C 392.451 138.719,392.166 138.000,391.965 138.000 C 391.764 138.000,391.600 137.291,391.600 136.424 C 391.600 135.557,391.420 134.736,391.200 134.600 C 390.980 134.464,390.800 133.941,390.800 133.438 C 390.800 132.935,390.440 132.198,390.000 131.800 C 389.560 131.402,389.200 130.774,389.200 130.405 C 389.200 130.035,389.075 129.608,388.922 129.455 C 388.640 129.173,388.488 128.591,388.233 126.815 C 388.155 126.274,387.891 125.764,387.646 125.682 C 387.401 125.600,387.200 125.199,387.200 124.790 C 387.200 124.382,387.020 123.936,386.800 123.800 C 386.580 123.664,386.400 123.038,386.400 122.409 C 386.400 121.058,385.214 118.806,384.500 118.803 C 384.214 118.801,384.000 118.297,384.000 117.624 C 384.000 116.977,383.820 116.336,383.600 116.200 C 383.380 116.064,383.200 115.616,383.200 115.205 C 383.200 114.794,382.930 114.187,382.600 113.857 C 382.270 113.527,382.000 113.010,382.000 112.709 C 382.000 112.407,381.775 111.918,381.500 111.621 C 381.187 111.284,381.173 111.179,381.463 111.342 C 381.813 111.538,381.813 111.358,381.463 110.600 C 381.208 110.049,380.730 109.509,380.400 109.400 C 380.070 109.291,379.592 108.751,379.337 108.200 C 379.083 107.650,379.033 107.297,379.227 107.417 C 379.421 107.537,379.091 106.682,378.493 105.517 C 377.896 104.353,377.271 103.340,377.104 103.267 C 376.937 103.193,376.800 102.906,376.800 102.628 C 376.800 101.681,375.543 99.600,374.971 99.600 C 374.657 99.600,374.400 99.240,374.400 98.800 C 374.400 98.360,374.190 98.000,373.933 98.000 C 373.677 98.000,373.583 97.883,373.726 97.741 C 374.033 97.434,372.399 94.400,371.926 94.400 C 371.747 94.400,371.600 94.075,371.600 93.678 C 371.600 93.281,370.972 92.271,370.204 91.433 C 369.437 90.595,368.896 89.768,369.002 89.597 C 369.108 89.425,368.929 89.182,368.604 89.057 C 368.279 88.932,368.109 88.582,368.225 88.279 C 368.341 87.976,368.158 87.497,367.818 87.215 C 367.478 86.933,367.200 86.531,367.200 86.322 C 367.200 85.727,366.122 84.800,365.429 84.800 C 365.058 84.800,364.800 84.457,364.800 83.965 C 364.800 83.031,362.598 79.761,361.749 79.436 C 361.447 79.320,361.199 78.994,361.198 78.713 C 361.197 78.431,360.702 77.652,360.098 76.981 C 358.983 75.744,358.205 74.647,357.735 73.648 C 357.591 73.344,356.738 72.329,355.837 71.394 C 353.386 68.846,352.400 67.714,352.400 67.448 C 352.400 67.054,351.049 65.600,350.683 65.600 C 350.209 65.600,349.501 64.797,348.832 63.500 C 348.520 62.895,348.025 62.400,347.732 62.400 C 347.440 62.400,347.200 62.196,347.200 61.947 C 347.200 61.276,345.562 59.976,345.087 60.270 C 344.852 60.415,344.798 60.327,344.960 60.065 C 345.116 59.813,344.803 59.166,344.264 58.628 C 343.725 58.089,343.338 57.593,343.402 57.524 C 343.467 57.456,343.267 57.168,342.960 56.884 C 342.652 56.601,342.400 56.463,342.400 56.578 C 342.400 56.693,341.053 55.440,339.406 53.794 C 337.760 52.147,336.217 50.800,335.978 50.800 C 335.480 50.800,334.797 50.117,334.161 48.983 C 333.919 48.552,333.373 48.020,332.946 47.800 C 332.520 47.580,331.739 46.995,331.210 46.500 C 330.682 46.005,330.053 45.600,329.813 45.600 C 329.573 45.600,329.112 45.216,328.788 44.746 C 327.888 43.441,326.707 42.400,326.125 42.400 C 325.836 42.400,325.600 42.214,325.600 41.987 C 325.600 41.761,325.285 41.456,324.900 41.311 C 324.515 41.165,323.643 40.496,322.963 39.823 C 320.560 37.447,317.180 35.200,316.009 35.200 C 315.330 35.200,314.934 34.692,315.300 34.290 C 315.561 34.004,314.168 32.953,313.457 32.899 C 313.015 32.866,312.495 32.556,312.302 32.211 C 312.109 31.866,311.781 31.688,311.573 31.817 C 311.365 31.946,311.086 31.769,310.954 31.425 C 310.822 31.081,310.416 30.800,310.052 30.800 C 309.688 30.800,309.053 30.351,308.641 29.802 C 307.862 28.765,305.890 27.600,304.915 27.600 C 304.606 27.600,304.464 27.420,304.600 27.200 C 304.736 26.980,304.657 26.777,304.424 26.750 C 304.191 26.723,303.820 26.655,303.600 26.600 C 303.380 26.545,303.009 26.477,302.776 26.450 C 302.543 26.423,302.464 26.220,302.600 26.000 C 302.743 25.768,302.353 25.600,301.670 25.600 C 300.811 25.600,300.434 25.373,300.274 24.760 C 300.153 24.298,299.874 24.031,299.655 24.166 C 299.435 24.302,299.154 24.249,299.030 24.048 C 298.805 23.684,297.596 23.010,293.205 20.800 C 292.768 20.580,292.068 20.400,291.648 20.400 C 291.229 20.400,290.790 20.150,290.672 19.844 C 290.436 19.228,288.197 18.000,287.310 18.000 C 286.998 18.000,286.473 17.730,286.143 17.400 C 285.813 17.070,285.206 16.800,284.795 16.800 C 284.384 16.800,283.936 16.620,283.800 16.400 C 283.664 16.180,283.122 16.000,282.596 16.000 C 282.070 16.000,281.496 15.771,281.320 15.490 C 280.775 14.623,278.878 13.600,277.814 13.600 C 277.256 13.600,276.800 13.420,276.800 13.200 C 276.800 12.980,276.275 12.800,275.633 12.800 C 274.992 12.800,274.400 12.599,274.318 12.354 C 274.236 12.109,273.673 11.854,273.066 11.787 C 272.459 11.721,271.666 11.426,271.304 11.133 C 270.743 10.679,270.696 10.689,270.982 11.200 C 271.255 11.688,271.217 11.707,270.779 11.300 C 270.482 11.025,269.944 10.800,269.582 10.800 C 269.220 10.800,268.598 10.440,268.200 10.000 C 267.799 9.557,266.968 9.200,266.338 9.200 C 265.712 9.200,265.200 9.020,265.200 8.800 C 265.200 8.580,264.658 8.400,263.995 8.400 C 263.332 8.400,262.477 8.233,262.095 8.029 C 260.955 7.420,257.321 6.400,256.292 6.400 C 255.765 6.400,255.198 6.265,255.033 6.100 C 254.681 5.748,254.499 5.716,252.447 5.650 C 251.254 5.612,250.845 5.414,250.684 4.800 C 250.509 4.132,250.138 4.000,248.437 4.000 C 247.317 4.000,246.400 3.820,246.400 3.600 C 246.400 3.380,245.605 3.200,244.633 3.200 C 243.606 3.200,242.799 2.997,242.705 2.716 C 242.607 2.420,241.554 2.191,240.004 2.128 C 238.608 2.071,237.279 1.839,237.052 1.612 C 236.826 1.386,235.078 1.200,233.169 1.200 C 230.572 1.200,229.573 1.049,229.200 0.600 C 228.461 -0.290,172.484 -0.310,171.586 0.580 M209.400 52.601 C 212.700 52.729,217.650 52.912,220.400 53.007 C 223.150 53.102,228.640 53.466,232.600 53.816 C 236.560 54.165,242.230 54.605,245.200 54.794 C 252.121 55.233,257.100 55.822,258.526 56.368 C 259.145 56.606,260.416 56.800,261.350 56.800 C 262.283 56.800,263.396 57.064,263.824 57.387 C 264.251 57.710,265.118 57.980,265.752 57.987 C 266.385 57.994,268.151 58.450,269.675 59.000 C 271.200 59.550,272.900 60.000,273.453 60.000 C 274.005 60.000,275.210 60.429,276.129 60.953 C 277.048 61.477,278.580 62.022,279.533 62.163 C 280.486 62.304,282.145 62.866,283.220 63.410 C 284.294 63.955,285.408 64.400,285.696 64.400 C 285.983 64.400,286.853 64.923,287.629 65.563 C 288.405 66.203,289.822 66.937,290.779 67.194 C 292.981 67.787,297.169 70.388,299.932 72.878 C 301.105 73.935,302.295 74.800,302.576 74.800 C 302.857 74.800,303.884 75.502,304.859 76.359 C 305.833 77.217,307.287 78.193,308.091 78.529 C 308.901 78.867,309.965 79.773,310.477 80.559 C 310.984 81.340,311.863 82.172,312.429 82.408 C 312.994 82.645,314.344 83.752,315.429 84.870 C 316.513 85.988,318.480 87.675,319.800 88.619 C 321.120 89.562,322.552 90.934,322.981 91.667 C 323.411 92.399,325.076 94.266,326.681 95.815 C 328.287 97.364,329.600 98.918,329.600 99.267 C 329.600 99.617,330.147 100.129,330.815 100.406 C 331.484 100.683,332.233 101.290,332.481 101.755 C 333.016 102.759,335.259 105.419,340.325 111.057 C 342.935 113.962,344.243 115.771,344.696 117.101 C 345.052 118.146,345.610 119.267,345.936 119.593 C 346.262 119.919,347.128 121.122,347.860 122.267 C 348.592 123.411,349.357 124.450,349.561 124.576 C 349.765 124.702,350.839 126.504,351.949 128.582 C 353.059 130.659,354.142 132.683,354.355 133.079 C 355.538 135.278,356.476 137.755,356.775 139.464 C 356.960 140.529,357.759 142.930,358.549 144.800 C 359.339 146.670,359.991 148.470,359.999 148.800 C 360.006 149.130,360.271 150.120,360.588 151.000 C 360.905 151.880,361.173 153.557,361.182 154.726 C 361.192 155.896,361.413 157.246,361.673 157.726 C 362.288 158.862,362.238 185.722,361.618 187.353 C 361.388 187.958,361.200 189.281,361.200 190.295 C 361.200 192.472,360.156 198.573,359.538 200.000 C 359.301 200.550,358.965 201.990,358.792 203.200 C 358.619 204.410,358.184 206.390,357.824 207.600 C 357.464 208.810,356.830 211.420,356.415 213.400 C 355.515 217.692,353.981 222.301,352.602 224.854 C 352.051 225.874,351.600 226.921,351.600 227.181 C 351.600 227.441,351.170 228.226,350.644 228.927 C 350.118 229.627,349.567 230.768,349.420 231.463 C 349.273 232.157,348.529 233.762,347.766 235.028 C 347.003 236.295,345.564 238.960,344.567 240.952 C 342.827 244.427,339.206 249.970,338.044 250.937 C 335.428 253.114,332.293 257.211,329.678 261.870 C 329.391 262.382,328.997 262.800,328.803 262.800 C 328.076 262.800,323.278 267.879,322.424 269.552 C 321.936 270.509,321.233 271.371,320.861 271.468 C 320.489 271.565,319.752 272.277,319.223 273.049 C 318.694 273.821,317.688 274.755,316.987 275.126 C 315.262 276.038,311.584 280.135,310.227 282.657 C 309.391 284.209,308.438 285.179,306.338 286.614 C 304.808 287.660,302.171 289.774,300.478 291.312 C 295.682 295.669,294.300 296.714,291.348 298.213 C 289.837 298.980,287.610 300.342,286.400 301.240 C 285.190 302.138,283.390 303.226,282.400 303.657 C 281.410 304.089,279.340 305.040,277.800 305.771 C 271.330 308.841,269.543 309.600,268.785 309.600 C 267.601 309.600,262.061 311.139,260.049 312.027 C 259.086 312.452,257.970 312.800,257.568 312.800 C 257.166 312.800,256.424 312.957,255.919 313.148 C 255.413 313.340,253.920 313.809,252.600 314.190 C 251.280 314.572,249.750 315.108,249.200 315.381 C 248.650 315.655,247.300 316.114,246.200 316.401 C 245.100 316.689,244.020 317.061,243.799 317.229 C 243.578 317.396,242.408 317.914,241.199 318.378 C 239.990 318.842,238.640 319.390,238.200 319.596 C 237.105 320.107,233.533 321.024,230.400 321.599 C 228.970 321.861,227.260 322.314,226.600 322.606 C 225.304 323.178,219.757 324.633,216.727 325.196 C 215.696 325.387,214.493 325.736,214.053 325.972 C 213.613 326.207,212.565 326.400,211.724 326.400 C 210.883 326.400,209.566 326.603,208.797 326.852 C 202.065 329.028,178.800 329.244,170.600 327.205 C 168.840 326.767,167.040 326.406,166.600 326.402 C 166.160 326.398,165.284 326.126,164.654 325.798 C 164.024 325.469,162.659 325.200,161.621 325.200 C 160.583 325.200,159.605 325.071,159.448 324.914 C 159.290 324.757,157.505 324.234,155.481 323.752 C 153.456 323.269,151.080 322.677,150.200 322.435 C 149.320 322.193,147.160 321.814,145.400 321.593 C 142.000 321.166,137.537 320.170,136.183 319.536 C 135.733 319.326,134.383 319.002,133.183 318.817 C 130.573 318.415,125.640 316.982,124.102 316.180 C 123.496 315.864,122.460 315.601,121.800 315.597 C 121.140 315.592,119.808 315.313,118.840 314.975 C 117.238 314.418,114.708 313.785,110.117 312.794 C 109.191 312.594,107.532 311.974,106.430 311.415 C 105.284 310.835,103.746 310.400,102.837 310.400 C 101.963 310.400,101.136 310.220,101.000 310.000 C 100.864 309.780,100.091 309.600,99.283 309.600 C 97.486 309.600,91.437 306.860,88.517 304.724 C 87.372 303.886,86.279 303.200,86.089 303.200 C 85.899 303.200,84.227 302.196,82.372 300.969 C 80.517 299.741,78.370 298.395,77.600 297.976 C 76.830 297.558,75.120 296.406,73.800 295.418 C 72.480 294.429,70.720 293.160,69.889 292.598 C 69.058 292.036,67.835 290.694,67.171 289.615 C 66.325 288.240,65.433 287.397,64.185 286.793 C 63.206 286.319,62.012 285.362,61.532 284.666 C 61.051 283.970,59.897 282.654,58.967 281.743 C 58.036 280.831,56.907 279.252,56.456 278.233 C 56.005 277.214,55.043 275.799,54.318 275.088 C 52.075 272.888,50.666 271.152,48.910 268.424 C 46.286 264.349,45.770 263.271,44.191 258.579 C 43.380 256.170,42.303 253.390,41.798 252.400 C 41.292 251.410,40.693 250.150,40.466 249.600 C 40.239 249.050,39.789 247.970,39.465 247.200 C 39.141 246.430,38.784 245.147,38.671 244.349 C 38.559 243.551,38.091 242.123,37.633 241.174 C 37.175 240.226,36.800 238.758,36.800 237.912 C 36.800 237.066,36.530 235.728,36.200 234.938 C 35.870 234.149,35.597 232.669,35.594 231.651 C 35.591 230.633,35.340 229.080,35.036 228.200 C 34.122 225.556,33.367 203.855,34.013 198.800 C 34.224 197.150,34.588 193.640,34.823 191.000 C 35.057 188.360,35.403 184.940,35.590 183.400 C 35.778 181.860,36.126 179.016,36.362 177.081 C 36.599 175.145,36.974 173.222,37.196 172.807 C 37.418 172.392,37.600 171.399,37.600 170.600 C 37.600 169.801,37.799 168.775,38.043 168.319 C 38.287 167.864,38.808 166.211,39.201 164.646 C 39.594 163.080,40.102 161.260,40.330 160.600 C 41.372 157.585,42.803 152.531,42.802 151.874 C 42.801 151.474,43.011 150.754,43.269 150.274 C 43.738 149.400,44.496 146.369,45.187 142.600 C 45.992 138.212,46.362 137.081,48.287 133.119 C 49.387 130.854,50.532 128.370,50.831 127.600 C 51.131 126.830,52.056 125.460,52.888 124.555 C 54.319 122.998,56.800 118.252,56.800 117.070 C 56.800 116.534,59.929 112.596,63.563 108.559 C 64.573 107.437,66.210 105.405,67.200 104.043 C 68.426 102.357,69.819 101.053,71.569 99.955 C 72.982 99.068,74.962 97.637,75.969 96.774 C 76.976 95.911,78.812 94.348,80.050 93.301 C 81.287 92.254,83.897 90.608,85.850 89.644 C 87.802 88.680,89.940 87.392,90.600 86.781 C 91.260 86.170,92.610 85.262,93.600 84.765 C 94.590 84.267,95.850 83.557,96.400 83.188 C 96.950 82.819,97.881 82.400,98.469 82.258 C 99.057 82.116,100.360 81.373,101.363 80.607 C 102.367 79.841,104.046 79.009,105.094 78.757 C 106.142 78.506,107.399 78.052,107.887 77.749 C 108.375 77.446,109.725 76.825,110.887 76.369 C 112.049 75.913,113.360 75.217,113.800 74.822 C 114.240 74.428,115.102 73.986,115.716 73.841 C 116.330 73.696,118.130 72.974,119.716 72.237 C 121.302 71.501,123.050 70.762,123.600 70.596 C 124.150 70.431,125.082 69.956,125.671 69.541 C 126.260 69.126,127.520 68.618,128.471 68.413 C 129.422 68.207,131.184 67.760,132.387 67.420 C 133.590 67.079,136.110 66.800,137.987 66.800 C 140.948 66.799,141.736 66.641,143.936 65.600 C 145.331 64.940,146.694 64.400,146.966 64.400 C 147.238 64.400,147.866 63.968,148.362 63.441 C 148.922 62.845,149.934 62.381,151.035 62.216 C 152.009 62.070,153.570 61.513,154.503 60.980 C 155.436 60.446,156.544 60.007,156.965 60.005 C 157.386 60.002,158.466 59.580,159.365 59.066 C 160.264 58.553,162.080 57.820,163.400 57.439 C 164.720 57.058,166.250 56.550,166.800 56.310 C 168.190 55.704,171.226 55.196,175.000 54.936 C 176.760 54.815,178.415 54.541,178.677 54.328 C 179.588 53.587,197.410 51.937,201.400 52.223 C 202.500 52.302,206.100 52.472,209.400 52.601 M186.056 76.599 C 183.997 76.890,182.116 77.324,181.876 77.564 C 181.636 77.804,180.815 78.000,180.051 78.000 C 178.417 78.000,172.154 79.087,171.000 79.571 C 170.560 79.755,168.872 80.467,167.248 81.153 C 165.625 81.839,163.763 82.400,163.110 82.400 C 162.457 82.400,161.446 82.727,160.862 83.127 C 159.926 83.767,158.038 84.667,149.291 88.642 C 148.131 89.169,146.939 89.600,146.642 89.600 C 146.344 89.600,145.239 90.081,144.187 90.670 C 141.654 92.086,138.843 92.501,135.709 91.924 C 133.287 91.478,133.143 91.500,130.617 92.732 C 129.187 93.430,127.919 94.000,127.800 94.000 C 127.681 94.000,126.913 94.423,126.092 94.940 C 125.271 95.457,122.890 96.655,120.800 97.602 C 118.710 98.548,116.066 99.745,114.925 100.262 C 113.783 100.778,112.700 101.200,112.518 101.200 C 112.335 101.200,111.523 101.650,110.714 102.200 C 109.905 102.750,109.031 103.200,108.772 103.200 C 108.064 103.200,102.344 106.733,101.200 107.877 C 99.951 109.126,96.039 111.426,93.400 112.464 C 91.461 113.227,79.232 125.063,79.208 126.200 C 79.199 126.623,74.382 134.486,73.469 135.566 C 72.489 136.726,70.400 140.404,70.400 140.969 C 70.400 141.275,69.960 142.398,69.423 143.463 C 68.152 145.982,67.569 148.002,67.188 151.200 C 66.781 154.619,66.106 157.430,65.219 159.400 C 64.822 160.280,64.364 161.810,64.202 162.800 C 64.039 163.790,63.657 165.086,63.353 165.680 C 63.049 166.274,62.800 167.094,62.800 167.502 C 62.800 167.909,62.365 169.133,61.833 170.221 C 61.301 171.310,60.768 173.010,60.648 174.000 C 60.277 177.062,59.639 181.306,59.234 183.400 C 59.022 184.500,58.835 186.480,58.819 187.800 C 58.803 189.120,58.516 191.190,58.181 192.400 C 57.466 194.984,57.267 219.283,57.936 222.400 C 58.148 223.390,58.449 225.640,58.604 227.400 C 58.759 229.160,59.136 231.086,59.443 231.680 C 59.749 232.274,60.000 233.106,60.000 233.529 C 60.000 234.592,61.842 240.163,63.024 242.675 C 63.561 243.817,64.000 245.022,64.000 245.354 C 64.000 245.686,64.801 247.542,65.779 249.479 C 66.758 251.416,67.926 253.810,68.374 254.800 C 69.939 258.252,70.910 259.643,73.775 262.536 C 76.811 265.601,80.000 269.578,80.000 270.298 C 80.000 270.532,80.802 271.194,81.782 271.768 C 82.761 272.342,83.799 273.149,84.088 273.562 C 84.377 273.974,85.248 274.577,86.025 274.901 C 86.801 275.225,88.508 276.481,89.818 277.692 C 92.104 279.804,95.776 282.280,99.600 284.288 C 100.590 284.808,101.850 285.483,102.400 285.788 C 102.950 286.094,104.480 286.551,105.800 286.805 C 107.120 287.059,109.460 287.792,111.000 288.434 C 112.540 289.077,114.085 289.602,114.433 289.601 C 114.782 289.600,115.194 289.727,115.349 289.883 C 115.748 290.281,122.201 291.993,124.600 292.337 C 125.700 292.495,126.863 292.788,127.185 292.988 C 127.507 293.189,128.497 293.475,129.385 293.625 C 131.873 294.044,137.674 295.652,138.880 296.258 C 139.474 296.556,140.520 296.800,141.205 296.800 C 141.890 296.800,143.294 297.050,144.325 297.355 C 146.931 298.125,150.764 298.800,152.537 298.800 C 153.356 298.800,154.672 299.070,155.462 299.400 C 156.251 299.730,157.259 300.000,157.700 300.000 C 158.142 300.000,159.751 300.450,161.275 301.000 C 162.800 301.550,164.633 302.000,165.347 302.000 C 166.062 302.000,166.996 302.264,167.424 302.587 C 167.851 302.910,168.887 303.180,169.726 303.187 C 170.566 303.194,171.619 303.396,172.068 303.636 C 175.382 305.410,204.757 305.403,206.532 303.628 C 206.767 303.393,207.638 303.200,208.466 303.200 C 209.295 303.200,210.564 302.951,211.286 302.646 C 212.009 302.342,213.500 301.881,214.600 301.623 C 215.700 301.365,217.123 300.894,217.761 300.577 C 218.400 300.260,219.354 300.000,219.881 300.000 C 220.408 300.000,221.326 299.753,221.920 299.451 C 222.514 299.149,224.080 298.772,225.400 298.614 C 226.720 298.456,228.700 297.965,229.800 297.524 C 233.228 296.150,234.546 295.665,236.200 295.169 C 237.080 294.905,238.878 294.251,240.195 293.715 C 241.513 293.179,243.403 292.565,244.395 292.351 C 245.388 292.136,246.872 291.814,247.693 291.635 C 248.514 291.457,249.414 291.123,249.693 290.894 C 249.972 290.665,251.280 290.115,252.600 289.671 C 253.920 289.227,255.900 288.506,257.000 288.068 C 258.100 287.630,260.170 287.061,261.600 286.803 C 263.030 286.545,264.830 286.061,265.600 285.728 C 268.904 284.296,275.200 281.124,275.409 280.786 C 275.860 280.055,281.443 276.101,283.329 275.176 C 285.267 274.225,285.587 273.936,289.871 269.255 C 291.152 267.855,293.602 265.538,295.316 264.106 C 297.031 262.675,298.772 260.838,299.187 260.025 C 299.602 259.213,301.124 257.305,302.570 255.785 C 304.017 254.266,305.200 252.883,305.200 252.712 C 305.200 252.540,305.438 252.400,305.728 252.400 C 306.758 252.400,309.474 249.627,310.704 247.319 C 311.391 246.031,313.297 243.593,314.939 241.902 C 319.114 237.604,321.402 234.566,322.399 232.000 C 322.870 230.790,323.862 229.170,324.605 228.400 C 325.348 227.630,326.281 226.279,326.678 225.398 C 327.075 224.517,327.786 223.167,328.258 222.398 C 328.729 221.629,329.238 220.251,329.387 219.336 C 329.536 218.420,330.002 217.361,330.421 216.981 C 330.841 216.601,331.298 215.683,331.438 214.941 C 331.577 214.198,331.835 213.502,332.011 213.393 C 332.186 213.285,332.455 212.432,332.607 211.498 C 333.016 208.989,333.807 206.083,334.757 203.600 C 335.221 202.390,335.600 200.827,335.600 200.126 C 335.600 199.425,335.806 198.345,336.058 197.726 C 336.522 196.584,336.717 195.600,337.825 188.800 C 339.590 177.961,338.873 159.312,336.419 152.237 C 335.969 150.938,335.600 149.626,335.600 149.321 C 335.600 149.017,335.236 148.275,334.790 147.672 C 334.345 147.070,333.526 145.232,332.970 143.589 C 332.414 141.945,331.654 140.150,331.280 139.600 C 330.906 139.050,330.330 138.054,330.000 137.387 C 329.670 136.720,328.905 135.533,328.300 134.749 C 327.695 133.966,327.200 133.180,327.200 133.003 C 327.200 132.827,326.605 131.944,325.877 131.041 C 325.150 130.139,324.005 128.500,323.334 127.400 C 322.662 126.300,320.351 123.600,318.198 121.400 C 316.046 119.200,313.612 116.500,312.790 115.400 C 309.892 111.522,300.450 102.422,296.188 99.400 C 292.650 96.891,290.230 94.918,287.772 92.537 C 285.919 90.742,284.656 89.886,283.115 89.381 C 280.640 88.571,276.718 86.659,275.146 85.497 C 273.821 84.517,269.294 82.826,266.800 82.378 C 264.585 81.980,260.968 80.953,260.297 80.531 C 260.024 80.359,258.810 80.085,257.600 79.922 C 256.390 79.759,254.140 79.446,252.600 79.227 C 246.807 78.401,242.488 78.014,238.997 78.007 C 237.016 78.003,234.766 77.807,233.997 77.570 C 230.147 76.386,192.912 75.632,186.056 76.599 M177.800 113.726 C 181.675 114.680,183.229 116.167,185.979 121.560 C 188.718 126.927,185.178 134.803,179.305 136.408 C 174.290 137.780,170.043 136.949,167.002 134.002 C 158.690 125.946,166.658 110.984,177.800 113.726 M226.800 121.093 C 228.933 122.193,231.776 125.517,232.613 127.889 C 233.680 130.914,232.507 143.433,230.823 146.987 C 230.403 147.874,229.985 149.590,229.896 150.800 C 229.615 154.588,228.728 158.920,227.807 161.000 C 227.320 162.100,226.810 163.461,226.673 164.024 C 226.535 164.587,225.972 165.667,225.420 166.424 C 224.868 167.181,224.195 168.250,223.923 168.800 C 223.652 169.350,222.671 170.790,221.743 172.000 C 220.815 173.210,219.321 175.730,218.423 177.600 C 216.849 180.877,215.319 182.816,210.058 188.200 C 208.983 189.300,207.703 190.879,207.213 191.710 C 206.723 192.540,205.773 193.504,205.100 193.852 C 204.428 194.199,203.448 194.995,202.922 195.620 C 202.396 196.244,201.299 197.153,200.483 197.639 C 199.667 198.125,198.280 199.198,197.400 200.022 C 194.913 202.353,191.308 204.705,189.261 205.332 C 188.238 205.645,186.632 206.134,185.694 206.417 C 184.756 206.700,183.789 207.172,183.545 207.466 C 183.282 207.783,182.278 208.000,181.077 208.000 C 179.828 208.000,178.378 208.327,177.290 208.853 C 174.256 210.322,163.665 210.873,154.400 210.045 C 151.650 209.799,147.330 209.431,144.800 209.227 C 135.760 208.497,131.565 204.962,131.499 198.019 C 131.458 193.718,135.908 186.800,138.715 186.800 C 139.060 186.800,139.926 186.589,140.638 186.332 C 141.996 185.841,152.715 186.412,157.000 187.204 C 160.962 187.937,171.318 187.417,172.599 186.422 C 172.819 186.251,173.540 185.982,174.200 185.826 C 180.227 184.398,188.554 178.101,194.290 170.635 C 195.121 169.554,196.385 168.041,197.100 167.274 C 197.815 166.506,198.400 165.727,198.400 165.543 C 198.400 165.152,201.745 160.172,202.795 159.000 C 204.132 157.508,205.618 153.998,206.228 150.893 C 206.563 149.192,207.026 147.350,207.258 146.800 C 207.687 145.781,208.069 143.184,208.786 136.400 C 209.886 125.990,210.036 125.631,214.486 122.748 C 219.120 119.744,223.139 119.204,226.800 121.093 M148.712 134.013 C 149.653 134.666,150.574 135.200,150.758 135.200 C 154.429 135.200,156.622 143.994,154.142 148.772 C 148.829 159.010,138.748 158.969,133.059 148.686 C 128.013 139.565,140.217 128.125,148.712 134.013 " stroke="none" fill="#3c443c" fill-rule="evenodd"></path></g></svg>
