<?xml version="1.0" encoding="UTF-8"?>
<svg id="Layer_1" data-name="Layer 1" xmlns="http://www.w3.org/2000/svg" xmlns:xlink="http://www.w3.org/1999/xlink" viewBox="0 0 1920 1920">
  <defs>
    <style>
      .cls-1 {
        fill: #da1f26;
      }

      .cls-2 {
        clip-path: url(#clippath);
      }

      .cls-3 {
        fill: none;
      }
    </style>
    <clipPath id="clippath">
      <rect class="cls-3" y="251.97" width="1920" height="1416.06"/>
    </clipPath>
  </defs>
  <g class="cls-2">
    <path class="cls-1" d="M1920,928.4v63.21c-.6,3.43-1.36,6.8-1.75,10.21-3.27,27.5-5.39,55.17-9.91,82.46-14.76,88.7-46.66,171.14-94.07,247.37-72,115.74-169.32,203.99-291.63,264.26-70.59,34.95-146.71,57.41-224.96,66.39-17.38,2.01-34.75,3.81-52.13,5.72H571.02c-3.4-.63-6.78-1.64-10.21-1.85-68.01-4.28-133.45-19.78-195.82-47.08-135.79-59.42-237.04-155.72-303.31-288.27-29.29-58.47-48.24-121.56-56.02-186.48-1.91-15.79-3.78-31.56-5.66-47.33v-61.33c.65-3.4,1.64-6.8,1.85-10.21,3.52-58.93,15.61-116.15,36.9-171.14,57.28-147.97,157.14-257.72,299.05-328.75,73.62-36.87,152.1-56.24,234.18-60.54,40.19-2.09,80.34,.16,120.29,5.52,3.62,.49,8.83-1.12,11.35-3.7,57.44-58.67,122.85-106.33,196.6-142.46,71.54-35.03,146.82-57.62,226.07-66.65,18.65-2.13,37.34-3.89,56.02-5.82h57.51c3.76,.58,7.54,1.25,11.3,1.69,28.49,3.32,57.14,5.4,85.36,10.13,88.05,14.78,170.02,46.38,245.87,93.33,116.31,72,204.94,169.45,265.5,292.14,35.02,70.63,57.51,146.8,66.45,225.12,2.05,18.03,3.81,36.06,5.72,54.06M846.46,519.38c1.15,1.52,1.44,2.23,1.93,2.47,39.49,19.47,77.23,42.29,112.81,68.22,2.24,1.63,7.81,.95,10.52-.76,97.79-61.96,203.79-83.34,317.66-63.15,111.58,19.78,202.38,75.54,271.76,164.58,78.55,100.77,108.5,214.72,86.82,341.51-14.54,84.97-48.58,161.2-106.43,225.06-105.56,116.42-237.75,164.57-393.36,144.18-95.79-12.55-178.49-53.87-246.93-123.04-87.85-88.73-176.26-176.88-264.36-265.37-11.74-11.79-24.81-21.27-41.72-23.34-29.53-3.62-56.34,11.12-69.09,37.66-11.38,23.69-9.91,50.39,14.78,74.67,98.21,96.41,195.56,193.71,293.66,290.21,16.79,16.6,34.8,31.92,53.87,45.84,71.66,52.04,152.46,80.81,239.96,92.4,68.68,9.07,136.82,7.13,204.44-8.08,128.98-28.97,235.82-94.8,319.97-196.38,69.48-83.94,111.5-180.4,126.15-288.7,8.49-61.75,6.72-124.49-5.25-185.66-19.52-100.03-61.84-189.53-129.64-265.72-129.38-145.27-292.14-210.13-485.83-195.65-74.51,5.56-144.99,27.45-211.31,62.17-35.79,18.59-69.46,41.02-100.41,66.88m-47.39,1014.14c-2.67-2.47-5.32-4.95-7.96-7.44-40.15-37.91-80.53-75.58-120.21-113.98-7.68-7.43-14.74-11.05-25.62-10.79-40.19,.98-80.4,1.15-120-7.79-196.9-44.53-311.23-258.61-238.66-446.97,57.24-148.53,215.69-238.98,371.94-211.09,70.04,12.5,131.51,42.15,181.97,94.18,61.53,63.53,124.9,125.23,187.1,188.11,14.16,14.32,30.42,20.84,50.03,18.05,25.35-3.62,45.53-15.69,54.69-40.55,8.98-24.46,4.63-47.63-13.89-66.39-65.28-66.13-129.01-133.93-196.93-197.25-131.73-122.86-287.07-159.4-458.87-107.16-231.08,70.21-366.32,308.83-313.52,544.28,48.12,214.53,235.74,365.1,455.29,365.29,61.3,.06,122.61,.03,183.91,0,3.03,0,6.07-.27,10.75-.51"/>
  </g>
</svg>