<?xml version="1.0" encoding="UTF-8"?>
<svg id="Layer_1" data-name="Layer 1" xmlns="http://www.w3.org/2000/svg" viewBox="0 0 1920 1920">
  <defs>
    <style>
      .cls-1 {
        fill: #f9dc3e;
      }
    </style>
  </defs>
  <path class="cls-1" d="M1359.72,753.91l.14,2.28,4.7-.43c-.14-1.42,.43-3.7,1.42-6.54l-.43-4.13c-1.99,.14-3.98,3.13-5.83,8.82Zm-44.96-108.13l-.43-4.13-6.69,.57,.43,4.13,6.69-.57Zm-130.47,244.29c-.28-3.84-12.24-18.78-35.85-45.1-.43-4.84,7.68-12.09,24.33-21.63l47.52-41.4c10.67-13.52,16.93-35.43,18.78-65.87l-.57-6.97c-1.85-21.06-17.07-37.99-45.95-50.93-17.07-11.52-47.8-17.93-92.19-19.06-36.71,3.13-84.65,16.22-143.7,39.41-16.22,11.67-34.72,23.33-55.49,35l.28,3.56c1.28-.14,3.27-.85,5.55-2.42,2.42-.28,3.84,.85,3.98,3.13l3.56-1.85,1.71-.14,.14,1.57c.14,1.85-12.66,11.95-38.56,30.02l1.99,3.7-1.71,.14-4.27-1.57c.14,1.28-1.71,2.13-5.26,2.42l.14,1.57,4.13,5.12c-1.28,.14-3.27-.43-5.98-1.42-5.98,.57-11.81,3.7-17.64,9.67l2.42-10.53c8.68-37.42,14.65-70.57,17.78-99.31l-.43-1.85c-5.98-3.84-11.81-9.25-17.22-16.08,.14-4.41,.14-6.97,0-7.54l-.43-1.57-1.71,.43c-18.78,28.17-54.92,76.26-108.56,144.27-40.83,48.37-61.89,75.26-63.17,80.67-16.65,17.22-24.61,27.6-23.76,31.16-4.41,2.85-6.26,5.69-5.55,8.82-1.28,.28-2.13-.14-2.42-1.42-7.11,11.52-17.64,18.92-31.73,22.19l-14.8,3.41c-1.99,.43-2.99,1.85-2.85,4.27l.43,1.85,5.55-1.28,.43,1.57-12.52,4.84-22.19,5.12-11.67,.71c-1.71,1.71,9.25-.14,4.98,.85l-14.51,3.41c-8.82,1.99-13.66,1.28-14.51-2.28l-1.71,.43c.28,1.57,.43,2.7,.14,3.7l-.85-3.56-11.67,2.7c-.85-5.41-16.65-25.04-47.24-58.9-.57-6.54,10.24-16.08,32.3-28.45l62.32-54.78c13.94-17.93,22.19-46.67,24.9-86.22l-.85-9.25c-2.42-27.89-22.62-50.37-60.61-67.72-22.48-15.22-62.89-23.33-121.22-24.61-48.37,4.13-111.54,21.34-189.23,51.36-21.34,15.51-45.67,30.87-72.99,46.1l.43,4.84c1.85-.14,4.27-1.14,7.26-2.85,3.13-.28,4.84,1.14,5.12,3.98l4.84-2.7,2.42-.14,.14,2.28c.14,2.28-16.79,15.51-51.08,39.69l2.7,4.27-2.42,.14-5.26-1.85c.14,1.42-2.28,2.42-7.26,2.85l.28,2.56,5.69,6.26c-1.85,.14-4.41-.43-7.68-1.57-11.1,1-21.91,8.96-32.58,24.04l2.7,4.27c9.25-8.54,14.65-12.8,16.22-12.95l.57,6.97c-1.57,.14-3.98,1.14-7.26,2.85l5.83,8.82c11.24-12.09,23.62-22.48,37.13-31.16,6.69,1.71,10.24,3.84,10.39,6.12l5.12-.43c36.71-27.17,72.99-46.81,108.98-58.9l.43,4.84c-6.69,9.96-11.24,15.08-13.66,15.37,.28,3.41,1.42,6.4,3.56,8.96,.57,6.12-15.79,47.38-48.94,123.64C114.53,1047,51.36,1178.18,0,1262.97c.14,1.71,1.14,3.98,2.99,6.83,12.66-2.99,20.63-6.12,24.04-9.11l2.7-.28,.43,4.84,4.7-.43,4.84-2.7c.14,1.42,1.71,2.13,4.98,1.85l.43,4.84c.43,4.7-2.28,11.81-7.97,21.63-5.12,5.83-10.67,18.07-16.5,36.71l.14,2.28,4.7-.43c20.49-22.91,36-45.39,46.67-67.3,59.76-17.5,105.28-34.72,136.87-51.65,31.73-2.7,55.91-11.1,72.42-24.9l-.28-2.56-11.95,3.56-2.7,.28-.28-2.56c23.33-3.56,39.41-8.68,48.37-15.79,45.39-35,79.67-59.76,102.86-74.41,47.66-35,78.68-69.15,92.76-102.3,2.56-.57,5.12-1.14,7.97-1.85,6.69-.28,10.39-.43,11.38-.71-.28-1.28,.28-1.99,1.57-2.28,10.67-1.14,5.55,.71,12.38-.85l17.93-4.13,2.99-.71-1.42,.85c1.99,.28,4.13,.14,6.54-.43l1.28,5.26-81.52,129.61-18.07,22.62-8.82,29.59,1.71-.43,8.82-3.7-2.85,11.52,.85,3.41,2.42,2.99c-1.14,.28-1.57,1-1.28,2.28l.43,1.85,3.7-.85c5.41-4.7,7.68-8.96,6.83-12.8,5.83,1,9.67,1.42,11.67,.85l.43,1.85c-3.56,.85-5.41,3.7-5.69,8.54l.43,1.85,1.99-.43c29.59-32.3,102.15-142.84,160.34-217.82-1.85-8.11,28.45-19.35,91.06-33.86l1.99-.43c2.28,9.82-2.56,33.58-14.51,71.28-7.68,22.76-11.38,35.28-10.81,37.28-9.96,30.3-14.65,46.67-14.09,49.23l-22.19,72.7c-14.37,37.28-25.32,76.4-33.01,117.66,1.28-.28,3.27-.14,6.12,.57l3.13-2.7c.28,1.28,1.14,1.71,2.42,1.42l-1.28-5.26,9.67-.28c2.85-.71,5.26-4.27,7.26-10.81-.43-9.82,1.56-15.08,5.98-16.22,5.98-23.33,9.67-35,10.96-35.43,5.55-23.19,9.67-36.42,12.38-39.69,8.39-30.16,14.51-45.67,18.5-46.67l.85,3.7-6.12,15.79c-10.67,47.38-21.48,84.8-32.44,112.25l3.13,13.66,1.99-.43c26.46-56.91,64.59-169.59,114.25-338.05,1.42-14.8,8.54-26.32,21.2-34.43l-2.85-2.99-.43-1.57c5.69-1.28,9.67-3.56,11.95-6.69-.28-1.28-5.26-3.13-14.94-5.69l24.76-106.14c5.41-4.84,8.54-7.4,9.53-7.4l.43,5.41c-1.28,.14-3.27,.85-5.55,2.42l4.7,6.69c8.54-9.25,17.78-17.22,27.89-23.9,5.12,1.42,7.68,3.13,7.97,4.84l3.7-.28c28.17-20.63,55.77-35.43,82.95-44.39l.28,3.56c-4.98,7.54-8.39,11.38-10.24,11.52,.28,2.56,1,4.84,2.28,6.83,.43,4.7-11.81,36-36.85,94.04-57.19,134.45-105.14,233.9-144.12,298.49,.14,1.28,1,2.99,2.56,5.26,9.53-2.28,15.65-4.7,18.07-6.97l1.71-.14,.28,3.56,3.98-.28,3.56-1.85c.14,1,1.42,1.42,3.84,1.28l.28,3.84c.28,3.41-1.71,8.82-6.12,16.22-4.13,4.41-8.39,13.66-12.95,27.74l.14,1.85,3.7-.28c15.51-17.36,27.32-34.43,35.43-51.22,45.39-13.37,79.96-26.32,103.86-39.13,24.33-2.13,42.68-8.39,55.2-18.92l-.14-1.85-9.25,2.7-1.99,.14-.14-1.85c17.64-2.56,30.02-6.54,36.71-11.81,34.43-26.46,60.47-45.39,78.11-56.48,54.92-39.98,80.53-78.39,77.4-115.24Zm-9.39,2.42l1.28,14.37c-1.71,3.56-3.56,5.41-5.26,5.55l-2.13-24.47c3.98,1.42,5.98,2.85,6.12,4.55ZM97.6,776.68l-2.42,.14-.43-4.41,9.82-.85,.14,2.28c-1.57,.14-3.98,1-7.11,2.85Zm-47.95,479.61c-5.69-2.56-10.81-3.56-15.22-3.13l-.57-6.97c-.28-2.7,1.28-4.55,4.7-5.26,3.13-.28,4.98,1.99,5.26,6.54,8.25-10.1,12.8-15.22,13.66-15.37l5.26,2.13c-1.71,14.23-6.12,21.48-13.09,22.05h0ZM561.99,720.34c-2.42,.28-7.26-7.26-14.23-22.19l-.43-4.41c4.55-.43,9.25,6.97,14.23,22.19l.43,4.41Zm-6.83-53.07l-1.99,4.7-69.57-29.02c46.38,1.57,70.28,9.67,71.56,24.33h0Zm-293.8,252.25l-9.82,.85-.43-4.41,9.82-.85,.43,4.41Zm-7.97-151.52l2.42-.14,.57,6.97c-2.28,.14-5.26,3.56-8.96,10.1l-.43-4.84c4.41-5.26,6.69-9.25,6.4-12.09h0Zm-20.63,48.66l.85,9.25-2.42,.14-.85-9.25,2.42-.14Zm-10.81,17.36l4.7-.43c-.43,7.68-2.56,11.81-6.4,12.09l-2.42,.14c2.99-5.12,4.41-9.11,4.13-11.81h0Zm-8.11,24.19l2.7-.28,.14,2.28-4.41,7.4-4.7,.43-.14-2.28c4.7-.43,6.83-2.85,6.4-7.54Zm-7.97,21.77l-1.42,11.67-2.42,.14-1-11.52,4.84-.28h0Zm-79.82,226.93c-3.13,15.93-6.54,24.04-10.1,24.33l-.14-2.28c-.85-7.83,2.56-15.22,10.24-22.05h0Zm-14.65,31.73l.14,2.28c.28,3.13-1.14,4.98-4.27,5.12l-.14-2.28c-.28-2.7,1.14-4.41,4.27-5.12Zm-4.27,65.87l7.4-.71,.28,2.56c-1.85,.14-4.27,1.14-7.26,2.85l-4.7,.43c-.28-2.42,1.28-4.27,4.27-5.12h0Zm210.57-65.02c-41.54,20.49-66.02,34.43-73.27,41.69-44.96,15.65-67.3,25.32-66.87,29.17-39.98,15.79-66.3,27.46-78.96,34.72-2.99,.28-7.26-.85-12.95-3.41-.71-8.11,2.99-14.65,10.81-19.92,6.97-.57,13.66,.43,20.06,3.13,7.4-3.84,20.35-8.11,38.7-12.66l-.43-4.84-14.8,1.28c1.85-2.56,16.08-9.25,42.82-20.06l7.4-.71,.14,2.28c-12.66,1.14-19.63,4.84-21.2,11.52,.28,2.99,1.99,4.27,5.12,3.98,9.53-5.98,14.23-9.53,14.09-10.53,18.07-3.41,68.01-29.59,149.82-78.39l.43,4.41c.14,2.13-6.83,8.11-20.91,18.35h0Zm-125.49,41.26c11.95-1,22.19-5.83,30.73-14.23,3.41-.28,5.26,1,5.41,3.98-5.83,.57-17.07,5.41-33.43,14.8l-2.42,.14-.28-4.7h0Zm202.46-155.51l-62.74,49.8c-46.67,30.59-71.71,45.95-75.41,46.24-74.27,40.83-120.51,62.03-138.43,63.6l-2.7,.28c2.28-8.39,35.28-75.97,99.31-203.17,28.17-2.42,72.56-15.51,133.03-39.41l14.8-1.28c30.59-2.7,53.5,3.27,68.58,17.5l.85,9.25c-11.24,32.58-23.76,51.65-37.28,57.19h0Zm-122.64-69l10.1-.85,.14,2.28-10.1,.85-.14-2.28Zm141.85-24.04l7.4-.71c6.83,3.27,10.39,6.12,10.67,8.68l.14,2.28c-6.54,.57-12.66-2.85-18.21-10.24h0Zm20.06-114.25c-6.54,7.83-24.47,21.2-53.78,39.98-9.67,.85-45.67,14.8-107.99,42.11-3.13-1.42-6.4-1.99-9.96-1.71l-.43-4.41c-.71-8.96,3.27-20.2,12.09-33.86,4.84-25.61,10.1-40.26,15.93-43.82l51.93-116.81c-.57-7.26,10.53-12.8,33.29-16.65l7.4-.71,.57,6.69c22.34-3.41,36.28-5.41,41.69-5.83,41.26-3.56,62.74,4.84,64.45,24.9l4.7-.43-1-11.81,5.12-.43c12.09,6.69,18.64,14.8,19.49,24.33,.57,6.54-2.99,14.65-10.53,24.33-3.13,.28-4.98-1.99-5.26-6.54l-5.12,.43-1.14,14.23c-20.91,31.3-36.14,47.38-45.53,48.23-8.54,11.81-13.8,17.64-15.93,17.78Zm31.87,81.81c-4.27-2.85-7.68-4.13-10.24-3.98l-.57-6.97,4.7-.43,10.39,6.12c.43,3.27-1,4.98-4.27,5.26h0Zm33.01,39.13c4.55,1.85,7.26,3.84,7.83,5.69l-2.28,.57,.14,.14c-.43,0-1,.14-1.42,.28l-3.41,2.7-.85-9.39Zm3.13,19.63l-.43-1.85,5.98-1.42,.43,1.85-5.98,1.42Zm14.37,16.08c6.12-1,9.11-1.42,20.49-3.98l.43,1.85-21.63,4.98c.28-1,.57-1.99,.71-2.85h0Zm21.06,8.96c-9.11,.85-7.11-.28-21.63,2.99l-.43-1.85,18.21-5.83,8.68-1.99,.85,3.41c-3.98,.85-1.14,.85-5.69,3.27h0Zm19.21-4.55c-2.13,.57-3.84-.43-4.84-2.85l5.55-1.28c2.42-.57,3.98,.43,4.55,2.85l-5.26,1.28Zm52.07-56.06l-.43-1.85,8.96-2.13,.85,3.41-9.39,.57Zm55.63,341.18c.57-2.56,.71-4.41,.43-5.69l1.99-.43c2.42-.57,3.84,.28,4.41,2.56l.43,1.85-7.26,1.71Zm38.98-326.52l-3.98-.71c-6.4,2.56-11.81,4.41-16.22,5.41l-3.7,.85c-2.13,.57-3.84-.28-4.7-2.56l26.04-5.98,8.54-3.98,2.85,3.27c-4.13,.85-7.11,2.13-8.82,3.7Zm20.06-6.4l-.43-1.85c1.28-.28,2.99-1.28,4.84-3.13l18.5-4.27,.43,1.85c-9.82,2.42-17.64,4.84-23.33,7.4Zm2.85-37.42c-1.28,.28-2.99,1.42-5.12,3.13-.28-1.28-2.85-1.28-7.68-.14-.85-3.56,12.8-8.54,41.12-15.08l3.98-.85,.85,3.41c-19.92,5.83-31.02,9.11-33.15,9.53Zm49.8-53.78c-1.99,22.62-9.96,35.43-24.04,38.7l-.43-1.85-12.52,4.84-5.55,1.28c-2.85,.71-5.41,.57-7.68-.14l-1.14-4.98c-.43-1.85,17.64-26.89,54.35-74.98l4.27,.71c1.56,6.54-.85,18.64-7.26,36.42Zm88.07-75.41l-1.71,.14-.28-3.56,7.4-.71,.14,1.85c-1.28,.28-3.13,1-5.55,2.28h0Zm-36.28,364.37c-4.27-1.99-8.11-2.85-11.38-2.56l-.43-5.41c-.14-1.85,1-3.13,3.41-3.84,2.42-.28,3.84,1.42,4.13,5.12,6.12-7.83,9.53-11.81,10.24-11.81l3.84,1.57c-1.42,10.81-4.7,16.5-9.82,16.93h0Zm388.98-406.91c-1.85,.14-5.41-5.55-10.96-17.07l-.28-3.56c3.56-.28,7.26,5.26,10.96,16.65l.28,3.98Zm-5.12-40.69l-1.71,3.7-52.64-22.05c35.14,1.14,53.35,7.26,54.35,18.35Zm-223.23,191.64l-7.4,.71-.28-3.56,7.4-.71,.28,3.56Zm-6.12-115.1l1.99-.14,.43,5.41c-1.85,.14-4.13,2.7-6.83,7.68l-.28-3.56c3.27-4.13,4.84-7.26,4.7-9.39h0Zm-15.51,36.99l.57,6.97-1.99,.14-.57-6.97,1.99-.14Zm-8.39,13.23l3.7-.28c-.43,5.98-1.99,9.11-4.7,9.39l-1.99,.14c2.13-3.98,3.13-7.11,2.99-9.25h0Zm-5.98,18.21l1.71-.14,.14,1.85-3.27,5.69-3.7,.28-.14-1.85c3.84-.28,5.55-2.28,5.26-5.83h0Zm-5.98,16.5l-1.28,9.11-1.71,.14-.71-8.96,3.7-.28h0Zm-60.75,172.58c-2.42,11.95-4.98,18.07-7.68,18.35l-.14-1.57c-.43-5.98,2.13-11.67,7.83-16.79Zm-11.24,24.04l.14,1.57c.28,2.56-.85,3.98-3.41,4.13l-.14-1.85c-.14-1.85,1-3.13,3.41-3.84Zm-3.13,50.08l5.69-.43,.14,1.85c-1.28,.14-3.27,.85-5.55,2.13l-3.7,.28c-.14-1.99,1-3.27,3.41-3.84Zm159.77-49.37c-31.3,15.51-49.94,26.04-55.77,31.44-34.15,11.95-51.08,19.35-50.79,22.34-30.3,12.09-50.22,20.77-59.61,26.32-2.28,.14-5.55-.71-9.82-2.7-.57-6.12,2.28-11.1,8.25-14.8,5.41-.43,10.53,.28,15.22,2.28,5.69-2.85,15.51-5.98,29.45-9.53l-.28-3.56-11.52,1c1.42-1.99,12.38-7.11,32.72-15.37l5.69-.43,.14,1.57c-9.67,.85-15.08,3.7-16.22,8.82,.14,2.28,1.56,3.41,3.98,3.13,7.11-4.7,10.53-7.4,10.53-8.25,13.66-2.42,51.5-22.34,113.68-59.61l.28,3.56c0,1.42-5.26,5.98-15.93,13.8h0Zm-95.32,31.3c9.25-.85,17.07-4.41,23.62-10.67,2.42-.14,3.84,.85,3.98,3.13-4.27,.43-12.66,3.98-25.32,10.81l-1.99,.14-.28-3.41h0Zm153.94-118.23l-47.38,38.13c-35.43,23.19-54.63,34.86-57.62,35.14-56.34,31.02-91.34,47.09-105.14,48.23l-1.99,.14c1.71-6.4,26.89-57.76,75.55-154.23,21.2-1.85,54.78-11.95,100.87-30.16l11.52-1c23.19-1.99,40.55,2.56,51.93,13.52l.57,6.97c-8.68,24.47-18.07,38.84-28.31,43.25h0Zm-93.05-52.36l7.4-.71,.14,1.85-7.4,.71-.14-1.85Zm107.7-18.35l5.69-.43c5.26,2.56,7.97,4.84,8.11,6.69l.14,1.57c-4.98,.43-9.67-2.13-13.94-7.83h0Zm14.94-86.65c-4.98,5.98-18.5,16.22-40.55,30.45-7.4,.71-34.72,11.24-81.95,31.73-2.28-.85-4.84-1.14-7.54-1l-.28-3.56c-.57-6.83,2.42-15.37,8.96-25.75,3.7-19.63,7.83-30.59,12.09-33.15l39.69-88.78c-.43-5.26,7.97-9.53,25.04-12.8l5.69-.43,.43,5.41c16.79-2.7,27.32-4.27,31.59-4.7,31.3-2.7,47.66,3.56,48.94,18.92l3.7-.28-.71-8.54,3.7-.28c9.11,4.98,13.94,10.96,14.51,18.07,.43,5.12-2.13,11.38-7.54,18.64-2.42,.28-3.84-1.42-4.13-5.12l-3.7,.28-1.14,10.67c-15.79,24.04-27.32,36.42-34.57,36.99-6.4,8.68-10.39,13.09-12.24,13.23h0Zm16.65,59.19l-.43-5.41,3.7-.28,7.97,4.84c.14,2.28-1,3.56-3.41,3.84-3.41-2.13-5.98-3.13-7.83-2.99h0Zm-662.29,345.59l-3.7,.85-3.13,2.7c.57,2.28,1.99,3.13,4.41,2.56s3.41-1.99,2.85-4.27l-.43-1.85Zm-14.09-28.03l.43,1.85c2.42-.57,3.41-1.99,2.85-4.27l-.43-1.85c-2.28,.57-3.27,1.99-2.85,4.27Zm100.73-189.23l2.7-1.71c-.57,0-1-.14-1.42-.28-1,.28-1.42,1-1.28,1.99h0Zm-.57-49.08l4.27-1-.85-3.7-4.27,1,.85,3.7Zm1005.46,143.7l-9.67-1.14-1.71,3.7,.14,1.85,57.62-4.84-.28-3.56-46.1,3.98Zm52.64-4.41l.28,3.56h.57l-.28-3.56h-.57Zm241.73-31.59l.28,3.56,6.26,1.14-.28-3.56-6.26-1.14Zm-8.82,.71c-43.25,9.67-48.66,7.97-57.76,8.68l.28,3.56,3.98-.28,2.13-.14-.57-.43,4.7-1.85c42.82-4.7,47.8-2.99,47.38-7.83l-.14-1.71h0Zm-259.65-62.89l-3.84-1.28c-3.13,8.39-4.7,13.37-4.55,14.8l.14,1.57c2.99-.14,5.69-5.26,8.25-15.08h0Zm-52.07-28.03l-.14-1.85-1.99,.14-3.56,2.28,1.99,3.41c2.7-.28,3.98-1.57,3.7-3.98h0Zm113.11,116.95l-.28-3.56-1.14,.14,.28,3.56,1.14-.14Zm234.75-52.93l2.7-.28c1.56-.14,2.28-1.42,2.13-3.7l-1.56-3.41c-9.82,.85-14.37,1.28-22.34,5.69l-.14-1.85-11.81,1.14c-.28-3.56-1.28-5.41-2.85-5.26l-6.12,.57c-7.11,.57-10.53,.28-14.09,2.99-.14-1.28-.57-1.85-1.28-1.85l-6.83,.57-3.98,2.28c-.14-1.28-.57-1.85-1.28-1.85l-2.42,2.13-.14-1.85-9.53-.71-2.28,.14,.28,3.56,4.84,1.28,4.55-.28c1.56,1,3.27,1.28,5.26,1.14l3.98-1.99,.14,1.57c-22.34,5.55-22.19,4.55-37.56,7.11-1.71-1.14-2.99-1.71-3.84-1.57l-.28,.28c-1.71-.14-2.7-1.28-2.85-3.13l7.97-1c.57,0,1,.57,5.41,1.42,6.4-3.13,6.69-4.41,10.1-4.7l-.28-3.56c-21.91,4.27-13.09,1.42-40.55,3.84l-1.28,.14-.28-3.56c35.28-4.27,23.48-1.85,35.57-5.26,.14,1.28,.57,1.85,1.28,1.85,1.42-1.42,2.99-2.13,4.84-2.42l2.42-.14c12.38-1,16.5,1.42,40.98-5.41l.14,1.57,3.98-1.99,3.7-.28c-.28-3.56,5.12-4.13,6.97-4.27l-.28-3.84c-42.97,8.68-54.21,6.26-66.16,9.67l-.14-1.57c-11.24,1.99-11.67,1.14-14.51,1.28-.85,.14-2.13,.85-3.56,2.28-.14-1.28-.57-1.85-1.42-1.85-.43,0-.57,.14-.71,.14l-36.42,5.98c-.14-1-.57-1.57-1.42-1.42-18.92,3.98-13.8,4.7-39.13,6.97-1.14,.14-2.7,.71-4.7,1.99-.14-1-.71-1.57-1.99-1.42l-15.51,1.28-10.39,2.56c-.14-1-.71-1.57-1.99-1.42-5.83,1.57-10.96,2.56-15.08,2.85h-.28c-2.56,.28,1.28-.71-.71-1.57l-3.13,1.85c-4.55,.43-2.13-.28-17.78-.14-27.46,3.41-24.47,3.84-27.46,3.98l-10.24-.71c.14,1-.43,1.71-1.56,1.71-11.67-1.57-17.64-3.41-17.78-5.55,1.56-11.1,4.27-16.79,8.11-17.07l1.99-.14-1.71,3.7,1.99-.14c3.7-1.99,5.41-3.84,5.26-5.55l-.28-3.84-3.7,.28-.28-3.56c-.28-2.7,.14-5.12,1.14-7.11l8.39-13.52,.28,3.56,3.98-.28-.28-3.56-2.28-3.27c2.99-2.56,5.26-3.98,7.11-4.13l-.14-1.85-5.41,.43-.43-5.41c10.81-22.48,15.93-35.57,15.65-39.27l3.84,1.57c2.42-.14,3.56-1.57,3.41-4.13l-3.7,.28-.14-1.57c-.28-2.7,.28-5.26,1.42-7.54,5.83-6.12,8.54-12.24,7.97-18.64,1.14-.14,1.71,.43,1.85,1.71,4.98-2.85,8.82-10.39,11.67-22.91,8.82-15.93,21.34-47.8,37.7-95.47,31.3-84.23,30.02-93.19,34.43-113.11l-3.7,.28c.28,2.56-.28,4.98-1.42,7.26-2.56-1-4.55-1.57-5.98-1.42l-.14-1.57c-.57-7.26,2.42-15.93,9.25-26.18l1.71-.14,3.13,12.24,3.7-.28c-.14-.85,.85-5.69,2.85-14.65-.14-1.85-1.56-2.99-4.41-3.13l-3.56,2.28c-.28-2.56-.14-9.25,.28-19.92l-1.85,.14c-3.13-3.13-4.7-5.69-4.84-7.83l-20.35,1.99c-.14-1.42-.85-3.56-2.28-6.26-.14-1.85,4.41-3.7,13.8-5.55l4.13,1.57,3.84-2.28c.14,1.28,.85,1.85,2.28,1.71l3.84-2.28c.14,1.28,.85,1.85,2.28,1.71l1.85-.14-.28-4.13c-2.85,.28-10.39,.28-22.34-.14l-3.84,2.56-.14-2.28c-95.47,7.83-149.67,12.24-162.62,13.52-1.71,.14-8.39,0-20.2-.28,.14,1.57-1.28,2.42-4.13,2.7l-4.13-1.85-13.94,3.56c-3.27,.28-8.82,.14-16.5-.71-2.13,1.71-4.7,2.7-7.83,2.99-1.71,.14,20.35-1.14,40.83-2.56-2.13,1.71-5.41,2.7-9.96,3.13-3.13,.28-5.83-.14-8.11-1.42-3.13,1.42-13.23,3.7-30.16,7.11l-4.13-1.57-66.58,10.24c-2.56-1.28-5.55-1.71-8.96-1.42-3.56,.28-9.53,1.57-17.78,3.84l-32.15,13.37,2.42,3.98c1.56-.14,3.84-1,6.54-2.56l11.38,1-1.42,10.67c-10.53,4.7-16.65,11.67-18.35,20.49-15.79,6.97-23.62,11.95-23.62,14.94l.14,1.85,2.42-.14,4.27-2.28,4.98,5.98,.71,8.25c.28,2.56-26.32,58.47-79.53,167.74-46.1,105.28-70.28,162.9-72.56,173.29-15.79,4.41-24.9,10.81-27.6,19.35,.28,2.7,4.98,4.55,14.09,5.26l.43,4.13-4.13,6.83,.71,8.25c.43,4.27,11.95,7.54,34.57,9.82-.14-1.42,.57-2.28,2.13-2.42,.43,5.12-1,15.08-4.27,29.88l2.42-.14c9.39-12.8,13.8-21.63,13.37-26.46l1.99-.14c2.28-.14,4.7,2.42,7.54,7.97-2.85,1.14-12.8,23.76-29.88,68.01l2.42,3.98,2.42-.14c20.91-52.93,34-82.23,39.41-87.78,27.46-2.42,74.98-7.26,142.42-14.51l4.27-2.56c.14,1.42,1,2.13,2.56,1.99l4.41-.43,4.27-2.56c.14,1.42,1,2.13,2.56,1.99l51.08-4.41c13.52-1.14,19.92-5.26,19.35-12.24-.14-1.85,7.83-3.98,23.9-6.26,1.56-.14,3.84,.28,6.97,1.28-.14-1.28,7.97-2.56,24.19-3.98,.43-8.54,3.13-13.09,7.97-13.52l-.43-4.13c-4.55,.43-9.67,1.57-15.65,3.56-10.67-.57-17.5-1.42-20.35-2.42-2.85,1.57-4.98,2.42-6.54,2.56l-35.57,1.14-4.27,2.28c-.14-1.28-1-1.85-2.56-1.71l-1.99,.14-4.55,2.28c-.14-1.28-3.84-2.28-11.24-3.27l-4.55,2.7-8.82,.71-.14-2.28c45.81-4.98,68.43-11.24,67.87-18.64,2.99-.28,4.55,1.14,4.84,4.13l13.37-3.41-.43-4.13-109.69,2.99c.14,1.42-.57,2.28-2.13,2.42l-13.37-1.14c-3.41,.28-6.26,1.28-8.54,2.99l-4.98-1.85c-13.8,1.14-24.04,2.85-30.87,4.98-9.39-.71-19.78-.57-31.3,.43l-24.61,2.13-11.38-1.28c-.57-7.26,13.52-42.97,42.54-106.99,8.39-21.63,16.08-35.14,23.48-40.26,1.56-.14,3.84,.43,6.97,1.71l17.5-5.98,8.96,1.42c15.08-1.28,32.58-5.55,52.64-12.95,4.98-.43,8.68-.14,11.38,1l13.37-3.13,39.84-3.41c16.93-1.42,35.28-5.12,55.2-11.24l-.43-4.13c-7.4,.71-11.24-.57-11.52-3.56-.43-5.55-5.83-7.83-16.22-6.97l-.43-4.13,10.96-3.13,28.74-2.42-.43-4.13c-1.14,.14-6.97,0-17.78-.43l-.43-4.41,11.1-1c2.99-.28,4.27-1.71,3.98-4.55-14.94,.43-22.48-.28-22.62-2.28-104.15,5.12-156.36,6.12-156.64,2.85-1.56,.14-3.7,1.14-6.54,2.85l-2.7-4.27c27.6-58.62,43.82-88.21,48.52-88.64,.14,2.28-1,5.98-3.41,10.96l.14,1.85,4.41-.43c10.96-26.18,20.2-39.69,27.89-40.26,32.72-2.85-4.55-4.98,65.45-15.93,2.85,1.28,4.84,1.85,6.26,1.71,27.46-5.55,65.73-11.38,114.82-17.36l-.28-4.13-26.18,2.42-.28-4.13c3.13-.28,5.69-1.28,7.83-2.99l.14,2.28c1.42-.14,3.41-1.14,5.98-2.85,4.55-.43,7.97,0,10.39,1.28,9.11-2.42,16.5-3.84,21.91-4.41l16.36-1.57c3.98-2.56,5.83-4.84,5.69-6.97l-.14-1.85c-4.13,.43-8.82,.14-14.37-.85-.14-2.28,1-3.84,3.7-4.55l30.45-2.85,13.94-3.56c.14,1.57,.85,2.13,1.99,2.13,1.42-.14,3.41-1.14,5.98-2.85,.71,.14,1.56,.14,2.28,.28-1.85,3.84-3.98,9.39-6.12,16.65l-3.98,.28c-.28-2.7-1-5.12-2.28-7.26l-1.99,.14c-36.99,103.01-53.5,150.95-87.64,230.06-6.26,20.2-11.52,31.44-16.08,33.86,.14,2.28,1.56,3.41,3.98,3.13,.85,9.96-1.42,19.78-6.97,29.45-15.79,45.53-26.32,70.43-31.73,74.98l3.56,21.48c.14,2.28-1,3.56-3.41,3.84l-3.7,.28c-.57-5.98-2.7-8.82-6.54-8.39l-1.99,.14c-4.84,7.54-8.54,16.22-10.96,26.32l3.7-.28c4.98-3.27,7.26-7.11,6.83-11.52l7.4-.71,4.27,1.57c-3.41,5.41-4.98,9.67-4.7,12.95l1.99,3.41-4.84,11.38,.14,1.85c4.27-.43,8.96,1,13.94,3.98,3.41-.28,7.11-1.85,11.24-4.55,4.27-.43,20.2-.57,47.66-.57l13.8-4.7c16.79-.14,19.49,.28,34-1l5.98-.57,3.13-2.13,.14,1.85c15.22-1.28,16.22-.28,28.17,1.14l.14,1.85-8.39,.71,.28,3.56c2.56-.28,4.84-1,6.69-2.56,2.13-.14,3.41,1,3.56,3.56-3.41,.28-7.26,1.14-11.52,2.56l-3.7-1.28c-5.83,1.57-4.55,1.99-8.54,2.28l-5.83-1.14c.14,1-.43,1.71-1.42,1.71,.14,2.28,1.42,3.41,3.56,3.27l5.98-.57,31.16-2.7,11.81-2.56c.14,1,.57,1.57,1.56,1.42l5.69-2.13,10.67-.85c8.25-.71,8.11-1.28,26.04-4.13-.14-1.14,.28-1.57,1.14-1.71l.14,1.57c29.17-4.98,31.02-5.26,35.71-6.83l.43,.85c7.26-1.71,3.13-1.28,5.12-2.7,.14,1.28,.57,1.85,1.28,1.85l5.12-.43-.28-3.84-10.39-.14-.14-.28c-.43,.14-.71,.14-1.14,.28h-1.42v.28c-6.97,1.42-7.11,.43-11.67,.85l-26.04,1.42-.14-1.85,14.51-1.99,5.26-.43,2.99-2.13,.14,1.85c20.49-1.71,27.74,3.41,122.5-16.79,5.12-.43,4.7-4.7,7.97-13.52-1.71,.14-3.41-.28-4.98-1.14-7.83,2.99-11.95,1.57-27.03,3.98-1.28,.14-2.28-1-2.7-3.27l-.14-1.57,14.51,.43c2.7-.28,7.97-.71,15.79-5.12,0,1.28-2.99,1.99-1.28,1.85h0Zm-700.56,11.24l-6.69,.57c-.28-2.7,3.27-12.95,10.67-30.45l4.41-.43c.14,4.13-2.56,14.23-8.39,30.3h0Zm8.11-32.44l-.14-1.85c-.14-2.28,1.28-3.84,4.41-4.55l.14,1.85c.14,2.7-1.28,4.27-4.41,4.55Zm88.92,68.72l.14,1.85-11.1,1-.14-1.85,11.1-1Zm-13.37-1.14c.14,2.28-3.27,4.84-10.67,7.4l-13.66-1-4.41,.43-.43-4.13,29.17-2.7h0Zm89.92-413.88l-6.69,.57-.14-2.28c-.14-2.28,1.14-3.84,3.98-4.55l2.42-.14,4.55,1.85c.14,2.7-1.14,4.27-4.13,4.55h0Zm101.73-19.92l2.13-.14,.28,4.13-6.12,.57c-.14-2.28,1-3.84,3.7-4.55h0Zm-25.61,8.96l-10.1-1.14-.14-1.85c13.23-1.14,17.64-2.56,25.75-4.84,.14,1.57,1.56,2.13,4.13,1.85l.28,4.13-3.98,.43c-3.13,.28-5.83-.14-8.11-1.42-2.42,1.57-4.98,2.56-7.83,2.85Zm12.66,36.85l-.14-1.85,16.36-1.57,.14,1.85-16.36,1.57Zm17.5-14.23l-.14-2.28,7.97-.71,.14,2.28-7.97,.71Zm1.85-27.89l-2.13,.14,1.85-4.41,18.21-1.71,.14,2.28c-4.7,.43-10.81,1.71-18.07,3.7h0Zm9.25,39.27l-.28-4.13,7.97-.71c2.7-.28,4.13,1,4.27,3.84l-11.95,1Zm48.23-65.73l-10.24,2.85-1.85,.14c-4.84,.43-11.1,.28-18.5-.43,13.23-.85,25.89-1.85,30.59-2.56Zm-10.96,45.53l.14,1.85-14.09,1.28-.14-1.85,14.09-1.28Zm23.05,10.96c-.14-1.71-2.85-2.85-8.39-3.41l-14.09,3.98-10.81,.43c-2.42-1.71-3.7-2.85-3.84-3.7l12.52,.71,28.17-4.55,14.37,.57,.14,2.28c-7.11,.71-13.09,1.99-18.07,3.7h0Zm144.98-37.42c1.71,.14,2.85,.14,3.27,.14,4.98-4.84,10.53-8.68,16.93-11.38-5.12,22.48-13.09,39.13-24.04,49.94l-7.97-4.84c6.69-16.93,10.67-28.17,11.81-33.86h0Zm-24.47,41.97l1.99-.14c-2.7,5.12-5.12,7.83-7.11,7.97l-.43-5.41c1.28,0,3.13-.85,5.55-2.42Zm-15.79,37.7c3.84-15.37,7.54-24.04,10.96-26.32l.14,1.85c-1.99,14.23-5.12,21.77-9.25,22.34l.71,8.96c-3.41,4.84-4.98,8.54-4.84,11.38l-1.99,.14-1.14-12.38c2.28-.28,4.13-2.28,5.41-5.98h0Zm-6.12,20.49c.14,2.13-1.28,7.11-4.13,14.8l-1.99,.14-.43-5.41c2.7-6.26,4.98-9.39,6.54-9.53h0Zm-114.82,333.21l-.14-1.57,3.7-.28,.43,5.41c-1.99,.14-3.41-1-3.98-3.56h0Zm164.04,4.27c-.14-1.28-.71-1.85-1.99-1.71l-9.25,.85-.14-1.85h.85l21.91-1.85,.14,1.85c-6.4,.28-10.24,1.28-11.52,2.7Zm-10.96-4.55c.85,.43,.43,.85,0,1.14-.43-.14-1-.57,0-1.14Zm1.14-25.61l-12.24,1-.14-1.85,11.1-1,9.67-2.42c.14,1.14,.71,1.57,1.99,1.42,11.52-1.99,10.39-2.56,15.93-2.99,1.85-.14,2.99,1,3.13,3.27l-29.45,2.56h0Zm42.82-3.7c-6.83-.71-7.26-1.28-12.09-.85l-.14-1.57,10.96-1,.14,1.57c-1.14,.14,2.99,.43,1.14,1.85h0Zm.85-1.99l-.14-1.57,5.98-.57,.14,1.57-5.98,.57Zm13.23-1.14l-.14-1.57c1-.14,2.42-.85,4.27-2.28,2.99-.28,4.55,1.71,4.84,3.98l-8.96-.14h0Zm16.93-2.13l-.14-1.85,7.26-.57,.14,1.85-7.26,.57Zm10.1-.85c-.14-2.13,.71-3.41,2.56-3.7l2.42,3.13c-.14-1,.28-1.57,1.14-1.71l1.85,3.41-7.97-1.14h0Zm140-16.5l.14-.14v-.14s-.14,.14-.14,.28Zm2.56-1.85c1.14-.71,1.71-1.42-1-1.85-1.28,1.42,1.42,1.85-1.42,1.99l.14,1.28c.28-.28,1-.71,1.56-1.14l-1.56,1.28v.14l-2.99,3.84,5.98-2.13h.71l-.28-3.56-1.14,.14h0Zm10.39,8.11l-1.14,.14,.28,3.56,8.39-.71c-.14-2.28-5.69-2.99-7.54-2.99h0Z"/>
</svg>