<?xml version="1.0" encoding="UTF-8"?>
<svg id="Layer_1" data-name="Layer 1" xmlns="http://www.w3.org/2000/svg" viewBox="0 0 1920 1920">
  <defs>
    <style>
      .cls-1 {
        fill: #264de4;
      }

      .cls-2 {
        fill: #fff;
      }

      .cls-3 {
        fill: #fafafa;
      }

      .cls-4 {
        fill: #2965f1;
      }

      .cls-5 {
        fill: #ebebeb;
      }
    </style>
  </defs>
  <g id="layer1">
    <g id="g3013">
      <polygon id="polygon2989" class="cls-1" points="403.66 1765.79 279.87 377.33 1640.13 377.33 1516.2 1765.57 959.17 1920 403.66 1765.79"/>
      <polygon id="polygon2991" class="cls-4" points="1410.11 1677.17 1516.01 490.85 960 490.85 960 1801.96 1410.11 1677.17"/>
      <polygon id="polygon2993" class="cls-5" points="563.66 1005.81 578.93 1176.1 960 1176.1 960 1005.81 563.66 1005.81"/>
      <polygon id="polygon2995" class="cls-5" points="548.47 831.44 960 831.44 960 661.14 959.41 661.14 532.99 661.14 548.47 831.44"/>
      <polygon id="polygon2997" class="cls-5" points="959.22 1625.46 960 1625.25 960 1448.07 959.25 1448.27 769.6 1397.06 757.48 1261.25 665.32 1261.25 586.53 1261.25 610.39 1528.63 959.22 1625.46"/>
      <path id="path2999" class="cls-3" d="M600,0h206.25V86.25h-120v86.25h120v86.25h-206.25V0Z"/>
      <path id="path3001" class="cls-3" d="M847.5,0h206.25V75h-120v15h120v172.5h-206.25v-78.75h120v-15h-120V0Z"/>
      <path id="path3003" class="cls-3" d="M1095,0h206.25V75h-120v15h120v172.5h-206.25v-78.75h120v-15h-120V0Z"/>
      <polygon id="polygon3005" class="cls-2" points="1385.99 661.14 959.41 661.14 959.41 831.44 1199.37 831.44 1183.87 1005.81 959.41 1005.81 959.41 1176.1 1169.1 1176.1 1149.34 1396.95 959.41 1448.22 959.41 1625.38 1308.51 1528.63 1311.07 1499.86 1351.09 1051.54 1355.25 1005.81 1385.99 661.14"/>
    </g>
  </g>
</svg>