<?xml version="1.0" encoding="UTF-8"?>
<svg id="Layer_1" data-name="Layer 1" xmlns="http://www.w3.org/2000/svg" viewBox="0 0 1920 1920">
  <defs>
    <style>
      .cls-1 {
        fill: #f24e1e;
      }

      .cls-2 {
        fill: #a259ff;
      }

      .cls-3 {
        fill: #ff7262;
      }

      .cls-4 {
        fill: #1abcfe;
      }

      .cls-5 {
        fill: #0acf83;
      }
    </style>
  </defs>
  <path id="path0_fill" data-name="path0 fill" class="cls-5" d="M640,1920c176.64,0,320-143.36,320-320v-320h-320c-176.64,0-320,143.36-320,320s143.36,320,320,320Z"/>
  <path id="path1_fill" data-name="path1 fill" class="cls-2" d="M320,960c0-176.64,143.36-320,320-320h320v640h-320c-176.64,0-320-143.36-320-320Z"/>
  <path id="path1_fill-2" data-name="path1 fill" class="cls-1" d="M320,320C320,143.36,463.36,0,640,0h320V640h-320c-176.64,0-320-143.36-320-320Z"/>
  <path id="path2_fill" data-name="path2 fill" class="cls-3" d="M960,0h320c176.64,0,320,143.36,320,320s-143.36,320-320,320h-320V0Z"/>
  <path id="path3_fill" data-name="path3 fill" class="cls-4" d="M1600,960c0,176.64-143.36,320-320,320s-320-143.36-320-320,143.36-320,320-320,320,143.36,320,320Z"/>
</svg>