<?xml version="1.0" encoding="UTF-8"?>
<svg id="Layer_1" data-name="Layer 1" xmlns="http://www.w3.org/2000/svg" viewBox="0 0 1920 1920">
  <defs>
    <style>
      .cls-1 {
        fill: #fafafa;
      }
    </style>
  </defs>
  <path class="cls-1" d="M960,23.67C429.92,23.67,0,453.51,0,983.67c0,424.16,275.04,784,656.56,910.96,47.92,8.88,63.44-20.88,63.44-46.16v-178.72c-267.04,58.08-322.64-113.28-322.64-113.28-43.68-110.96-106.64-140.48-106.64-140.48-87.12-59.6,6.64-58.32,6.64-58.32,96.4,6.72,147.12,98.96,147.12,98.96,85.6,146.72,224.56,104.32,279.36,79.76,8.56-62,33.44-104.4,60.96-128.32-213.2-24.4-437.36-106.72-437.36-474.48,0-104.88,37.52-190.48,98.88-257.68-9.92-24.24-42.8-121.92,9.36-254.08,0,0,80.64-25.76,264.08,98.4,76.56-21.28,158.64-31.92,240.24-32.32,81.6,.4,163.76,11.04,240.48,32.32,183.28-124.16,263.76-98.4,263.76-98.4,52.24,132.24,19.36,229.92,9.44,254.08,61.6,67.2,98.8,152.88,98.8,257.68,0,368.72-224.56,449.92-438.32,473.68,34.4,29.76,65.84,88.16,65.84,177.76v263.44c0,25.52,15.36,55.52,64.08,46.08,381.2-127.12,655.92-486.88,655.92-910.88,0-530.16-429.84-960-960-960Z"/>
</svg>