<?xml version="1.0" encoding="UTF-8"?>
<svg id="Layer_1" data-name="Layer 1" xmlns="http://www.w3.org/2000/svg" viewBox="0 0 1920 1920">
  <defs>
    <style>
      .cls-1 {
        fill: #fff;
      }

      .cls-2 {
        fill: #fafafa;
      }

      .cls-3 {
        fill: #f16529;
      }

      .cls-4 {
        fill: #ebebeb;
      }

      .cls-5 {
        fill: #e44d26;
      }
    </style>
  </defs>
  <path class="cls-2" d="M406.5,0h86.25V85.5h79.5V0h86.25V258.75h-86.25v-86.25h-78.75v86.25h-87M772.5,86.25h-76.13V0h238.87V86.25h-76.5v172.5h-86.25M973.13,0h90.38l55.5,91.12L1174.5,0h90.38V258.75h-86.25V130.5l-60.38,93-60.38-93v128.25h-84.75M1307.63,0h86.25V173.25h122.25v85.5h-208.5"/>
  <path class="cls-5" d="M403.5,1766.25L279.75,377.25H1640.25l-123.75,1388.25-557.62,154.5"/>
  <path class="cls-3" d="M960,1801.88V491.25h556.12l-106.12,1185"/>
  <path class="cls-4" d="M532.5,661.13h427.5v170.25h-240.75l15.75,174.38h225v169.87h-381m7.5,85.5h171l12,136.12,190.5,51v177.75l-349.5-97.5"/>
  <path class="cls-1" d="M1386,661.13h-426.75v170.25h411m-15.38,174.38h-395.62v170.25h210l-19.87,221.25-190.12,51v177l348.75-96.75"/>
</svg>