<?xml version="1.0" encoding="UTF-8"?>
<svg id="Layer_1" data-name="Layer 1" xmlns="http://www.w3.org/2000/svg" viewBox="0 0 1920 1920">
  <defs>
    <style>
      .cls-1 {
        fill: #f7df1e;
      }
    </style>
  </defs>
  <rect class="cls-1" width="1920" height="1920"/>
  <path d="M1289.75,1500.01c38.67,63.15,88.99,109.56,177.98,109.56,74.76,0,122.51-37.36,122.51-88.99,0-61.87-49.07-83.78-131.35-119.77l-45.1-19.35c-130.19-55.47-216.69-124.95-216.69-271.85,0-135.31,103.1-238.32,264.23-238.32,114.71,0,197.18,39.92,256.61,144.46l-140.5,90.21c-30.93-55.47-64.3-77.32-116.11-77.32s-86.34,33.52-86.34,77.32c0,54.13,33.52,76.04,110.93,109.56l45.1,19.32c153.3,65.74,239.85,132.75,239.85,283.43,0,162.44-127.6,251.43-298.97,251.43s-275.81-79.85-328.78-184.5l146.62-85.18Zm-637.35,15.63c28.34,50.29,54.13,92.8,116.11,92.8s96.67-23.19,96.67-113.37V881.58h180.42v615.92c0,186.82-109.53,271.85-269.41,271.85-144.46,0-228.11-74.76-270.66-164.8l146.86-88.91Z"/>
</svg>