<?xml version="1.0" encoding="UTF-8"?>
<svg id="Layer_1" data-name="Layer 1" xmlns="http://www.w3.org/2000/svg" viewBox="0 0 1920 1920">
  <defs>
    <style>
      .cls-1 {
        fill: #fafafa;
      }

      .cls-2 {
        fill: #12924f;
      }

      .cls-3 {
        fill: #b8c4c2;
      }

      .cls-4 {
        fill: #10aa50;
      }
    </style>
  </defs>
  <g>
    <path class="cls-4" d="M1190.16,468.19c-56.02-247.14-172.79-312.94-202.58-359.45-12.28-20.49-23.16-41.79-32.57-63.74-1.57,21.96-4.46,35.79-23.13,52.44-37.47,33.41-196.61,163.09-210,443.9-12.48,261.82,192.48,423.26,219.55,439.95,20.82,10.25,46.18,.22,58.55-9.18,98.8-67.81,233.79-248.57,190.28-503.91"/>
    <path class="cls-3" d="M963.51,841.87c-5.16,64.81-8.86,102.46-21.96,139.49,0,0,8.6,61.69,14.64,127.05h21.37c5.1-46.02,12.88-91.71,23.31-136.82-27.66-13.61-36.3-72.86-37.36-129.72Z"/>
    <path class="cls-2" d="M1000.83,971.63h0c-27.96-12.92-36.04-73.4-37.29-129.76,6.91-92.96,8.93-186.21,6.04-279.38-1.46-48.89,.7-452.79-12.04-511.93,8.71,20.03,18.75,39.45,30.04,58.15,29.79,46.55,146.59,112.34,202.58,359.48,43.62,254.9-90.64,435.19-189.33,503.44Z"/>
  </g>
  <g>
    <path class="cls-1" d="M1450.72,1299.27c9.82,7.85,29.45,11.09,46.76,11.09,22.43,0,44.42-4.16,65.9-23.56,21.88-19.89,36.93-50.32,36.93-98.92s-17.77-84.59-54.22-106.77c-20.57-12.93-47.22-18.03-77.61-18.03-8.75,0-17.77,.46-22.89,2.78-2.1,1.66-3.59,3.97-4.22,6.56-.92,8.31-.92,71.63-.92,109.07s0,91.9,.92,98.46c.48,5.56,3.28,15.32,9.34,19.41m-93.3-257.07c7.94,0,38.14,1.38,52.18,1.38,26.26,0,44.39-1.38,93.47-1.38,41.13,0,75.75,11.09,100.49,32.34,29.93,25.91,45.95,61.94,45.95,105.85,0,62.4-28.44,98.46-57.04,118.79-28.44,21.27-65.44,33.28-118.15,33.28-28.05,0-76.21-.92-116.4-1.38h-.83c-1.88-3.7,3.44-18.12,6.72-18.49,10.94-1.23,13.83-1.66,18.86-3.74,8.49-3.48,10.48-7.81,11.42-23.06,1.4-28.66,.94-62.86,.94-101.7,0-27.72,.46-81.81-.46-98.92-1.42-14.31-7.46-18.01-19.69-20.79-8.67-1.84-17.44-3.23-26.26-4.16-.92-2.78,6.26-15.32,8.6-18.03"/>
    <path class="cls-1" d="M1765.38,1065.74c-1.86,.46-4.2,5.1-4.2,7.4-.48,16.65-.94,60.08-.94,90.12,.24,1.17,1.16,2.09,2.34,2.32,6.06,.46,21.03,.94,33.65,.94,17.77,0,28.05-2.32,33.65-5.1,14.97-7.4,21.88-23.59,21.88-41.13,0-40.22-28.05-55.47-69.64-55.47-5.62-.07-11.24,.24-16.83,.92m106.12,184.88c0-40.67-29.93-63.78-84.63-63.78-2.32,0-19.69-.46-23.83,.46-1.4,.46-2.8,1.38-2.8,2.32,0,29.12-.48,75.79,.94,94.28,.94,7.85,6.56,18.95,13.54,22.19,7.48,4.16,24.31,5.08,35.99,5.08,32.25,0,60.78-18.01,60.78-60.54m-190.49-207.53c4.22,0,16.65,1.38,48.44,1.38,29.91,0,54.22-.92,83.14-.92,35.99,0,85.53,12.95,85.53,66.56,0,26.26-18.69,47.61-42.99,57.78-1.4,.46-1.4,1.38,0,1.84,34.59,8.75,64.96,30.04,64.96,70.72s-24.77,64.72-60.76,80.43c-21.88,9.71-49.08,12.93-76.58,12.93-21.03,0-77.39-2.19-108.72-1.84-3.28-1.38,3-16.19,5.8-18.49,7.18-.22,14.3-1.34,21.2-3.33,11.2-2.76,12.54-6.37,13.94-23.02,.94-14.33,.94-65.64,.94-102.16,0-49.93,.48-83.65,0-100.3-.46-12.93-5.14-17.11-14.02-19.41-7-1.4-18.69-2.78-28.03-4.16-2.34-2.32,4.86-16.19,7.18-18.03"/>
    <path class="cls-1" d="M4.38,1332.35c-1.2-2.96-1.69-6.16-1.42-9.34-.1-2.17,.39-4.33,1.42-6.24,6.05-.87,12.04-2.09,17.94-3.65,8.27-2.06,11.38-6.56,11.86-17.11,1.36-24.92,1.44-71.68,.96-104.54v-.96c0-3.54,0-8.36-4.38-11.75-7.69-4.83-16.04-8.51-24.79-10.94-3.92-1.16-6.08-3.22-5.97-5.62s2.58-5.25,7.68-6.26c13.54-1.38,49.03-9.85,62.97-16.28,1.44,1.87,2.1,4.22,1.86,6.56,0,1.44-.22,2.98-.37,4.55-.39,4.64-.83,9.91-.83,15.16,.25,1.89,1.99,3.22,3.89,2.97,.75-.1,1.44-.44,1.98-.97,26.54-20.81,50.32-28.22,62.51-28.22,20.06,0,35.69,9.58,47.79,29.32,.56,.97,1.59,1.57,2.71,1.6,1.02,0,1.97-.52,2.54-1.36,24.4-18.51,48.57-29.56,64.76-29.56,38.25,0,61.11,28.64,61.11,76.58,0,13.78-.13,31.27-.26,47.57-.11,14.31-.22,27.72-.22,37,0,2.19,3.02,8.49,7.55,9.74,5.6,2.73,13.67,4.14,23.89,5.89h.39c.77,2.76-.85,13.46-2.41,15.64-2.54,0-6.04-.22-10.41-.44-7.94-.39-18.84-.94-31.51-.94-25.42,0-38.71,.48-51.4,1.31-.96-3.17-1.29-13.41-.13-15.56,5.26-.82,10.46-1.95,15.58-3.39,8.1-2.67,10.44-6.35,10.94-17.09,.2-7.64,1.66-74.92-.94-90.89-2.41-16.56-14.88-35.95-42.16-35.95-10.13,0-26.47,4.22-42.05,16.04-.97,1.1-1.51,2.5-1.53,3.96v.33c1.84,8.62,1.84,18.69,1.84,33.89,0,8.75,0,17.88-.11,27-.11,18.55-.2,36.06,.11,49.3,0,9.01,5.45,11.18,9.85,12.91,2.38,.53,4.27,.98,6.17,1.42,3.65,.9,7.46,1.82,13.13,2.71,.84,3.84,.76,7.83-.22,11.64-.23,1.43-.79,2.79-1.64,3.96-14.13-.48-28.64-.9-49.58-.9-6.35,0-16.69,.26-25.84,.5-7.42,.2-14.42,.39-18.4,.42-1.08-2.54-1.56-5.3-1.4-8.05-.22-2.6,.28-5.2,1.47-7.53l5.62-1.03c4.9-.88,9.15-1.62,13.13-2.63,6.91-2.19,9.52-5.95,10.02-14.77,1.36-20.57,2.41-79.84-.5-94.67-4.94-23.81-18.49-35.88-40.28-35.88-12.76,0-28.88,6.15-42.05,16.02-2.56,2.49-3.97,5.94-3.87,9.52v24.48c0,29.76-.2,66.8,.53,82.82,.44,4.94,2.19,10.81,11.44,12.95,2.03,.59,5.54,1.16,9.61,1.84,2.34,.39,4.9,.81,7.55,1.29,.84,5.24,.41,10.6-1.25,15.64-4.07,0-9.08-.26-14.81-.5-8.75-.39-19.69-.88-32.05-.88-14.62,0-24.79,.48-32.95,.88-5.49,.26-10.24,.48-14.99,.5"/>
    <path class="cls-1" d="M473.59,1159.48c-7.9-.16-15.66,2.02-22.32,6.28-16.23,9.87-24.51,29.58-24.51,58.55,0,54.22,27.15,92.09,66.03,92.09,10.42,.33,20.59-3.27,28.49-10.09,11.95-9.74,18.29-29.65,18.29-57.52,0-53.41-26.54-89.31-66.03-89.31m7.48,177.03c-70.23,0-95.24-51.53-95.24-99.73,0-33.67,13.76-59.99,40.92-78.26,19.02-11.77,40.85-18.23,63.21-18.69,53.58,0,91.02,38.53,91.02,93.73,0,37.5-14.94,67.13-43.23,85.64-13.59,8.31-37.2,17.31-56.67,17.31"/>
    <path class="cls-1" d="M1188.62,1159.48c-7.91-.18-15.7,2.01-22.36,6.28-16.23,9.87-24.51,29.58-24.51,58.55,0,54.22,27.15,92.09,66.03,92.09,10.45,.35,20.66-3.25,28.58-10.09,11.95-9.74,18.27-29.65,18.27-57.52,0-53.41-26.52-89.31-66.01-89.31m7.48,177.03c-70.23,0-95.24-51.53-95.24-99.71,0-33.72,13.76-60.02,40.94-78.29,19.01-11.78,40.83-18.23,63.19-18.69,53.58,0,91.02,38.55,91.02,93.71,0,37.55-14.94,67.15-43.23,85.64-13.59,8.34-37.2,17.33-56.67,17.33"/>
    <path class="cls-1" d="M952.15,1157.64c-21.64,0-35.64,17.09-35.64,43.54s12.06,57.89,45.95,57.89c5.82,0,16.37-2.58,21.6-8.34,7.88-7.24,13.13-22.21,13.13-38.01,0-34.5-16.8-55.09-44.92-55.09m-2.8,182.57c-6.11-.07-12.14,1.44-17.5,4.38-17.13,10.94-25.07,21.88-25.07,34.59,0,11.9,4.62,21.38,14.55,29.78,12.03,10.2,28.27,15.16,49.6,15.16,41.99,0,60.8-22.58,60.8-44.94,0-15.58-7.81-26.02-23.89-31.92-12.38-4.53-33.08-7.02-58.42-7.02m2.8,107.21c-25.21,0-43.37-5.32-58.88-17.26-15.1-11.64-21.88-28.93-21.88-40.87,.16-7.7,3.1-15.08,8.27-20.79,4.38-4.99,14.55-14.33,38.07-30.5,.75-.32,1.23-1.05,1.23-1.86,.02-.91-.6-1.71-1.49-1.93-19.36-7.42-25.21-19.69-26.98-26.26,0-.24,0-.61-.2-1.03-.55-2.58-1.07-5.03,2.45-7.55,2.71-1.93,7.05-4.51,11.68-7.24,6.55-3.62,12.83-7.71,18.79-12.23,1.16-1.25,1.09-3.2-.16-4.36-.19-.18-.4-.33-.63-.45-28.66-9.63-43.1-30.92-43.1-63.45-.18-20.59,9.7-39.97,26.47-51.92,11.53-9.12,40.48-20.09,59.23-20.09h1.09c19.28,.46,30.15,4.51,45.2,10.06,8.56,3.1,17.64,4.54,26.74,4.24,15.95,0,22.93-5.05,28.93-10.94,.97,2.65,1.49,5.45,1.53,8.27,.37,6.73-1.46,13.39-5.21,18.99-3.26,4.53-10.94,7.81-17.96,7.81-.72,0-1.42,0-2.19-.11-3.7-.26-7.36-.87-10.94-1.82l-1.79,.63c-.57,.83-.2,1.75,.26,2.93,.11,.23,.2,.47,.26,.72,1.28,5.84,2.15,11.76,2.6,17.72,0,34.02-13.41,48.84-27.92,59.82-14.03,10.52-30.68,16.97-48.14,18.64h0c-.37,0-2.19,.15-5.6,.46-2.19,.2-5.03,.46-5.45,.46h-.42c-3.15,.88-11.38,4.79-11.38,12.08,0,6.04,3.72,13.54,21.51,14.9l11.51,.81c23.46,1.64,52.75,3.68,66.54,8.34,18.75,6.59,31.16,24.47,30.78,44.35,0,30.52-21.7,59.23-58.05,76.78-17.14,8.19-35.9,12.4-54.9,12.32"/>
    <path class="cls-1" d="M844.8,1316.07c-10.28-1.38-17.79-2.78-26.65-6.94-1.74-1.8-2.88-4.09-3.28-6.56-.94-14.33-.94-55.92-.94-83.14,0-22.21-3.72-41.57-13.13-55.47-11.22-15.73-27.11-24.96-47.68-24.96-18.23,0-42.53,12.47-62.62,29.58-.48,.46-3.57,3.39-3.5-1.16s.77-13.78,1.2-19.69c.39-3.18-.74-6.36-3.06-8.58-13.13,6.56-49.95,15.32-63.58,16.65-9.93,1.93-12.45,11.49-1.84,14.79h.15c8.49,2.34,16.6,5.91,24.07,10.59,4.2,3.24,3.74,7.85,3.74,11.55,.46,30.96,.46,78.57-.94,104.45-.46,10.17-3.28,13.87-10.76,15.73l.7-.24c-5.7,1.43-11.48,2.51-17.31,3.24-2.34,2.3-2.34,15.71,0,18.49,4.68,0,28.44-1.38,48.14-1.38,27.09,0,41.11,1.38,48.14,1.38,2.82-3.24,3.74-15.71,1.88-18.49-6.47-.29-12.9-1.22-19.19-2.78-7.46-1.84-9.34-5.56-9.8-13.85-.92-21.75-.92-67.96-.92-99.4,0-8.75,2.32-12.93,5.12-15.32,9.34-8.31,24.79-13.85,38.33-13.85s21.88,4.16,28.44,9.69c7.65,6.67,12.44,16.02,13.39,26.12,1.86,17.5,1.38,52.71,1.38,83.14,0,16.65-1.38,20.83-7.46,22.67-2.8,1.38-10.28,2.78-19.17,3.7-2.8,2.78-1.88,15.71,0,18.49,12.14,0,26.26-1.38,46.74-1.38,25.71,0,42.07,1.38,48.62,1.38,2.8-3.24,3.74-15.32,1.88-18.49"/>
  </g>
</svg>