<?xml version="1.0" encoding="UTF-8"?>
<svg id="Layer_1" data-name="Layer 1" xmlns="http://www.w3.org/2000/svg" xmlns:xlink="http://www.w3.org/1999/xlink" viewBox="0 0 1920 1920">
  <defs>
    <style>
      .cls-1 {
        fill: url(#linear-gradient-2);
      }

      .cls-2 {
        clip-path: url(#clippath-2);
      }

      .cls-3 {
        clip-path: url(#clippath-1);
      }

      .cls-4, .cls-5 {
        fill: #689f63;
      }

      .cls-6 {
        fill: #fafafa;
      }

      .cls-6, .cls-5 {
        fill-rule: evenodd;
      }

      .cls-7 {
        clip-path: url(#clippath);
      }

      .cls-8 {
        fill: none;
      }

      .cls-9 {
        fill: url(#linear-gradient-3);
      }

      .cls-10 {
        fill: url(#linear-gradient);
      }
    </style>
    <clipPath id="clippath">
      <path class="cls-8" d="M697.58,643.7l-182.86,105.54c-6.85,3.95-11.05,11.24-11.05,19.12v211.23c0,7.89,4.2,15.17,11.05,19.12l182.87,105.62c6.84,3.94,15.26,3.94,22.09,0l182.84-105.62c6.81-3.95,11.02-11.24,11.02-19.12v-211.23c0-7.88-4.21-15.17-11.07-19.12l-182.81-105.54c-3.43-1.97-7.25-2.95-11.07-2.95s-7.64,.99-11.07,2.95"/>
    </clipPath>
    <linearGradient id="linear-gradient" x1="-2933.64" y1="3882.82" x2="-2928.43" y2="3882.82" gradientTransform="translate(-550061.76 107276.85) rotate(116.11) scale(115.31 -115.31)" gradientUnits="userSpaceOnUse">
      <stop offset=".3" stop-color="#3e863d"/>
      <stop offset=".5" stop-color="#55934f"/>
      <stop offset=".8" stop-color="#5aad45"/>
    </linearGradient>
    <clipPath id="clippath-1">
      <path class="cls-8" d="M508.21,993.01c1.75,2.27,3.94,4.24,6.51,5.71l156.86,90.6,26.13,15.02c3.91,2.26,8.36,3.21,12.73,2.89,1.46-.12,2.92-.39,4.34-.79l192.85-353.12c-1.48-1.61-3.2-2.95-5.14-4.08l-119.73-69.14-63.29-36.41c-1.8-1.04-3.75-1.78-5.73-2.3l-205.54,351.63Z"/>
    </clipPath>
    <linearGradient id="linear-gradient-2" x1="-2891.09" y1="3855.14" x2="-2887.71" y2="3855.14" gradientTransform="translate(817825.78 245846.53) rotate(-36.46) scale(177.06 -177.06)" gradientUnits="userSpaceOnUse">
      <stop offset=".57" stop-color="#3e863d"/>
      <stop offset=".72" stop-color="#619857"/>
      <stop offset="1" stop-color="#76ac64"/>
    </linearGradient>
    <clipPath id="clippath-2">
      <path class="cls-8" d="M706.42,640.87c-3.07,.3-6.07,1.26-8.83,2.83l-182.33,105.24,196.61,358.11c2.73-.39,5.43-1.3,7.86-2.71l182.86-105.62c5.64-3.27,9.51-8.81,10.68-15.09l-200.43-342.4c-1.48-.29-2.95-.44-4.47-.44-.61,0-1.22,.03-1.82,.09"/>
    </clipPath>
    <linearGradient id="linear-gradient-3" x1="-2883.81" y1="3870.4" x2="-2880.75" y2="3870.4" gradientTransform="translate(375091.15 503597.01) scale(129.89 -129.89)" gradientUnits="userSpaceOnUse">
      <stop offset=".16" stop-color="#6bbf47"/>
      <stop offset=".38" stop-color="#79b461"/>
      <stop offset=".47" stop-color="#75ac64"/>
      <stop offset=".7" stop-color="#659e5a"/>
      <stop offset=".9" stop-color="#3e863d"/>
    </linearGradient>
  </defs>
  <path class="cls-4" d="M948.98,1547.95c-6.34,0-12.63-1.66-18.19-4.86l-57.89-34.27c-8.65-4.84-4.43-6.55-1.58-7.53,11.53-4.04,13.87-4.95,26.17-11.94,1.29-.74,2.99-.48,4.31,.3l44.47,26.39c1.61,.87,3.88,.87,5.37,0l173.39-100.09c1.61-.91,2.65-2.78,2.65-4.69v-200.09c0-2-1.04-3.78-2.68-4.77l-173.32-100c-1.61-.95-3.73-.95-5.34,0l-173.29,100c-1.68,.95-2.75,2.82-2.75,4.73v200.09c0,1.91,1.04,3.73,2.69,4.64l47.48,27.43c25.78,12.89,41.54-2.3,41.54-17.58v-197.48c0-2.82,2.21-4.99,5.03-4.99h21.96c2.73,0,4.99,2.17,4.99,4.99v197.57c0,34.37-18.75,54.12-51.35,54.12-10.03,0-17.93,0-39.97-10.85l-45.49-26.22c-11.24-6.51-18.19-18.66-18.19-31.64v-200.09c0-13.02,6.94-25.17,18.19-31.6l173.57-100.13c10.98-6.21,25.56-6.21,36.46,0l173.35,100.17c11.2,6.47,18.19,18.58,18.19,31.6v200.09c0,12.98-6.99,25.09-18.19,31.6l-173.35,100.13c-5.56,3.21-11.85,4.86-18.27,4.86"/>
  <path class="cls-4" d="M1002.54,1410.08c-75.87,0-91.77-34.83-91.77-64.04,0-2.78,2.24-4.99,5.02-4.99h22.4c2.47,0,4.56,1.8,4.95,4.24,3.39,22.82,13.45,34.33,59.33,34.33,36.54,0,52.08-8.26,52.08-27.63,0-11.15-4.43-19.44-61.2-25-47.48-4.69-76.82-15.15-76.82-53.12,0-34.98,29.51-55.82,78.95-55.82,55.51,0,83.03,19.27,86.5,60.68,.13,1.43-.39,2.82-1.35,3.86-.95,1-2.3,1.61-3.69,1.61h-22.53c-2.34,0-4.38-1.65-4.86-3.91-5.43-24-18.53-31.68-54.17-31.68-39.89,0-44.53,13.89-44.53,24.31,0,12.63,5.47,16.32,59.29,23.44,53.3,7.07,78.6,17.06,78.6,54.51s-31.51,59.42-86.46,59.42"/>
  <path class="cls-6" d="M412.05,765.06c0-7.99-4.21-15.32-11.1-19.29l-183.84-105.77c-3.1-1.82-6.58-2.78-10.1-2.91h-1.9c-3.52,.13-7,1.09-10.16,2.91L11.12,745.76c-6.85,3.99-11.12,11.33-11.12,19.31l.4,284.89c0,3.95,2.04,7.64,5.51,9.59,3.39,2.08,7.64,2.08,11.02,0l109.29-62.59c6.9-4.11,11.11-11.36,11.11-19.27v-133.09c0-7.94,4.21-15.28,11.09-19.23l46.53-26.8c3.45-2,7.25-2.99,11.11-2.99s7.68,.98,11.04,2.98l46.51,26.79c6.88,3.95,11.11,11.28,11.11,19.23v133.09c0,7.9,4.27,15.19,11.13,19.27l109.22,62.54c3.43,2.04,7.7,2.04,11.11,0,3.37-1.95,5.5-5.64,5.5-9.59l.36-284.85Zm867.48,148.33c0,1.98-1.05,3.82-2.78,4.8l-63.14,36.4c-1.71,.99-3.83,.99-5.54,0l-63.15-36.4c-1.74-.99-2.78-2.82-2.78-4.8v-72.9c0-1.99,1.04-3.82,2.73-4.82l63.11-36.46c1.74-1,3.86-1,5.6,0l63.15,36.46c1.74,1,2.78,2.83,2.78,4.82l.02,72.9Zm17.06-539.94c-3.45-1.92-7.64-1.87-11.04,.12-3.39,2-5.48,5.64-5.48,9.59v282.12c0,2.78-1.48,5.34-3.88,6.73-2.39,1.39-5.36,1.39-7.77,0l-46.05-26.52c-6.86-3.97-15.3-3.97-22.19,0l-183.9,106.13c-6.87,3.95-11.11,11.28-11.11,19.18v212.33c0,7.94,4.24,15.23,11.11,19.23l183.9,106.21c6.87,3.95,15.32,3.95,22.21,0l183.9-106.25c6.86-3.99,11.11-11.28,11.11-19.23V453.92c0-8.06-4.38-15.46-11.41-19.4l-109.4-61.06Zm612.38,465.12c6.83-3.97,11.04-11.29,11.04-19.19v-51.46c0-7.92-4.21-15.22-11.05-19.21l-182.72-106.08c-6.9-3.99-15.36-3.99-22.27,0l-183.85,106.12c-6.9,3.99-11.11,11.28-11.11,19.23v212.24c0,7.99,4.3,15.36,11.2,19.31l182.68,104.12c6.73,3.86,14.97,3.91,21.79,.13l110.5-61.41c3.47-1.95,5.69-5.64,5.69-9.64s-2.13-7.73-5.6-9.68l-184.98-106.16c-3.47-1.95-5.6-5.64-5.6-9.59v-66.58c0-3.98,2.08-7.64,5.56-9.62l57.55-33.2c3.43-2,7.64-2,11.07,0l57.6,33.2c3.43,1.95,5.56,5.64,5.56,9.59v52.34c0,3.95,2.13,7.64,5.56,9.64,3.43,1.95,7.68,1.95,11.11-.04l110.3-64.07Z"/>
  <path class="cls-5" d="M1712.4,828.64c1.3-.77,2.93-.77,4.25,0l35.29,20.36c1.32,.76,2.13,2.17,2.13,3.69v40.76c0,1.52-.81,2.93-2.13,3.69l-35.29,20.36c-1.32,.77-2.95,.77-4.25,0l-35.26-20.36c-1.35-.76-2.17-2.17-2.17-3.69v-40.76c0-1.52,.78-2.93,2.13-3.69l35.31-20.36Z"/>
  <g class="cls-7">
    <path class="cls-10" d="M1098.33,731.32l-515.25-252.56L318.89,1017.71l515.24,252.57,264.2-538.96Z"/>
  </g>
  <g class="cls-3">
    <path class="cls-1" d="M285.43,806.02l363.82,492.42,481.16-355.49-363.84-492.4-481.14,355.48Z"/>
  </g>
  <g class="cls-2">
    <path class="cls-9" d="M515.25,640.79v466.27h397.93v-466.27h-397.93Z"/>
  </g>
</svg>