<?xml version="1.0"?>
<svg xmlns="http://www.w3.org/2000/svg" width="133" height="40" viewBox="0 0 133 40" fill="none">
<path fill-rule="evenodd" clip-rule="evenodd" d="M20 40C31.0457 40 40 31.0457 40 20C40 8.95431 31.0457 0 20 0C8.95431 0 0 8.95431 0 20C0 27.7059 4.35806 34.3939 10.7439 37.7338L10.7563 37.5L10.2937 28.75H15.5635C15.5635 28.75 15.0563 32.7519 15.0563 37.5C15.0563 38.147 15.0662 38.7801 15.0832 39.3911C16.6562 39.7888 18.3034 40 20 40ZM21.6978 13.2227C19.6048 14.4311 18.5004 16.4468 18.0702 17.4053L15.0657 19.8605C15.0596 19.4961 15.0563 19.1254 15.0563 18.75C15.0563 14.0019 15.5878 10 15.5878 10H10.2937C10.2937 10 10.7563 14.0019 10.7563 18.75C10.7563 23.4981 10.2937 27.5 10.2937 27.5H15.5878C15.5878 27.5 15.1921 24.5205 15.0836 20.6531L15.5722 20.2538C16.0054 20.8403 17.1721 22.1475 19.2701 22.6787C22.0148 23.3737 27.0398 22.9143 27.0398 22.9143C27.0398 22.9143 22.7707 20.3882 20.026 19.6932C18.4451 19.293 17.1423 19.4425 16.3217 19.6413L18.3609 17.9749C19.3388 18.0051 21.581 17.9299 23.7838 16.8357C26.7144 15.3799 32.4669 9.50599 32.4669 9.50599C32.4669 9.50599 24.5175 11.5948 21.6978 13.2227Z" fill="#FF504D"/>
<path fill-rule="evenodd" clip-rule="evenodd" d="M76.8435 27.158L76.842 27.1563C75.7499 25.7835 75.2129 23.8766 75.2129 21.4534C75.2129 20.2579 75.3825 19.1777 75.7242 18.2145L75.7251 18.2121C76.0854 17.253 76.5573 16.4397 77.1426 15.7748C77.7264 15.1116 78.3924 14.5974 79.1405 14.2341L79.1418 14.2335C79.9095 13.8705 80.6996 13.6881 81.5108 13.6881C82.3551 13.6881 83.0785 13.8384 83.6751 14.1461C84.1775 14.3883 84.6779 14.7113 85.1764 15.1138L85.0738 13.0912V8.91891H88.7564V28.8344H85.6854L85.4559 27.3167C84.9332 27.8207 84.3304 28.2522 83.6483 28.6115C82.918 28.9963 82.1457 29.1892 81.3331 29.1892C79.4592 29.1892 77.9577 28.513 76.8435 27.158ZM83.6553 17.0314L83.6535 17.0308C83.1949 16.8591 82.7277 16.7735 82.2511 16.7735C81.3511 16.7735 80.59 17.1637 79.9614 17.9622C79.3362 18.7565 79.0139 19.904 79.0139 21.4239C79.0139 22.9867 79.2883 24.1566 79.8186 24.9517C80.3628 25.7189 81.1378 26.1037 82.1623 26.1037C83.1834 26.1037 84.1536 25.602 85.0738 24.5641V17.9098C84.5864 17.487 84.1134 17.1961 83.6553 17.0314ZM50 14.0428H53.0782L53.3025 16.4782C53.801 15.6188 54.3975 14.9512 55.0942 14.4811C55.8438 13.9555 56.6209 13.6881 57.4232 13.6881H58.924V17.01H57.5393C56.6586 17.01 55.9683 17.1215 55.2535 17.6344L55.2511 17.6361C54.6554 18.0449 54.1294 18.7773 53.6826 19.855V28.8344H50V14.0428ZM91.3458 28.8344V26.82L98.091 17.01H91.3458V14.0428H102.757V16.0275L96.041 25.8377H102.757V28.8344H91.3458ZM119.478 28.8344V14.0428H122.552L122.783 15.9424C123.415 15.3432 124.092 14.825 124.816 14.388L124.817 14.3871C125.611 13.9198 126.524 13.6881 127.552 13.6881C129.143 13.6881 130.327 14.2025 131.071 15.2536C131.805 16.272 132.163 17.7241 132.163 19.5911V28.8344H128.48V20.0345C128.48 18.8376 128.301 18.0285 127.973 17.5733C127.652 17.1281 127.119 16.8918 126.338 16.8918C125.731 16.8918 125.195 17.043 124.725 17.343L124.724 17.3438C124.272 17.6256 123.751 18.0483 123.16 18.6154V28.8344H119.478ZM61.7822 27.9974L61.7809 27.9962C60.9552 27.1781 60.5464 26.106 60.5464 24.7938C60.5464 24.0057 60.7097 23.3026 61.0403 22.6884L61.0411 22.687C61.3925 22.0521 61.9279 21.5136 62.6406 21.0697L62.6421 21.0688C63.372 20.6269 64.2798 20.258 65.3624 19.96L65.363 19.9598C66.4338 19.6705 67.7 19.4475 69.1607 19.29C69.1355 18.9739 69.0804 18.6737 68.9959 18.389L68.9945 18.3844L68.9935 18.3798C68.9185 18.0454 68.7788 17.7608 68.5758 17.5231L68.5721 17.5188L68.5688 17.5142C68.3862 17.2609 68.1392 17.0695 67.8233 16.9407L67.8201 16.9394L67.817 16.9379C67.5023 16.7912 67.1059 16.7144 66.6225 16.7144C65.9249 16.7144 65.2362 16.8487 64.5558 17.1183C63.8866 17.3913 63.2268 17.723 62.5763 18.1136L62.453 18.1877L61.0674 15.6708L61.1781 15.6012C62.0027 15.0832 62.9265 14.6357 63.9489 14.2583C64.9799 13.8778 66.0903 13.6881 67.2789 13.6881C69.1362 13.6881 70.5435 14.2391 71.4724 15.3632C72.4163 16.4617 72.8775 18.0458 72.8775 20.0936V28.8345H69.7851L69.552 27.2753C68.9112 27.8034 68.2239 28.2493 67.4903 28.6128C66.7338 28.9975 65.9067 29.1892 65.0113 29.1892C63.6889 29.1892 62.608 28.7951 61.7822 27.9974ZM67.6592 25.8551C68.1312 25.5932 68.6345 25.22 69.1692 24.7328V21.6986C68.2476 21.814 67.4718 21.9641 66.8402 22.1481C66.1711 22.3431 65.6366 22.5655 65.2329 22.8131L65.2308 22.8144L65.2287 22.8156C64.826 23.0436 64.5491 23.3036 64.3859 23.5911C64.2184 23.8861 64.1354 24.1976 64.1354 24.5278C64.1354 25.1492 64.3241 25.5738 64.6762 25.8355C65.0448 26.1094 65.521 26.2515 66.1152 26.2515C66.6897 26.2515 67.2025 26.119 67.6571 25.8563L67.6592 25.8551ZM108.489 28.6774L108.486 28.6764C107.601 28.3148 106.825 27.8021 106.161 27.1385C105.495 26.4739 104.972 25.6696 104.59 24.7276L104.589 24.7243C104.227 23.7601 104.047 22.6691 104.047 21.4534C104.047 20.2563 104.237 19.1744 104.62 18.2097C105 17.2498 105.503 16.4361 106.128 15.7714L106.13 15.7698C106.774 15.107 107.509 14.594 108.335 14.2318C109.161 13.8698 110.009 13.6881 110.878 13.6881C111.881 13.6881 112.769 13.8583 113.541 14.2027C114.309 14.546 114.949 15.0318 115.457 15.66C115.983 16.2866 116.376 17.0326 116.637 17.8955C116.898 18.7576 117.028 19.6975 117.028 20.7144C117.028 21.0531 116.973 21.6742 116.973 21.6742C116.973 21.6742 116.918 22.2137 116.877 22.3999L116.853 22.5084H107.66C107.832 23.7088 108.268 24.6292 108.958 25.283C109.699 25.9459 110.641 26.2811 111.796 26.2811C112.414 26.2811 112.981 26.1944 113.498 26.0226C114.04 25.8292 114.574 25.5679 115.098 25.2381L115.223 25.1595L116.509 27.5298L116.403 27.5997C115.702 28.0598 114.921 28.439 114.063 28.7381C113.199 29.0389 112.295 29.1892 111.352 29.1892C110.33 29.1892 109.375 29.019 108.489 28.6774ZM113.077 17.5166L113.076 17.5147C112.635 16.9091 111.942 16.5962 110.967 16.5962C110.135 16.5962 109.408 16.8875 108.782 17.4751C108.189 18.0312 107.802 18.8429 107.633 19.9255H113.788C113.769 18.8887 113.527 18.0914 113.079 17.5185L113.077 17.5166Z" fill="white"/>
</svg>
