<?xml version="1.0" encoding="UTF-8"?>
<svg id="Layer_1" data-name="Layer 1" xmlns="http://www.w3.org/2000/svg" viewBox="0 0 1920 1920">
  <defs>
    <style>
      .cls-1 {
        fill: #c00;
      }
    </style>
  </defs>
  <path class="cls-1" d="M19.22,1809.35c-.28-2.19-.79-4.37-.8-6.56-.05-42.37-.04-84.75-.04-127.12,0-119.77,0-239.54,0-359.31,0-2.38,0-4.75,0-7.64,1.88-.13,3.4-.33,4.92-.33,9.6-.03,19.19-.01,28.79-.01,74.38,0,148.76,.12,223.14-.11,12.31-.04,24.17,1.62,35.91,4.99,28.74,8.24,54.61,21.7,76.24,42.56,24.16,23.3,38.34,51.96,44.53,84.75,4.37,23.11,4.64,46.34,2.22,69.69-2,19.35-6.07,38.21-13.8,56.09-19.13,44.27-52.15,72.1-99.26,83.01-2.17,.5-4.35,.95-6.52,1.45-.13,.03-.22,.22-.57,.59,.74,.89,1.45,1.88,2.29,2.74,12.12,12.31,24.22,24.62,36.38,36.88,24.9,25.08,49.84,50.12,74.74,75.2,12.95,13.05,25.86,26.14,38.73,39.28,1.03,1.05,1.58,2.58,2.36,3.89h-198.72c-1.05-1.38-1.97-2.87-3.16-4.12-5.07-5.32-10.22-10.56-15.32-15.85-16.86-17.47-33.7-34.97-50.57-52.43-14.54-15.05-29.1-30.09-43.67-45.11-.9-.93-1.96-1.7-3.56-3.08v6.21c0,36.11,.01,72.23-.04,108.34,0,2.01-.52,4.03-.8,6.04H19.22Zm134.5-261.37c1.26,.13,2.04,.29,2.81,.29,33.89,.01,67.78,.04,101.67-.06,1.95,0,4.1-.74,5.82-1.72,8.88-5.03,15.65-12.27,19.97-21.41,10.35-21.85,10.53-44.12,1.27-66.35-3.96-9.51-10.55-17.06-19.34-22.59-2.5-1.57-5.08-2.35-8.11-2.35-33.09,.08-66.18,.05-99.27,.06-1.54,0-3.08,.18-4.82,.29v113.84Z"/>
  <path class="cls-1" d="M501.13,1809.35c-.01-32.63-.03-65.25-.03-97.88,0-87.97,.19-175.94-.11-263.9-.09-27.92,7.67-53.29,22.11-76.78,14.23-23.16,33.75-40.33,59.25-50.32,11.99-4.7,24.42-7.53,37.28-8.22,7.5-.4,15.02-.63,22.53-.64,41.76-.06,83.54-.9,125.27,.22,41.26,1.1,76.95,16.34,104.35,48.14,14.81,17.19,22.83,37.63,25.63,60,1.23,9.8,1.75,19.75,1.76,29.64,.12,117.72,.08,235.43,.05,353.15,0,2.2-.42,4.4-.65,6.6h-131.52c-.22-1.88-.64-3.76-.65-5.64-.04-25.56-.03-51.13-.03-76.69v-5.49c-6.71-1-124.76-.74-128.64,.31v5.56c0,25.09,0,50.17-.01,75.26,0,2.23-.18,4.46-.27,6.69h-136.32Zm264.67-230.49v-6.14c0-19.5,0-39,0-58.5,0-17.58,.04-35.16-.01-52.74-.04-13.4-7.2-23.87-19.86-28.06-5.23-1.73-10.9-2.85-16.4-2.96-17.58-.37-35.17-.27-52.76-.08-8.53,.09-16.91,1.52-24.5,5.71-9.66,5.34-15.2,13.18-15.16,24.71,.13,37.72,.05,75.44,.06,113.16,0,1.56,.14,3.11,.23,4.9h128.4Z"/>
  <path class="cls-1" d="M1543.68,1809.35c-.28-1.38-.8-2.75-.8-4.13-.04-39.98-.04-79.97-.03-119.95,0-.94,.11-1.88,.19-3.23,1.47-.13,2.84-.34,4.21-.35,14.88-.1,29.75-.21,44.63-.25,47.19-.14,94.38-.26,141.57-.4,12.48-.04,24.95-.13,37.43-.2,1.25,0,2.5,0,4.1,0v-61.61c-1.92,0-3.78,0-5.65,0-32.8,0-65.59,.03-98.39,0-37.75-.05-70.38-13.22-97.56-39.24-19.17-18.35-30.95-40.96-35.31-67.17-1.33-8-1.87-16.2-2.02-24.32-.3-16.31-.56-32.64,.02-48.94,1.58-44.12,21.1-78.65,57.21-103.79,18-12.53,38.03-20.22,59.78-23.18,4.74-.65,9.56-.97,14.34-.97,70.55-.06,141.11-.04,211.66-.04h4.25c.62,.44,.77,.51,.87,.63,.1,.11,.22,.27,.22,.41,.12,40.13,.24,80.26,.34,120.39,0,1.6-.03,3.2-.12,4.79-.02,.44-.32,.86-.66,1.73h-225.16c-1.05,3.94-1.23,53.08-.22,58.86h5.45c35.84,0,71.68-.11,107.51,.03,34.74,.13,65.13,11.92,90.8,35.27,21.6,19.64,34.27,44.27,39.07,73,.49,2.93,.86,5.88,1.28,8.82v72.94c-.31,1.02-.85,2.03-.91,3.07-.78,14.21-4.46,27.75-10.37,40.56-19.28,41.77-53.02,64.92-97.14,74.38-5.11,1.1-10.28,1.95-15.42,2.91h-235.2Z"/>
  <path class="cls-1" d="M1162.57,1809.35c-.01-4-.03-7.99-.03-11.99,0-159.47,0-318.93,0-478.4v-7.03h141.68v368.16c63.96,0,127.37,0,191.09,0,.16,1.59,.4,2.81,.4,4.03,0,41.74,0,83.49-.02,125.23h-333.12Z"/>
  <path class="cls-1" d="M961.93,1809.35c-.1-2.07-.27-4.15-.27-6.22-.01-161.7-.01-323.39-.01-485.09,0-1.9,0-3.79,0-5.56,3.79-1.08,134.93-1.4,142.4-.37v128.76c0,119.79,0,239.59,0,359.38,0,3.04-.02,6.07-.03,9.11h-142.08Z"/>
  <path class="cls-1" d="M1036.81,110.72c4.81,14.88,9.62,29.75,14.42,44.63,.48,1.5,.93,3.01,1.47,4.74-26.46,1.09-52.66,2.17-79.49,3.28-4.95-15.35-10.07-31.24-15.34-47.58,5.96-.69,11.45-1.53,16.98-1.93,11.94-.88,23.9-1.51,35.85-2.3,1.35-.09,2.68-.55,4.02-.84,7.36,0,14.72,0,22.08,0Z"/>
  <path class="cls-1" d="M1878.98,575.09c-9.45,7.31-18.78,14.52-28.4,21.96-1.43-.98-3-2-4.51-3.1-53.83-39.5-109.76-75.67-168.72-107.08-49.45-26.35-100.51-48.98-153.71-66.68-39.8-13.23-80.35-23.44-121.8-29.95-24.02-3.77-48.18-6.18-72.49-7.33-21.44-1.01-42.85-.87-64.24,.48-35.81,2.26-71.14,7.74-105.94,16.6-40.72,10.37-79.64,25.46-117.62,43.32-29.61,13.92-57.86,30-84.49,48.99-67.55,48.16-121.08,108.77-161.33,181.2-27.25,49.04-47.11,101-61.28,155.2-9.27,35.45-15.99,71.38-20.48,107.74-3.53,28.57-6.18,57.21-6.69,86-.41,23.81-.78,47.64-.31,71.44,.58,30.05,2.74,60.04,6.48,89.86,2.76,22.02,6.6,43.91,9.96,65.85,.12,.78,.18,1.57,.31,2.71H75.89c.47-4,.83-7.91,1.4-11.79,9.26-63.24,24.91-124.98,44.17-185.85,22.84-72.18,51.1-142.21,84.36-210.22,29.25-59.81,61.67-117.82,98.72-173.18,38.78-57.93,82.12-112.25,129.8-163.12,47.23-50.4,98.04-96.87,152.95-138.8,49.92-38.13,102.47-72.11,158.54-100.56,43.57-22.11,88.58-40.54,135.65-53.81,26.96-7.59,54.3-13.49,82.14-16.54,18.9-2.07,37.89-3.56,56.89-4.34,19.32-.8,38.7-.92,58.03-.41,25.41,.67,50.73,2.93,75.97,6.1,59.64,7.5,117.87,21.14,175.04,39.55,65.25,21.01,128,47.95,188.86,79.39,93.07,48.09,180.05,105.54,262.11,170.54,31.73,25.13,62.52,51.37,91.98,79.14,2.18,2.06,4.19,4.3,6.5,6.68Z"/>
  <path class="cls-1" d="M18.28,921.25c12.82-33.49,26.75-65.86,41.08-98.46,31.42,11.47,62.56,22.83,94.14,34.36-13.73,32.81-27.36,65.39-41.18,98.42-31.22-11.4-62.36-22.76-94.05-34.32Z"/>
  <path class="cls-1" d="M758.48,1191.97c-5.59-34.26-8.46-68.28-9.82-103.31,29.8,10.55,58.9,21.23,88.52,31.87,4.62,35.5,11.49,70.68,19.71,106.68-33.37-11.95-65.74-23.54-98.41-35.24Z"/>
  <path class="cls-1" d="M282.14,500.94c20.58-20.82,40.56-41.03,60.81-61.52,19.71,17.2,38.94,33.97,58.06,50.66-18.61,21.64-37.08,43.12-55.81,64.9-20.67-17.71-41.49-35.55-63.06-54.04Z"/>
  <path class="cls-1" d="M844.63,836.7c-8,31.38-13.75,62.89-17.19,95.35-1.22-.66-2.2-1.01-2.97-1.62-20.33-16.02-40.61-32.09-60.97-48.06-1.93-1.51-2.45-2.98-1.93-5.29,6.34-27.86,13.19-55.58,22.43-82.65,.45-1.32,1.04-2.6,1.75-4.33,19.8,15.67,39.31,31.11,58.89,46.6Z"/>
  <path class="cls-1" d="M967.75,616.92c-17.56,18.39-33.95,37.13-48.48,58.31-13.28-19.91-26.26-39.37-39.4-59.07,15.38-19.77,32.18-37.84,50.9-55.03,12.43,18.75,24.58,37.09,36.98,55.8Z"/>
  <path class="cls-1" d="M674.77,190.33c12.32,18.88,24.44,37.45,36.62,56.13-20.97,12.05-41.77,24.01-63.12,36.27-12.34-18.77-24.75-37.64-37.5-57.02,20.93-12.65,42.13-23.93,64-35.38Z"/>
  <path class="cls-1" d="M1350.12,159.21c27.35,8.02,54.03,15.93,79.53,28.47-1.08,18.19-2.15,36.16-3.26,54.93-13.53-4.83-26.31-10.36-39.41-15.03-13.22-4.71-26.41-9.49-40.15-14.43,1.08-17.68,2.16-35.42,3.28-53.95Z"/>
  <path class="cls-1" d="M1103.07,519.3c-6.38-19.16-12.53-37.6-18.84-56.55,23.48-10.46,47.27-18.96,72.19-26.26,6.04,18.09,11.97,35.85,18.06,54.07-24.62,7.81-47.97,17.56-71.4,28.75Z"/>
  <path class="cls-1" d="M1345.18,468.41c1.1-17.31,2.18-34.25,3.29-51.61,27.51,1.73,54.2,5.04,81.16,10.67-1.09,16.9-2.16,33.57-3.27,50.77-26.91-5.56-53.71-8.96-81.18-9.83Z"/>
</svg>