<svg xmlns="http://www.w3.org/2000/svg" fill="none" height="100%" viewBox="0 0 48 48"><title>Radzen Logo</title><g clip-rule="evenodd" fill-rule="evenodd"><path d="m24 48c13.2548 0 24-10.7452 24-24s-10.7452-24-24-24-24 10.7452-24 24c0 9.2471 5.22967 17.2727 12.8927 21.2806l.0149-.2806-.5552-10.5h6.3238s-.6086 4.8023-.6086 10.5c0 .7764.0118 1.5361.0323 2.2694 1.8876.4771 3.8642.7306 5.9001.7306zm2.0374-32.1328c-2.5116 1.4501-3.8369 3.8689-4.3532 5.0192l-3.6053 2.9462c-.0073-.4373-.0113-.8822-.0113-1.3326 0-5.6977.6378-10.5.6378-10.5h-6.353s.5552 4.8023.5552 10.5c0 5.6978-.5552 10.5-.5552 10.5h6.353s-.4749-3.5753-.6051-8.2163l.5863-.4792c.5199.7038 1.9199 2.2725 4.4375 2.9099 3.2937.834 9.3236.2827 9.3236.2827s-5.1228-3.0313-8.4165-3.8652c-1.8971-.4803-3.4604-.3009-4.4452-.0623l2.4471-1.9997c1.1734.0362 3.8641-.054 6.5075-1.3671 3.5167-1.7469 10.4197-8.7956 10.4197-8.7956s-9.5394 2.5065-12.9229 4.46z" fill="#ff504d" class="rz-theme-logo"></path></g></svg>