<?xml version="1.0" encoding="UTF-8"?>
<svg id="Layer_1" data-name="Layer 1" xmlns="http://www.w3.org/2000/svg" viewBox="0 0 1920 1920">
  <defs>
    <style>
      .cls-1 {
        fill: #0a0a0a;
      }
    </style>
  </defs>
  <path d="M1554.5,1492c1.93,0,1.93-3,0-3s-1.93,3,0,3h0Z"/>
  <path class="cls-1" d="M1917.68,67.89c1.5-22.77,10.23-50.18,3.13-71.94-5.28,27.63-40.89,53.63-16.16,78.11,.79-4.06,8.44-.32,6.65,3.44-7.98,12.24-26.14-16.36-32.17-.32,10.91,11.24,14.58,16.52,30.55,16.72-1.26,6.82,5.26,9.56,4,16.38-4.42-6.08-8.18-3.97-15.81-2.94,7.87,8.98-2.06,10.34,5.81,19.32-6.75,.9-3.93,13.06-9,8.67,49.79,42.64-38.03-.77,15.56,37.81-61.88-4.08,30.42,36.6-22.88,31.74-5.46-1.48-9.35-7.09-8.68-12.52,5.9,21.77-17.57-2.77-29.63,12.17,25,3.93-4.88,36.34,33.75,10.26-.13,7.68,8.95,14.05,16.5,11.58-6.38,3.49-14.83,3.11-20.84-.94-3.28,6.15,2.63,14.76,9.79,14.25-.52,8.07-10.01,14.35-18.02,11.93,2.19,7.17,7.3,13.46,13.99,17.24-6.15-3.31-13.46,6.99-8.02,11.3-37,39.1-30.6-38.59-36.05,18.59-18.86-10.86,8.86,13.43-37.24,11.42,29.73,13.65,3.56,2.38,10.33,20.93,9.6-8.26,21.98,6.8,25.31,18.77,9.11,12.24-43.85-17.63-9.02,14.83-42.59,15.3,47.71,16.74-52.04,24.01,18.8,21.32,54.09,13.81,81.46,4.48,6.54,16.01,14.07,17.36-6.59,23.93,3.94,3.98,9.38,6.56,15.05,7.12-8.84,10.37-.47,29.08,13.42,30.02-9.93,22-18.96,10.8-35.74,2.16-14.97,20.51-12.24-5-18.25-17.13-12.74,15.8-8.09,25.98-24.63,7.17-15.34,3.48-91.44-46.15-63.39-17.05-6.09-4.85-16.98-1.36-18.86,6.03,16-1.76,32.71,4.27,43.57,15.72-54.04,19.28,20.31-3.42,1.31,34.87,32.38-6.55,42.59-19.1,44.57,18.13,8.27-3.05,16.53-6.1,24.8-9.14-5.87,2.35,1.83,10.04,8.13,10.86,17.91,2.36,35.82,4.71,53.73,7.07-19.83,9.94-42.9,13.77-65.05,10.8,26.26,13.45,33.12,34.84-2.19,16.06,32.92,38.81,19.18,22.01,27.1,64.99,11.66-31.52,24.86,.3,41.77,12.68-23.9-4.16-58.07-3.2-68.19-28.37,3.63,20.94,5.15,40.52,27.5,49.83-30.63-9.71-30.77-6.06-23.88,19.59-30.61,10.59-60.85-40.67-90.89-20.59,.09,6,7.53,9.17,13.74,9.52,42.1,.7-1.27,20.45,36.69,14.1,4.77,12.74,3.86,29.18,21.79,27.14-22.36-2.11-44.72-4.22-67.08-6.33,35.93,22.33,81.88,29.1,123.1,18.13-.31,26.54-64.09,9.61-58.14,39.72-22.67-1.19-28.12-24.39-40.18-2.2,2.62-5.19-.68-12.29-6.44-13.85-5.76-1.56-12.43,2.83-13,8.57-17.36-12.84-11.95-17.18,6.53-21.96-11.92,2.66-24.77,1.3-35.8-3.78-5.91,9.15-23.62,5.78-25.47-4.85,7.93,2.21,17.1-4.31,17.25-12.26-10.79,24.05-36.96-.79-36.39-19.24-11.32,32.74-11.22,2.83-35.87,3.86,28.67,26.81-22.11-1.66-41.18,8.42,19.92,10.28,41.11,18.28,62.99,23.77-24.75,7.8-33.44,20.58-2.12,15.04,4.67,52.97,58.34-22.94,25.13,37.96,11.75-12.94,47.19-10.77,35.8,10.98,8.86-.31,17.78,3.51,23.5,10.04-58.63,3.73-22.18,7.84,11.96,20.76-12.41,18.7-46.09,11.79-25.37,39.32-16.77-8.87-27.79-26.34-25.51,1.7-20.67-25.88-56.47-17.57-80.27-31.76-3.19,17.84,15.59,35.89,34.11,32.77-9.71-.47-6.08,15.22,1.78,20.74,21.86,17.33,1.47,24.69,30.89,13.08-12.44,17.59-32.24,19.95-5.1,33.27,8.87,2.95,8.91,19.83-1.08,12.32,3.78,9.58,18.09,13.4,26.45,7.06-31.12,29.99,32.51,5.05,56.42,7.7-18.51,11.53-40.42,17.94-62.46,18.25,19.59,7.22,42.73,4.75,60.22-6.41,2.96,9.96-2.98,10.84-9.44,19.12,6,1.93,19-.96,15.08,10.94-1.57,4.78,11.63-7.51,8.92-3.24,30.39-7.22-17.19,25.34-31.04,29.8,15.78,17.98,48.07-13.73,24.21,15.4,26.16-3.35,64.42-48.1,83.8-12.48-34.67,38.98-165-8.13-138.65,24.12-27.82-2.11-73.82-82.62-84.25-50.37,18.85-26.88-23.5-31.36-19.74-58.65-8.62,22.87,4.12,39.84-27.9,26.18-23.27,19.77-2.67,8.28,8.07,25.05-45.04,1.11-27.17,21.36,3.94,34.57-6.71,5.02-12.53,11.15-17.11,18.05,19.46,3.39,18.52,11.47,11.31,27.6,18.48-1.15,37.27,7.66,47.74,22.37-19.57,1.37-24.42,.24-26.32,18.76,22.17,4.31,73.52-20.93,40.08,10.33,19.56,2.59,18.73-5.95,27.53,13.54,26.73-21.39,30.27-18.33,21.95,14.22,25.45-5.27,14.41,14.04-5.62,12.02-8.86-7.29-13.03-14.51-26.06-8.86-16.39,3.07-34.39-5.17-42.25-19.36-13.74,.71-27.65-5.95-35.37-16.93-6.1,6.68-18.65,6.19-24.18-.94,.09-5.29-26.53-2.08-35.34-4.31,5.97,2.49,11.94,4.98,17.92,7.47-9.26-13.57-28.63-19.8-44.49-14.31-13.27-33.88-32.29-74.36-31.75-9.51,24.13,2.37,28.32,33.5,55.73,30.83-17.51,15.92-30.59,18.36-.79,16.48,17.93,18.89,39.92,25.66,68.06,12.51-35.99,30.7-4.37,42.05,24.05,17.46-14.67,28.89,7.13,12.4,29.96,12.26-31.41,33.04,4.07,43.69,27.04-2.88-37.97,46.46,12,32.71-30.98,46.87,29.24,7.04,59.26,14.14,89.2,10.83-12.75,6.25-23.73,15.83-31.45,27.44,15.12-1.74,39.71,6.82,31.71,24.69-45.22-27.55-73.5-2.51-9.51,13.88-19.23,8.93-38.45,17.84-57.67,26.76,8.7-9.23,5.85-26.04-5.43-32.14,.69,7.01-7.72,13.24-14.57,10.79,3.79,17.54-7.51,14.41-10.25,26.74-1.62-13.12-6.37-16.06-16.34-6.68-12.66-8.1-15.69-32.52-27.68-9.7,5.86-20.02-7.55-16.03-13.73-1.06-2.02-16.17-21.27-8.35-32.97-20.41-49.13-22.99-10.49,35.6-37.87,31.17,11.82,18.93,58.2,11.93,49.94,49.14,6.04-4.63,16.5,3.11,13.42,9.91,19.04-19.72,46.03-5.51,15.73,11.56,16.85,14.12,44.18-6.8,24.39,17.24,25.37-9.76,53.01,11.92,21.84,28.76,9.82,3.61,17.91,11.34,21.74,20.76-28.89,12.58-17.64-31.46-39.1-41.78-23.34,21.86-17.22-33.77-43.77,16.97-3.44-23.9-34.34-4.13-48.97-7.64-12.04-3.13-16.57-20.5-7.51-28.74-26,20.6-46.35-2.32-77.91,8.15,20.27,13.71,57.87,19.02,20.29,37.01,20.99,28.22,98.27,15.24,36.14,37.28,21.39,7.57,46.93,2.84,63.89-11.81-17.82,16.77-11.07,23.86,8.74,33.54-8.05,23.11-68.57,13.35-34.9,38.98-18.95-7.48-8.07,6.32-6.01,17.28-18.72-15.7-39.21-18.39-17.09-39.13-9.02-9.1-28.23-2.73-29.52,9.79-38.15-35.11-94.56,.48-19.33,4.76-15.62,20.9-30.61,46.01,8.21,29.09-11.85-1.45-23.85,8.36-24.28,19.86,36.22-8.74-1.02,11.31-2.69,30.84,11.7-6.07,24.1-10.88,36.9-14.32-23.89,24.18,3.12,20.5,24.63,30.73,12.74,3.42,30.91-2.84,29.46-15.51,25.8,10.26,31.87,4.06,4.42,17.31,15.29,3.27,31.81,.83,45.38-6.69-8.25,20.12-34.61,31.3-55.58,23.59,4.82,34.32,87.5-31.12,42.03,28.66,28.72-6.03,26.34,4.65,16.26,26.93,.92-20.43-17.58-23.39-29.85-9.81,14.52-7.84-2.71-21.58-14.92-19.12-27.93-4.51-66.54,8.5-86.23-15.88-5.98,10.28,5,25.15,17.05,23.07-15.18,4.63-31.24,6.56-47.13,5.68,1.37-24.27-4.95-3.11-20.53-10.12,5.16-6.57,3.13-17.24-4.11-21.61-5.28,28.27-13.31,39.32-20.53,3.47-17.21-1.18-34.01-7.49-47.52-17.83-.99,12.13,7.67,24.37,19.75,27.91-6.81-.6-13.27,5.9-12.36,12.42,40.36-16.58,20.89,47.93-3.89,11.87-5.17,4.26-2.76,13.97,3.86,15.52-14.63,1.73-19.43,16.13-1.45,15.12-12.94,7.42-46.76-.28-16.14,12.34-3.74,5.2-12.12,3.1-18.39,4.98-6.27,1.88-4.04,14.6,.69,10.21-17.89,.52-35.78,1.05-53.67,1.57,10.91,12.95,26.26,22.38,43.06,26.44-4.89,7.59-8.95,19.27-1.03,23.93-26.81,15.97-7.53,14.35,13.57,15.53-7.37,7.3-14.73,14.61-22.1,21.91-3.56-4.81-13.09-2.54-13.9,3.31-11.25-3.49-21.56-9.73-29.69-17.98,.44,35.29-51.7,3.4-26.1,39.88-17.72,19.16-31.55-14.34-17.74-29.37-22.31,11-46.17-16.7-18.72-19.05-45.96-17.28,3.43,1.95,22.51-11.32-19.47-14.86-2.27-8.8,5.95-22.15,3.61-12.22-10.64-17.61-15.63-6.53-9.97,11.03-29.14-.97-43.75,3.03-29.35,28.78-86.73,12.42-67.58-32.79,10.57,6.6,16.71,15.82,19.51-1.78,6.2,8.55,18.34,12.62,28.71,9.61-41.55-13.21,50.62-14.67,12.66-26.62,36.91-40.01-45.94-23.36,14.19-43.17-23.01-8.91-87.1-5.28-71.32-44.44,9.96,14.09,21.66,26.38,28.09,3.05,30.21,16.67,11.58-15.58-2.27-25.3-13.65,17.25-31.82-12.48-9.01-15.16-14.51-7.9-29.03-15.8-43.54-23.71,22.87-4.43,48.58,.63,49.62-28.16-19.57,4.44-40.27,4.24-59.75-.58,27.75-17.42,36.32-34.1-3.7-22.11,16.89-15.77,7.54-16.37-7.72-5.28,7.51-10.41,6.11-25.92-3.16-34.93-1.05,15.89,8.69,49.41-15.63,27.16,34.15,15.64-13.74,23.44,11.91,35.02-3.46,9.48-25.86-8.51-30.48,16.41,16.93-.11,52.36-.8,25.4,16.73-20.5-16.59-49.98,7.52-12.99,4.36-8.97,6.15-17.94,12.3-26.91,18.45,12.48-11.68,39.1,4.15,20.58,13.41,26.32-10.64,32.54,4.27,8.82,17.63-20.9-25.87-36.33,9.87-60.3-.38,36.09,15.43,117.4,11.73,10.94,26.54,9.7,18.28-21.36,15.61-7.41,31.78-45.24,9.49-24.63,46.55,16.47,34.26-50.42,19.23-79.77,47.88-138.9,38.94,9.88,9.39,54.19,14.96,37.02,32.5,21.85-4.85,40.82,10.6,61.75,.49-24.19,27.71,28.56,13.03,47.15,17.87-33.28,23.58-87.15-20.04-126.92,.21,22.51,12.6,16.04,4.77,42,6.73-8.65,81.48-63.36-29.1-102,11.56-26.28-12.27,18.94-27.93-10-24.09-4.75-12.75,5.51-25.77-3.6-36.08-12.29,26.83-86.75,22.66-41.03-4.79-11.67-5.73-22.53-13.01-32.16-21.56,7.7,25.46-88.79,21.05-55.83,4.29-10.78,1.91-21.2,5.66-30.66,11.01-.9-18.8,33.56-15.9,9.49-25.43,36.43-38.89-76.49,33.41-21.46-9.53-116.77-6.6,19.25-46.52,21.25-62.9,.85-6.95-16.99-5.66-23,.96-21,23.12-16-4.82-40,14.45-4.03,3.24,5-32.75-6-21.19-35.42,37.22-93.2,2.56-48,0,17-.96,38-11.56,19-23.12,19.03-5.54,21.99-38.25,10-24.08-22,26.01-37-16.38-34-23.12-10,7.71-16.84-21.28-1.61-48.58-22.71-7.3-8.88,19.14-23.62,26.75-7.79,6.16-18.94,5.62-27.9,9.16-12.16,6.1-17.3,19.41-29.87,14.12,4.51-1.26-.15-9.62,4.36-10.88-24.8,15.29-1.56-21.93-1.11-34.92-55.04,13.16-23.46-56.49-31.44-86.64-60.24,44.7-49.19,17.28-20.53,91.68-22.61-1.84-31.8,20.75-6.18,26.64-20.61,14.26-48.31,18.49-72.48,11.07,9.07-12.98,56.11-10.17,24.31-24.02-13.37-54.06-136.14-28.82-59.74-57.41-2.09-7.21-9.65-12.58-17.42-12.38,20.98-24.12-46.03-11.95-60.25-13.63-7.05-18.08-35.14-27.58-3.68-44.08,120.17,22.76-16.63-48.5,73.53-13.7-3.61-23.44,37.28,1.79,43.01-12.89-8.26-1.05-9.94-13.27-4.15-19.04,10.71-9.71,75.14-6.56,29.34-19.84,8.14-1.14,12.46-12.24,7.11-18.27-10.57,13.09-30.43,18.33-46.44,12.27-25.99-2.69-106.09-24.42-64.33,13.47-17.52-6.99-39.05-3.48-53.21,8.67-8.3-24.54-12.96-28.5-35.93-15.67-31.02-28.86-3.38-43.88,30.13-35.04,54.43-9.24-16.86-23.02-19.21-49.18,2.88-23.05,15.83-20.73,23.91-1.46,10.01-11.25,29.17-13.54,41.74-5,10.25-19.49,38.67-10.77,57.92-15.56-15.21-32.01,27.23-13.74,40.88-38.1-20.03-2.33-18.35-8.1-6-23.23-8.76,1.53-32.12-8.52-27.55,2.23-6.96-6.87-16.41-11.35-26.31-12.48-20.99,54.22-63.97,13.63-101.88,51.22-11.06-26.05,36.3-36.08,29.47-55.61-15.7-1.15-30.75-8.85-40.52-20.74,67.83-14.36,38.88-21.08,77.82,14.25,14.39-33.04,37.11-19.67,36-56.72,42.48,26.11,71.01,15.83,19.01-16.18,23.25,14.59,74.64,7.87,59.86-26.19,42.91-3.67-3.69-16.98,34.05-31.82-4.96-8.76-18.38-11.73-26.81-5.93,5.86-43.54-23.39-1.41-28.63,16.74-6.25-12.15-20.64-19.92-34.66-18.71,10.22,5.8,17.08,16.75,17.65,28.17l-95.33-4.05c58.83,22.38,15.58,12.86-19.15,28.24,6.18,16.08-18.73,17.32-28.24,9.64-10.63,19.09-44.38,19.28-55.24,.31-78.31-10.83,132.07-32.03,127.93-77.33-23.33-8.13-68.2,18.57-64.43-15.36,45.81-21.29,60.78-13.9,25.05-50.79,21.97,12.57,38.46,39.63,48.25,4.06-9.72,3.28-19.35-10.97-12.3-18.21,8.6-8.83,27.07-.99,34.89-10.47,5.12,9.43,17.69,14.41,28.22,11.19-27.84-40.94-44.77-22.88,9.74-55.48,18.18-10.45,24.71-27.43,48.22-22.55-4.58-15.74-12.73-31.57,12.41-27.18,7.15-15.12-17.16-17.28-26.21-9.35,24.08-5.85,12.85-13.64-5.3-11.5,10.25-21.94-9.19-27.76-19.94-7.95,15.87,32.58,6.02,22.39-13.88,3.27,12.82,58.41-57.61-1.39-18.83,47.05-20.83,2.87-71.73,3.74-28.18,18.22-24.62,9.08-97.21-14.83-56.89,17.75-50.69,17.82-22.04-14.4-58.64,9.19-7.03-.09-13.35-6.33-13.28-13.1,4.97,4.57,12.73,6.08,19.16,3.73,2.05-19.44,3.81-33.64-20.85-28.95,10.19-22.11,24.96-4.31,10.58-12.37-1.18-3.36,3.3-7.04,6.55-5.39-2.6-5.6-11.12-7.58-16.09-3.75-.17-20.56-17.26-5.74-21.11,5.33-24.03,1.17-54.45-1.5-62.56-23.33,12.06-5.23,46.54,19.32,48.76-4.96-9.76-17.71-28.54-30.75-41.63-46.56,11.3,9.87,28.28,13.25,42.71,8.5-12.07-21.66-16.48-24.91,8.55-9.2,2.18-17.19,16.36-21.59-5.09-36.73,34.46,1.67,39.46-17.48,46.53-45.48,18.37,7.54,42.41,11.93,27.87-13.66,12.61,1.12,25.4-7.57,28.54-19.39-34.54,3.77-69.35,11.35-96.1-.2,8.94,4.33,13.88,15.14,11.16,24.41-13.22-19.26-56.07,12.16-63.4-14.8,15.94,13.49,17.38-15.02,5.86-22.89-16.31-30.41,30.59-12.02,46.28-22.32-20.26-6.67-22.19-32.87,4.27-21.1,9.11-13.49,24.97-22.53,41.63-23.74-18.68-8.08-9.55-14.19-12.79-31.62-28.7-.01-117.3,36.21-64.6-14.14-7.76-4.66-9.42-16.47-3.22-22.95,4.13,8.63,15.87,12.99,24.95,9.28-8.98-1.98-1.84-16.16,7.28-17.37,55.53-3.44-7.32-5.48,3.5-29.64,34.22,23.08,42.59-26.19,51.84-4.69,16.97,1.4,31.66-18.02,25.09-33.16-16.13,10.24-36.04,14.83-55.23,12.72-.79-18.72-24.89-19.52-29.12,.19-19.51,11.34-39.02,22.68-58.52,34.03-5.25-23.9-14.99-32.67,13.78-15.79,17.47-34.17,18.87-26.99-20.98-34.83-2.06-9.63,10.77-18.67,19.67-13.87-1.81-12.93-1.94-16.52,13.5-12.47,24.32-28.24,7.19-23.12,38.43-13.27,14.24-34.2,33.54-20.32,64.76-22.62-6.82-5.42-13.62-10.83-20.43-16.24,3.71,2.37,9.6-1.21,8.98-5.46s-7.33-6.1-10.2-2.83c5.15-3.39,8.01-9.73,7.08-15.67-5.47-6.84-19.36-2.46-19.57,6.17-6.82-7.88-18.98-10.98-28.96-7.4,16.67,22.99,3.18,26.21-17.62,17.31-1.66,14.51-24.22,36.23-20.83,10.07-21.99,7.78-40.11-22.65-21.35-36.92,27.48,24.78,15.58-15.97,11.65-30.63,42.64,3.06,.99-20.47,45.62-31.38-21.44-20.03,.09-12.55-2.34-38.49-7.46,5.58-14.92,11.16-22.37,16.74-1.58-19.9-21.71-6.86,1.55-29.58-22.41-4.09-33.72,13.2-37.56-17.25,18.46,2.18,37.15,2.6,55.7,1.25-11.97-23.56-14.7-22.5,11.52-30.69-24.93-17.1,20.36-31.82,30.76-42.22-26.23,2.2-44.48,33.6-69.24,25.07,1.85,15.39-18.9,28.28-32.69,20.3,12.02-10.74,21.63-37.1-.09-41.94,7.65-1.57,13.23-9.51,11.91-16.94-1.93,4.58-6.81,7.86-11.94,8.01-8.34-14.63-7.18-21.7,11.88-25.38-7.85,.53-7.23-11.48-3.43-18.11C8.45,90.38,20.58,38.81,4.91,25.15c-23.14,35.05-.62,1850.29-8.25,1890.59,1142.63,16.19,1921.02,3.77,1921.02,3.77,0,0,18.41-812.56,0-1851.62Z"/>
</svg>