<?xml version="1.0" encoding="UTF-8"?>
<svg id="Layer_1" data-name="Layer 1" xmlns="http://www.w3.org/2000/svg" xmlns:xlink="http://www.w3.org/1999/xlink" viewBox="0 0 1920 1920">
  <defs>
    <style>
      .cls-1 {
        fill: url(#linear-gradient-2);
      }

      .cls-2 {
        fill: url(#linear-gradient);
      }
    </style>
    <linearGradient id="linear-gradient" x1="480.04" y1="2131.95" x2="1601.14" y2="609.41" gradientTransform="translate(0 1922) scale(1 -1)" gradientUnits="userSpaceOnUse">
      <stop offset="0" stop-color="#41d1ff"/>
      <stop offset="1" stop-color="#bd34fe"/>
    </linearGradient>
    <linearGradient id="linear-gradient-2" x1="1008.69" y1="1900.61" x2="1211.5" y2="509.42" gradientTransform="translate(0 1922) scale(1 -1)" gradientUnits="userSpaceOnUse">
      <stop offset="0" stop-color="#ffea83"/>
      <stop offset=".08" stop-color="#ffdd35"/>
      <stop offset="1" stop-color="#ffa800"/>
    </linearGradient>
  </defs>
  <path class="cls-2" d="M1912.45,284.18L1011.66,1894.94c-18.6,33.26-66.38,33.45-85.26,.36L7.76,284.33c-20.57-36.06,10.27-79.75,51.14-72.44l901.75,161.18c5.75,1.03,11.64,1.02,17.39-.03l882.89-160.92c40.73-7.42,71.72,35.92,51.51,72.06Z"/>
  <path class="cls-1" d="M1390.2,.47L723.59,131.09c-10.96,2.15-19.07,11.43-19.73,22.57l-41.01,692.55c-.96,16.31,14.02,28.97,29.94,25.3l185.59-42.83c17.36-4,33.06,11.29,29.49,28.75l-55.14,270.01c-3.71,18.17,13.35,33.71,31.1,28.32l114.63-34.83c17.77-5.4,34.85,10.19,31.09,28.38l-87.63,424.12c-5.48,26.53,29.8,41,44.52,18.25l9.83-15.19L1539.46,492.47c9.1-18.15-6.59-38.85-26.52-35l-191.04,36.87c-17.95,3.46-33.23-13.26-28.16-30.82L1418.43,31.28c5.07-17.59-10.26-34.33-28.23-30.81Z"/>
</svg>